<?xml version="1.0" standalone="no"?>
<!DOCTYPE svg PUBLIC "-//W3C//DTD SVG 1.1//EN" "http://www.w3.org/Graphics/SVG/1.1/DTD/svg11.dtd" >
<svg>
<metadata>
Created by FontForge 20090622 at Sun Mar 12 15:29:34 2017
 By deploy user
Copyright (c) Olivier Gourvat - Mostardesign Studio, 2012. All rights reserved.
</metadata>
<defs>
<font id="SofiaProRegular" horiz-adv-x="580" >
  <font-face 
    font-family="Sofia Pro Regular"
    font-weight="400"
    font-stretch="normal"
    units-per-em="1000"
    panose-1="2 11 0 0 0 0 0 0 0 0"
    ascent="750"
    descent="-250"
    x-height="467"
    cap-height="689"
    bbox="-172 -251 1141 1091"
    underline-thickness="50"
    underline-position="-50"
    unicode-range="U+0020-U+FB04"
  />
<missing-glyph horiz-adv-x="635" 
d="M80 0v665h475v-665h-475zM185 431h62q0 37 21 60t53 23t56 -20.5t24 -52.5q0 -30 -24 -50q-15 -17 -33 -21q-45 -13 -69 -38t-24 -72v-38h62v38q0 22 12.5 32.5t37.5 17.5q43 13 71 48t28 83q0 60 -41.5 97.5t-99.5 37.5q-57 0 -96.5 -40t-39.5 -105zM237 131
q0 -18 13.5 -30.5t32.5 -12.5q18 0 31.5 12.5t13.5 30.5t-13.5 30.5t-31.5 12.5q-19 0 -32.5 -12.5t-13.5 -30.5z" />
    <glyph glyph-name="f_f" unicode="ff" horiz-adv-x="707" 
d="M711 721v-87h-51q-89 0 -87 -120v-47h108v-77h-108v-390h-92v390h-272v-390h-92v390h-90v77h90v47q0 97 44 152t135 55h51v-87h-51q-89 0 -87 -120v-47h272v47q0 97 44 152t135 55h51z" />
    <glyph glyph-name="fi" unicode="fi" horiz-adv-x="631" 
d="M467 0v390h-258v-390h-92v390h-90v77h90v47q0 97 44 152t135 55h51v-87h-51q-89 0 -87 -120v-47h348v-467h-90zM449 639q0 25 18.5 42t44.5 17t44.5 -17t18.5 -42t-18.5 -42t-44.5 -17t-44.5 17t-18.5 42z" />
    <glyph glyph-name="fl" unicode="fl" horiz-adv-x="616" 
d="M449 0v634h-153q-89 0 -87 -120v-47h108v-77h-108v-390h-92v390h-90v77h90v47q0 97 44 152t135 55h244v-721h-91z" />
    <glyph glyph-name="f_f_i" unicode="ffi" horiz-adv-x="995" 
d="M831 390h-258v-390h-92v390h-272v-390h-92v390h-90v77h90v47q0 97 44 152t135 55h51v-87h-51q-89 0 -87 -120v-47h272v47q0 97 44 152t135 55h51v-87h-51q-89 0 -87 -120v-47h348v-467h-90v390zM813 639q0 25 18.5 42t44.5 17t44.5 -17t18.5 -42t-18.5 -42t-44.5 -17
t-44.5 17t-18.5 42z" />
    <glyph glyph-name="f_f_l" unicode="ffl" horiz-adv-x="980" 
d="M813 0v634h-153q-89 0 -87 -120v-47h108v-77h-108v-390h-92v390h-272v-390h-92v390h-90v77h90v47q0 97 44 152t135 55h51v-87h-51q-89 0 -87 -120v-47h272v47q0 97 44 152t135 55h244v-721h-91z" />
    <glyph glyph-name="f_f_j" unicode="ffj" horiz-adv-x="987" 
d="M683 -229v85h54q86 0 84 116v418h-248v-390h-92v390h-272v-390h-92v390h-90v77h90v47q0 97 44 152t135 55h51v-87h-51q-89 0 -87 -120v-47h272v47q0 97 44 152t135 55h51v-87h-51q-89 0 -87 -120v-47h340v-496q0 -200 -168 -200h-62zM804 639q0 25 18.5 42t44.5 17
t44.5 -17t18.5 -42t-18.5 -42t-44.5 -17t-44.5 17t-18.5 42z" />
    <glyph glyph-name="f_j" unicode="fj" horiz-adv-x="623" 
d="M319 -229v85h54q86 0 84 116v418h-248v-390h-92v390h-90v77h90v47q0 97 44 152t135 55h51v-87h-51q-89 0 -87 -120v-47h340v-496q0 -200 -168 -200h-62zM440 639q0 25 18.5 42t44.5 17t44.5 -17t18.5 -42t-18.5 -42t-44.5 -17t-44.5 17t-18.5 42z" />
    <glyph glyph-name=".notdef" horiz-adv-x="635" 
d="M80 0v665h475v-665h-475zM185 431h62q0 37 21 60t53 23t56 -20.5t24 -52.5q0 -30 -24 -50q-15 -17 -33 -21q-45 -13 -69 -38t-24 -72v-38h62v38q0 22 12.5 32.5t37.5 17.5q43 13 71 48t28 83q0 60 -41.5 97.5t-99.5 37.5q-57 0 -96.5 -40t-39.5 -105zM237 131
q0 -18 13.5 -30.5t32.5 -12.5q18 0 31.5 12.5t13.5 30.5t-13.5 30.5t-31.5 12.5q-19 0 -32.5 -12.5t-13.5 -30.5z" />
    <glyph glyph-name=".null" horiz-adv-x="0" 
 />
    <glyph glyph-name="nonmarkingreturn" horiz-adv-x="333" 
 />
    <glyph glyph-name="space" unicode=" " horiz-adv-x="260" 
 />
    <glyph glyph-name="exclam" unicode="!" horiz-adv-x="264" 
d="M177 689l-9 -504h-71l-10 504h90zM66 52q0 27 19 45t46 18t46.5 -18t19.5 -45t-19.5 -44.5t-46.5 -17.5t-46 17.5t-19 44.5z" />
    <glyph glyph-name="quotedbl" unicode="&#x22;" horiz-adv-x="355" 
d="M75 689h71v-288h-71v288zM209 689h71v-288h-71v288z" />
    <glyph glyph-name="numbersign" unicode="#" horiz-adv-x="656" 
d="M515 515h105l-23 -85h-106l-48 -175h105l-23 -85h-105l-49 -170h-86l48 170h-107l-49 -170h-85l48 170h-104l23 85h104l47 175h-102l22 85h104l48 174h87l-48 -174h107l48 174h87zM297 430l-48 -175h107l48 175h-107z" />
    <glyph glyph-name="dollar" unicode="$" horiz-adv-x="562" 
d="M314 -9v-110h-62v111q-90 11 -147.5 71t-57.5 136h93q1 -47 43 -84.5t105 -37.5q62 0 97 29t42 72q4 51 -30 81.5t-87 41.5l-89 22q-168 43 -168 180q0 78 58 131t141 61v100h62v-101q82 -11 133 -64t51 -135h-93q0 51 -36.5 82t-93.5 31q-52 0 -90.5 -29t-38.5 -75
q0 -72 98 -96l90 -22q98 -25 146 -80t38 -136q-9 -72 -63 -122t-141 -57z" />
    <glyph glyph-name="percent" unicode="%" horiz-adv-x="682" 
d="M532 673l-329 -673h-66l329 673h66zM38 539q0 56 38.5 95t94.5 39q55 0 94.5 -39.5t39.5 -94.5q0 -56 -39 -94.5t-95 -38.5t-94.5 38.5t-38.5 94.5zM108 539q0 -27 18 -45t45 -18t45.5 18t18.5 45q0 26 -19 45t-45 19q-27 0 -45 -18.5t-18 -45.5zM378 123q0 56 38.5 95
t94.5 39q55 0 94.5 -39.5t39.5 -94.5q0 -56 -39 -94.5t-95 -38.5t-94.5 38.5t-38.5 94.5zM448 123q0 -27 18 -45t45 -18t45.5 18t18.5 45q0 26 -19 45t-45 19q-27 0 -45 -18.5t-18 -45.5z" />
    <glyph glyph-name="ampersand" unicode="&#x26;" horiz-adv-x="657" 
d="M283 422h135v89h86v-90h87v-73h-87v-137q0 -66 21 -101t83 -35v-84q-55 0 -96.5 20.5t-61.5 53.5q-26 -35 -71.5 -54.5t-98.5 -19.5q-98 0 -161.5 63.5t-63.5 156.5q0 56 27 104t75 78q-49 46 -49 124q0 72 52 122t127 50q51 0 95.5 -27t70.5 -71l-74 -46q-34 57 -92 57
q-40 0 -66 -24t-26 -61t25 -66t63 -29zM418 348h-137q-59 0 -99 -41t-40 -96q0 -57 38.5 -95t99.5 -38q59 0 97.5 36t40.5 91v143z" />
    <glyph glyph-name="quotesingle" unicode="'" horiz-adv-x="221" 
d="M75 689h71v-288h-71v288z" />
    <glyph glyph-name="parenleft" unicode="(" horiz-adv-x="363" 
d="M49 232q0 215 74.5 340t199.5 125v-89q-86 0 -137.5 -102t-51.5 -274t51.5 -274t137.5 -102v-89q-125 0 -199.5 125t-74.5 340z" />
    <glyph glyph-name="parenright" unicode=")" horiz-adv-x="363" 
d="M314 232q0 -215 -74.5 -340t-199.5 -125v89q86 0 137.5 102t51.5 274t-51.5 274t-137.5 102v89q125 0 199.5 -125t74.5 -340z" />
    <glyph glyph-name="asterisk" unicode="*" horiz-adv-x="467" 
d="M158 350l-60 46l85 105l-131 37l13 38l6.5 19l5.5 16l125 -49l-8 135h79l-9 -135q17 6 62 24t65 25l23 -73l-130 -35l87 -108l-62 -43l-73 111z" />
    <glyph glyph-name="plus" unicode="+" horiz-adv-x="519" 
d="M216 305v162h87v-162h162v-87h-162v-163h-87v163h-162v87h162z" />
    <glyph glyph-name="comma" unicode="," horiz-adv-x="257" 
d="M81 -126l-64 21q71 98 68 220h96q-6 -86 -35 -148.5t-65 -92.5z" />
    <glyph glyph-name="hyphen" unicode="-" horiz-adv-x="486" 
d="M69 277h348v-87h-348v87z" />
    <glyph glyph-name="period" unicode="." horiz-adv-x="266" 
d="M68 52q0 27 19 45t46 18t46.5 -18t19.5 -45t-19.5 -44.5t-46.5 -17.5t-46 17.5t-19 44.5z" />
    <glyph glyph-name="slash" unicode="/" horiz-adv-x="501" 
d="M470 689l-340 -689h-99l340 689h99z" />
    <glyph glyph-name="zero" unicode="0" horiz-adv-x="605" 
d="M66 325q0 74 11 131.5t36.5 105.5t73.5 73.5t116 25.5q69 0 116.5 -25.5t73 -73.5t36 -105t10.5 -132q0 -74 -10.5 -130.5t-36 -104.5t-73.5 -73.5t-116 -25.5q-55 0 -96.5 17.5t-68 47t-43 73t-23 91t-6.5 105.5zM156 325q0 -114 32.5 -179.5t114.5 -65.5t114.5 65.5
t32.5 179.5q0 115 -32.5 180.5t-114.5 65.5t-114.5 -65.5t-32.5 -180.5z" />
    <glyph glyph-name="one" unicode="1" horiz-adv-x="334" 
d="M148 0v539l-106 -37v86l196 71v-659h-90z" />
    <glyph glyph-name="two" unicode="2" horiz-adv-x="527" 
d="M60 40l265 321q48 56 48 107q0 46 -33.5 74.5t-82.5 28.5q-45 0 -78 -27.5t-40 -75.5l-87 21q13 78 70 125t135 47q87 0 146 -54t59 -139q0 -88 -71 -169l-177 -209h249v-90h-403v40z" />
    <glyph glyph-name="three" unicode="3" horiz-adv-x="535" 
d="M148 513l-67 53q27 47 78 73.5t111 22.5q79 -4 130.5 -57.5t49.5 -123.5q0 -19 -6 -40q-18 -59 -71 -89q49 -18 78.5 -70t24.5 -106q-7 -83 -77.5 -137t-161.5 -47q-64 4 -116 41.5t-78 94.5l79 43q16 -35 50 -61t72 -29h-1q55 -3 97.5 28.5t44.5 78.5q1 47 -36.5 82
t-89.5 35h-74v87h74q34 -1 59 20.5t31 54.5q7 41 -11 67q-23 35 -76 38q-70 6 -114 -59z" />
    <glyph glyph-name="four" unicode="4" horiz-adv-x="592" 
d="M455 134v-134h-89v134h-340l362 519h67v-434h94v-85h-94zM179 219h187v272z" />
    <glyph glyph-name="five" unicode="5" horiz-adv-x="564" 
d="M48 139l77 42q19 -48 56.5 -76t83.5 -28q78 0 117.5 37t39.5 96q0 60 -38.5 92.5t-96.5 32.5q-42 0 -76 -11.5t-86 -42.5l-56 46l57 325h348v-86h-274l-36 -185q22 16 57.5 27t65.5 11q95 0 159 -55.5t64 -153.5q0 -100 -67.5 -160t-177.5 -60q-69 0 -128 40.5t-89 108.5
z" />
    <glyph glyph-name="six" unicode="6" horiz-adv-x="556" 
d="M492 535l-80 -34q-37 75 -111 75q-68 0 -108.5 -64.5t-31.5 -163.5q29 74 134 74q87 0 146 -67.5t56 -156.5q-5 -89 -68 -150t-151 -57q-87 4 -143.5 63.5t-64.5 160.5q-9 123 11 247q15 90 75.5 146t148.5 53q62 -3 109.5 -30.5t77.5 -95.5zM160 212q0 -54 35.5 -91
t86.5 -39t87.5 32.5t38.5 87.5t-31 90.5t-85 39.5t-91 -32.5t-41 -87.5z" />
    <glyph glyph-name="seven" unicode="7" horiz-adv-x="530" 
d="M513 653l-358 -653h-105l311 564h-299v89h451z" />
    <glyph glyph-name="eight" unicode="8" horiz-adv-x="562" 
d="M107 494q0 70 50 118.5t124 48.5t125 -48.5t51 -118.5q0 -69 -51 -115q47 -29 73.5 -75t26.5 -100q0 -89 -65 -151t-160 -62q-96 0 -160.5 61.5t-64.5 151.5q0 54 26.5 100.5t72.5 74.5q-48 46 -48 115zM146 204q0 -52 39 -88t96 -36t96 36t39 88t-39 89t-96 37h-7
q-54 -1 -91 -38.5t-37 -87.5zM196 494q0 -32 23 -55.5t57 -24.5h8q36 1 59.5 24.5t23.5 55.5t-24.5 54.5t-61.5 22.5q-36 0 -60.5 -22.5t-24.5 -54.5z" />
    <glyph glyph-name="nine" unicode="9" horiz-adv-x="555" 
d="M63 116l80 34q37 -75 111 -75q68 0 108.5 64.5t31.5 163.5q-29 -74 -134 -74q-87 0 -146 67.5t-56 156.5q5 89 68 150t151 57q87 -4 143.5 -63.5t64.5 -160.5q9 -123 -11 -247q-15 -90 -75.5 -146t-148.5 -53q-62 3 -109.5 30.5t-77.5 95.5zM395 439q0 54 -35.5 91
t-86.5 39t-87.5 -32.5t-38.5 -87.5t31 -90.5t85 -39.5t91 32.5t41 87.5z" />
    <glyph glyph-name="colon" unicode=":" horiz-adv-x="269" 
d="M69 52q0 27 19.5 45t46.5 18t46 -18t19 -45t-19 -44.5t-46 -17.5t-46.5 17.5t-19.5 44.5zM69 415q0 27 19.5 44.5t46.5 17.5t46 -17.5t19 -44.5t-19 -45t-46 -18t-46.5 18t-19.5 45z" />
    <glyph glyph-name="semicolon" unicode=";" horiz-adv-x="284" 
d="M98 -126l-69 21q71 98 68 220h101q-6 -86 -34.5 -148.5t-65.5 -92.5zM83 415q0 27 19 44.5t46 17.5t46.5 -17.5t19.5 -44.5t-19.5 -45t-46.5 -18t-46 18t-19 45z" />
    <glyph glyph-name="less" unicode="&#x3c;" horiz-adv-x="622" 
d="M554 32l-507 193v87l507 194v-97l-381 -140l381 -142v-95z" />
    <glyph glyph-name="equal" unicode="=" horiz-adv-x="608" 
d="M74 390h460v-87h-460v87zM74 197h460v-87h-460v87z" />
    <glyph glyph-name="greater" unicode="&#x3e;" horiz-adv-x="621" 
d="M574 225l-506 -194v96l380 142l-380 140v97l506 -194v-87z" />
    <glyph glyph-name="question" unicode="?" horiz-adv-x="483" 
d="M129 488h-86q0 94 57 151.5t140 57.5q84 0 144.5 -54t60.5 -141q0 -70 -41 -120t-103 -69q-36 -11 -53.5 -26t-17.5 -47l-2 -55h-88v55q0 68 34.5 103.5t99.5 55.5q33 9 57.5 39t24.5 64q0 47 -35 76.5t-81 29.5q-45 0 -78 -33t-33 -87zM119 53q0 27 19.5 45t46.5 18
t46 -18t19 -45t-19 -44.5t-46 -17.5t-46.5 17.5t-19.5 44.5z" />
    <glyph glyph-name="at" unicode="@" horiz-adv-x="970" 
d="M600 257q0 54 -37.5 91.5t-91.5 37.5t-91.5 -37.5t-37.5 -91.5q0 -53 38 -90.5t91 -37.5q51 0 99 48v-85q-48 -34 -99 -34q-83 0 -141.5 58.5t-58.5 140.5q0 83 58.5 141.5t141.5 58.5q80 0 138 -55q59 -56 62 -136v-145q0 -66 72 -66q34 0 58.5 21.5t36.5 56t17 68
t5 68.5q0 150 -111.5 250.5t-267.5 100.5q-152 0 -256.5 -107.5t-104.5 -260.5t104 -259t257 -106h23v-71h-23q-182 0 -307 126.5t-125 309.5q0 182 125.5 310.5t306.5 128.5q121 0 224 -54t165 -151.5t62 -216.5q0 -47 -10 -94t-31 -91t-59.5 -71.5t-88.5 -27.5
q-62 0 -102.5 33.5t-40.5 109.5v129z" />
    <glyph glyph-name="A" unicode="A" horiz-adv-x="645" 
d="M209 259h228l-114 306zM469 175h-292l-67 -175h-99l262 689h100l261 -689h-98z" />
    <glyph glyph-name="B" unicode="B" horiz-adv-x="628" 
d="M541 511q0 -111 -87 -144q55 -11 89.5 -62t34.5 -106q0 -84 -55 -141.5t-147 -57.5h-282v689h260q86 0 136.5 -48t50.5 -130zM188 403h166q44 0 68 30t24 75t-27.5 70t-74.5 25h-156v-200zM369 321h-181v-234h184q49 0 79.5 33.5t30.5 79.5q0 45 -32 83t-81 38z" />
    <glyph glyph-name="C" unicode="C" horiz-adv-x="683" 
d="M589 168l70 -59q-47 -56 -114.5 -87.5t-146.5 -31.5q-146 0 -247.5 103t-101.5 250t101.5 250.5t247.5 103.5q78 0 145 -31t114 -86l-70 -58q-78 85 -189 85q-108 0 -182 -77t-74 -187t74 -186.5t182 -76.5q116 0 191 88z" />
    <glyph glyph-name="D" unicode="D" horiz-adv-x="724" 
d="M361 0h-267v689h267q143 0 226.5 -97.5t83.5 -248.5q0 -150 -83 -246.5t-227 -96.5zM187 87h174q104 0 160.5 71.5t56.5 184.5q0 114 -56.5 186.5t-160.5 72.5h-174v-515z" />
    <glyph glyph-name="E" unicode="E" horiz-adv-x="565" 
d="M94 689h408v-87h-315v-220h275v-87h-275v-208h325v-87h-418v689z" />
    <glyph glyph-name="F" unicode="F" horiz-adv-x="526" 
d="M94 689h402v-87h-309v-220h245v-87h-245v-295h-93v689z" />
    <glyph glyph-name="G" unicode="G" horiz-adv-x="756" 
d="M630 606l-67 -62q-72 64 -166 64q-107 0 -181 -77.5t-74 -187.5t74 -187t181 -77q94 0 155 50.5t65 135.5h-196v81h302q0 -177 -87 -266.5t-239 -89.5q-146 0 -247 103t-101 250q0 148 101 251t247 103q135 0 233 -91z" />
    <glyph glyph-name="H" unicode="H" horiz-adv-x="708" 
d="M614 689v-689h-94v300h-333v-300h-93v689h93v-304h333v304h94z" />
    <glyph glyph-name="I" unicode="I" horiz-adv-x="281" 
d="M94 689h93v-689h-93v689z" />
    <glyph glyph-name="J" unicode="J" horiz-adv-x="281" 
d="M-100 -240l9 88q24 -8 66 -8q61 0 90 37t29 96v716h93v-716q0 -99 -51.5 -161.5t-160.5 -62.5q-22 0 -75 11z" />
    <glyph glyph-name="K" unicode="K" horiz-adv-x="578" 
d="M265 345l320 -345h-125l-273 294v-294h-93v689h93v-298l228 298h115z" />
    <glyph glyph-name="L" unicode="L" horiz-adv-x="495" 
d="M94 689h93v-602h281v-87h-374v689z" />
    <glyph glyph-name="M" unicode="M" horiz-adv-x="934" 
d="M467 183l243 506h85l84 -689h-92l-63 518l-215 -442h-82l-217 442l-63 -518h-92l84 689h85z" />
    <glyph glyph-name="N" unicode="N" horiz-adv-x="684" 
d="M590 0h-89l-314 519v-519h-93v689h92l311 -515v515h93v-689z" />
    <glyph glyph-name="O" unicode="O" horiz-adv-x="796" 
d="M49 343q0 148 101 251t247 103q147 0 248.5 -103t101.5 -251q0 -147 -101.5 -250t-248.5 -103q-146 0 -247 103t-101 250zM142 343q0 -110 73.5 -186.5t181.5 -76.5t182 76.5t74 186.5t-74 187t-182 77q-107 0 -181 -77t-74 -187z" />
    <glyph glyph-name="P" unicode="P" horiz-adv-x="606" 
d="M94 689h275q102 0 153.5 -63t51.5 -153t-51.5 -152.5t-153.5 -62.5h-181v-258h-94v689zM368 602h-180v-257h175q59 0 88.5 37.5t29.5 90.5t-28.5 91t-84.5 38z" />
    <glyph glyph-name="Q" unicode="Q" horiz-adv-x="796" 
d="M583 43l72 -114l-72 -44l-77 122q-53 -17 -109 -17q-146 0 -247 103t-101 250q0 148 101 251t247 103q147 0 248.5 -103t101.5 -251q0 -93 -44.5 -172.5t-119.5 -127.5zM456 247l78 -126q55 35 87 93.5t32 128.5q0 110 -74 187t-182 77q-107 0 -181 -77t-74 -187
q0 -105 67.5 -179t169.5 -80q41 -3 76 4l-70 114z" />
    <glyph glyph-name="R" unicode="R" horiz-adv-x="619" 
d="M383 261l184 -261h-113l-178 258h-88v-258h-94v689h265q102 0 153 -63t51 -153q0 -84 -44.5 -144t-135.5 -68zM356 602h-168v-257h164q59 0 87 37t28 91q0 53 -27.5 91t-83.5 38z" />
    <glyph glyph-name="S" unicode="S" horiz-adv-x="573" 
d="M145 199q1 -47 43 -84.5t105 -37.5q62 0 97 29t42 72q4 51 -29.5 81t-87.5 42l-89 22q-168 43 -168 180q0 85 66 139.5t157 54.5q96 0 159 -55.5t63 -146.5h-93q0 51 -36.5 82t-93.5 31q-52 0 -90.5 -29t-38.5 -75q0 -72 98 -96l90 -22q98 -25 146 -80t38 -136
q-9 -78 -70.5 -129t-159.5 -51q-103 0 -172 62.5t-69 146.5h93z" />
    <glyph glyph-name="T" unicode="T" horiz-adv-x="568" 
d="M28 689h512v-88h-209v-601h-94v601h-209v88z" />
    <glyph glyph-name="U" unicode="U" horiz-adv-x="678" 
d="M339 80q66 0 112 44t46 113v452h94v-452q0 -110 -73.5 -178.5t-178.5 -68.5t-178.5 68.5t-73.5 178.5v452h94v-452q0 -69 46 -113t112 -44z" />
    <glyph glyph-name="V" unicode="V" horiz-adv-x="562" 
d="M125 689l156 -532l156 532h96l-207 -689h-89l-209 689h97z" />
    <glyph glyph-name="W" unicode="W" horiz-adv-x="901" 
d="M786 689h100l-233 -689h-81l-122 430l-121 -430h-81l-233 689h100l173 -539l127 446h71l127 -446z" />
    <glyph glyph-name="X" unicode="X" horiz-adv-x="615" 
d="M363 370l241 -370h-112l-185 293l-185 -293h-111l240 370l-214 319h112l158 -243l159 243h112z" />
    <glyph glyph-name="Y" unicode="Y" horiz-adv-x="628" 
d="M362 0h-96v317l-261 372h111l198 -279l200 279h112l-264 -372v-317z" />
    <glyph glyph-name="Z" unicode="Z" horiz-adv-x="573" 
d="M42 81l364 520h-350v88h468v-81l-366 -520h366v-88h-482v81z" />
    <glyph glyph-name="bracketleft" unicode="[" horiz-adv-x="327" 
d="M84 -227v916h201v-83h-111v-750h111v-83h-201z" />
    <glyph glyph-name="backslash" unicode="\" horiz-adv-x="501" 
d="M371 0l-340 689h99l340 -689h-99z" />
    <glyph glyph-name="bracketright" unicode="]" horiz-adv-x="327" 
d="M243 689v-916h-201v83h111v750h-111v83h201z" />
    <glyph glyph-name="underscore" unicode="_" horiz-adv-x="699" 
d="M69 -28h561v-81h-561v81z" />
    <glyph glyph-name="grave" unicode="`" horiz-adv-x="512" 
d="M248 554l-119 154h109l97 -154h-87z" />
    <glyph glyph-name="a" unicode="a" horiz-adv-x="612" 
d="M446 0v72q-23 -39 -68 -60.5t-96 -21.5q-99 0 -168 68t-69 176q0 109 69 176t168 67q51 0 96.5 -21t67.5 -59v70h90v-467h-90zM445 235q0 71 -47 112t-108 41q-65 0 -108.5 -42.5t-43.5 -110.5t44 -112t108 -44q65 0 110 42t45 114z" />
    <glyph glyph-name="b" unicode="b" horiz-adv-x="612" 
d="M167 72v-72h-91v721h91v-324q23 39 67 59.5t97 20.5q100 0 168 -67t68 -176q0 -108 -69 -176t-168 -68q-50 0 -95 21.5t-68 60.5zM168 235q0 -72 45 -114t110 -42q64 0 107.5 44t43.5 112t-43.5 110.5t-107.5 42.5q-61 0 -108 -41t-47 -112z" />
    <glyph glyph-name="c" unicode="c" horiz-adv-x="512" 
d="M45 235q0 108 72 175t175 67q111 0 180 -75l-69 -58q-44 44 -111 44q-65 0 -111 -42.5t-46 -110.5q0 -69 46 -113t111 -44q67 0 111 46l70 -58q-70 -76 -181 -76q-103 0 -175 68.5t-72 176.5z" />
    <glyph glyph-name="d" unicode="d" horiz-adv-x="612" 
d="M445 0v72q-23 -39 -68 -60.5t-96 -21.5q-99 0 -167.5 68t-68.5 176q0 109 68 176t167 67q53 0 97.5 -20.5t67.5 -59.5v324h91v-721h-91zM444 235q0 71 -47 112t-108 41q-64 0 -107.5 -42.5t-43.5 -110.5t43.5 -112t107.5 -44t109.5 42.5t45.5 113.5z" />
    <glyph glyph-name="e" unicode="e" horiz-adv-x="556" 
d="M136 270h290q-8 58 -46.5 91.5t-95.5 33.5q-59 0 -99.5 -33.5t-48.5 -91.5zM516 235q0 -26 -1 -36h-379q8 -58 49.5 -92.5t101.5 -34.5q43 0 79 19t55 53l40 -15.5l38 -14.5q-29 -60 -87 -92t-128 -32q-102 0 -170.5 68t-68.5 177t68.5 175.5t170.5 66.5
q101 0 166.5 -66.5t65.5 -175.5z" />
    <glyph glyph-name="f" unicode="f" horiz-adv-x="343" 
d="M347 721v-87h-51q-89 0 -87 -120v-47h108v-77h-108v-390h-92v390h-90v77h90v47q0 97 44 152t135 55h51z" />
    <glyph glyph-name="g" unicode="g" horiz-adv-x="611" 
d="M146 -67q20 -38 57.5 -59t77.5 -21q166 0 166 212q0 2 -0.5 5.5t-0.5 5.5q-20 -40 -66.5 -63t-97.5 -23q-99 0 -168 67t-69 175q0 109 69 177t168 68q51 0 96.5 -22t67.5 -61v73h90v-396q0 -304 -255 -304q-66 0 -122 33t-89 93q7 3 40 21t36 19zM445 233q0 72 -45 113.5
t-110 41.5q-64 0 -108 -44t-44 -111q0 -70 43.5 -112t108.5 -42q61 0 108 42t47 112z" />
    <glyph glyph-name="h" unicode="h" 
d="M167 252v-252h-91v721h91v-324q19 39 64.5 59.5t89.5 20.5q88 0 139 -54.5t50 -152.5v-270h-91v264q0 57 -30.5 90.5t-79.5 33.5q-56 0 -99 -33.5t-43 -102.5z" />
    <glyph glyph-name="i" unicode="i" horiz-adv-x="242" 
d="M166 0v467h-90v-467h90zM58 639q0 25 18.5 42t44.5 17t44.5 -17t18.5 -42t-18.5 -42t-44.5 -17t-44.5 17t-18.5 42z" />
    <glyph glyph-name="j" unicode="j" horiz-adv-x="244" 
d="M-62 -229v85h54q86 0 84 116v495h92v-496q0 -200 -168 -200h-62zM59 639q0 25 18.5 42t44.5 17t44.5 -17t18.5 -42t-18.5 -42t-44.5 -17t-44.5 17t-18.5 42z" />
    <glyph glyph-name="k" unicode="k" horiz-adv-x="502" 
d="M166 228v-228h-90v721h90v-417l161 163h124l-200 -202l248 -265h-120z" />
    <glyph glyph-name="l" unicode="l" horiz-adv-x="243" 
d="M76 721h91v-721h-91v721z" />
    <glyph glyph-name="m" unicode="m" horiz-adv-x="881" 
d="M613 388q-57 1 -90.5 -37.5t-33.5 -98.5v-252h-91v265q0 57 -27.5 90t-73.5 33q-54 0 -92 -34t-38 -102v-252h-91v467h91v-70q17 35 55.5 55t73.5 23q27 1 51 -3q89 -14 122 -91q50 96 162 96q87 0 133.5 -54t46.5 -153v-270h-91v264q0 58 -28.5 91t-78.5 33z" />
    <glyph glyph-name="n" unicode="n" horiz-adv-x="563" 
d="M167 252v-252h-91v467h91v-70q20 39 61.5 59.5t84.5 20.5q87 0 133.5 -54t46.5 -153v-270h-91v264q0 58 -27.5 91t-75.5 33q-55 0 -93.5 -33.5t-38.5 -102.5z" />
    <glyph glyph-name="o" unicode="o" horiz-adv-x="579" 
d="M289 -10q-102 0 -173 68t-71 177q0 108 70.5 175t173.5 67t174 -67t71 -175t-71.5 -176.5t-173.5 -68.5zM289 78q65 0 109.5 43.5t44.5 113.5q0 69 -44.5 111t-109.5 42t-109.5 -42t-44.5 -111q0 -70 44.5 -113.5t109.5 -43.5z" />
    <glyph glyph-name="p" unicode="p" horiz-adv-x="609" 
d="M167 467v-73q23 39 68 61t95 22q98 0 166 -68t68 -177q0 -108 -67.5 -175t-166.5 -67q-51 0 -96 20.5t-67 59.5v-297h-91v694h91zM168 231q0 -71 46 -111.5t107 -40.5q65 0 108 42t43 110q0 69 -43.5 113t-107.5 44t-108.5 -42.5t-44.5 -114.5z" />
    <glyph glyph-name="q" unicode="q" horiz-adv-x="609" 
d="M442 394v73h91v-694h-91v297q-22 -39 -66.5 -59.5t-96.5 -20.5q-99 0 -166.5 67t-67.5 175q0 109 68 177t166 68q50 0 95.5 -22t67.5 -61zM442 231q0 72 -44.5 114.5t-109.5 42.5q-64 0 -107 -44t-43 -113q0 -68 43 -110t107 -42q61 0 107.5 40.5t46.5 111.5z" />
    <glyph glyph-name="r" unicode="r" horiz-adv-x="395" 
d="M167 170v-170h-91v467h91v-105q34 115 130 115q55 0 81 -18l-14 -85q-33 16 -69 16q-64 0 -96 -60.5t-32 -159.5z" />
    <glyph glyph-name="s" unicode="s" horiz-adv-x="439" 
d="M182 206q-67 18 -99 54t-26 98q5 51 52 85t110 34q65 0 110.5 -32.5t51.5 -99.5h-87q-4 25 -24.5 39t-48.5 14q-26 0 -45.5 -11.5t-24.5 -30.5q-6 -22 1 -37q11 -23 55 -36l69 -17q121 -30 121 -136q0 -63 -52.5 -101.5t-128.5 -38.5q-67 0 -119.5 41t-54.5 109h83
q6 -37 38 -53q31 -19 74 -16q32 2 51 19t20 42q1 24 -16 38t-46 21z" />
    <glyph glyph-name="t" unicode="t" horiz-adv-x="328" 
d="M202 467h99v-77h-99v-390h-91v390h-84v77h84v176h91v-176z" />
    <glyph glyph-name="u" unicode="u" horiz-adv-x="562" 
d="M395 215v252h91v-467h-91v70q-20 -39 -61 -59.5t-84 -20.5q-87 0 -134 54t-46 153v270h91v-264q0 -58 27 -91t75 -33q56 0 94 33t38 103z" />
    <glyph glyph-name="v" unicode="v" horiz-adv-x="510" 
d="M17 467h96l142 -351l141 351h97l-195 -467h1h-88z" />
    <glyph glyph-name="w" unicode="w" horiz-adv-x="790" 
d="M596 0h-75l-127 343l-123 -343h-74l-178 467h97l117 -327l117 327h88l117 -327l117 327h97z" />
    <glyph glyph-name="x" unicode="x" horiz-adv-x="500" 
d="M45 467h109l96 -137l97 137h109l-153 -211l185 -256h-108l-130 181l-131 -181h-107l185 256z" />
    <glyph glyph-name="y" unicode="y" horiz-adv-x="509" 
d="M202 -227h-95l98 241l-187 453h97l140 -338l140 338h97z" />
    <glyph glyph-name="z" unicode="z" horiz-adv-x="502" 
d="M453 467v-75l-283 -305h283v-87h-411v75l278 305h-262v87h395z" />
    <glyph glyph-name="braceleft" unicode="{" horiz-adv-x="400" 
d="M186 143v-174q0 -49 32 -83t76 -34h67v-79h-64q-83 0 -140 54t-57 142v174q0 20 -18.5 35.5t-42.5 15.5v81q24 0 42.5 15.5t18.5 35.5v176q-1 88 56 141.5t141 53.5h64v-79h-67q-45 0 -76.5 -34t-31.5 -82v-176q0 -28 -13 -54t-36 -38q21 -12 35 -38.5t14 -52.5z" />
    <glyph glyph-name="bar" unicode="|" horiz-adv-x="230" 
d="M146 795v-914h-62v914h62z" />
    <glyph glyph-name="braceright" unicode="}" horiz-adv-x="400" 
d="M214 -31v174q0 26 14 52.5t35 38.5q-23 12 -36 38t-13 54v176q0 48 -31.5 82t-76.5 34h-67v79h64q84 0 141 -53.5t56 -141.5v-176q0 -20 18.5 -35.5t42.5 -15.5v-81q-24 0 -42.5 -15.5t-18.5 -35.5v-174q0 -88 -57 -142t-140 -54h-64v79h67q44 0 76 34t32 83z" />
    <glyph glyph-name="exclamdown" unicode="&#xa1;" horiz-adv-x="241" 
d="M156 282l9 -509h-90l10 509h71zM54 415q0 27 19 44.5t46 17.5t46.5 -17.5t19.5 -44.5t-19.5 -45t-46.5 -18t-46 18t-19 45z" />
    <glyph glyph-name="cent" unicode="&#xa2;" horiz-adv-x="531" 
d="M251 -117v111q-87 15 -144 80t-57 161q0 95 57 159t144 79v106h62v-103q99 -5 164 -74l-69 -58q-44 44 -111 44q-65 0 -111 -42.5t-46 -110.5q0 -69 46 -113t111 -44q67 0 111 46l70 -58q-63 -69 -165 -75v-108h-62z" />
    <glyph glyph-name="sterling" unicode="&#xa3;" horiz-adv-x="632" 
d="M140 348v154q0 86 60.5 140.5t144.5 54.5q83 0 140 -57.5t57 -151.5h-90q0 43 -20 73.5t-52 39.5q-24 7 -45 4q-42 -2 -74 -31t-32 -72v-154h153v-61h-153v-197h244q17 0 17 22v57h90v-49q0 -53 -24.5 -86.5t-71.5 -33.5h-436v90h92v197h-76v61h76z" />
    <glyph glyph-name="currency" unicode="&#xa4;" horiz-adv-x="610" 
d="M195 339q0 -46 32 -78t78 -32t78.5 32t32.5 78t-32.5 78.5t-78.5 32.5t-78 -32.5t-32 -78.5zM197 177l-70 -71l-55 55l70 71q-32 47 -32 107q0 59 33 108l-71 71l55 55l71 -71q47 33 107 33q59 0 108 -33l70 71l55 -55l-70 -71q33 -51 33 -108q0 -60 -33 -107l70 -71
l-55 -55l-70 71q-49 -33 -108 -33t-108 33z" />
    <glyph glyph-name="yen" unicode="&#xa5;" horiz-adv-x="687" 
d="M390 253v-78h183v-64h-183v-111h-96v111h-181v64h181v78h-181v64h181l-261 372h111l198 -279l200 279h112l-264 -372h183v-64h-183z" />
    <glyph glyph-name="brokenbar" unicode="&#xa6;" horiz-adv-x="234" 
d="M86 405v390h62v-390h-62zM148 269v-388h-62v388h62z" />
    <glyph glyph-name="section" unicode="&#xa7;" horiz-adv-x="516" 
d="M151 491v-160q0 -49 32 -78.5t79 -29.5q30 0 56 11v-89q-30 -8 -56 -8q-83 0 -140 53.5t-57 140.5v160q0 87 57 141t140 54q64 0 115.5 -36.5t73.5 -99.5l-82 -24q-15 35 -43.5 54.5t-63.5 19.5q-46 0 -78.5 -30t-32.5 -79zM365 78v160q0 49 -32 78.5t-79 29.5
q-29 0 -54 -11v89q27 8 54 8q83 0 140 -53.5t57 -140.5v-160q0 -87 -57 -141t-140 -54q-64 0 -115.5 36.5t-73.5 99.5l82 24q15 -35 43.5 -54.5t63.5 -19.5q46 0 78.5 30t32.5 79z" />
    <glyph glyph-name="dieresis" unicode="&#xa8;" horiz-adv-x="533" 
d="M120 630q0 25 18 42t44 17q25 0 43 -17t18 -42t-18 -42t-43 -17q-26 0 -44 17t-18 42zM289 630q0 25 18 42t44 17t44 -17t18 -42t-18 -42t-44 -17t-44 17t-18 42z" />
    <glyph glyph-name="copyright" unicode="&#xa9;" horiz-adv-x="809" 
d="M545 222l-45 50q-48 -48 -93 -48q-47 0 -79.5 33.5t-32.5 80.5t32.5 80t79.5 33q45 0 91 -46l46 47q-63 66 -137 66q-76 0 -128 -52.5t-52 -127.5t52.5 -128t127.5 -53q76 0 138 65zM55 343q0 147 101.5 250.5t247.5 103.5t248 -103.5t102 -250.5t-102 -250t-248 -103
t-247.5 103t-101.5 250zM116 343q0 -121 84 -206t204 -85t204 85t84 206t-84 206.5t-204 85.5t-204 -85.5t-84 -206.5z" />
    <glyph glyph-name="ordfeminine" unicode="&#xaa;" horiz-adv-x="505" 
d="M354 325v50q-15 -27 -47 -42t-67 -15q-69 0 -117.5 47.5t-48.5 123.5t48 123t118 47q35 0 67 -14.5t47 -41.5v49h63v-327h-63zM354 490q0 50 -33 78.5t-76 28.5q-45 0 -75.5 -29.5t-30.5 -77.5t30.5 -79t75.5 -31q46 0 77.5 29.5t31.5 80.5zM98 215v50h315v-50h-315z" />
    <glyph glyph-name="guillemotleft" unicode="&#xab;" horiz-adv-x="489" 
d="M46 233l138 207h79l-138 -207l138 -207h-79zM222 233l138 207h79l-138 -207l138 -207h-79z" />
    <glyph glyph-name="logicalnot" unicode="&#xac;" horiz-adv-x="641" 
d="M563 359v-241h-87v154h-402v87h489z" />
    <glyph glyph-name="registered" unicode="&#xae;" horiz-adv-x="809" 
d="M548 165l-90 127q38 10 57.5 40.5t19.5 69.5q0 47 -30 81.5t-84 34.5h-137v-353h69v122h23l88 -122h84zM353 450h68q21 0 33.5 -14t12.5 -34q0 -19 -13 -33t-35 -14h-66v95zM55 343q0 147 101.5 250.5t247.5 103.5t248 -103.5t102 -250.5t-102 -250t-248 -103t-247.5 103
t-101.5 250zM116 343q0 -121 84 -206t204 -85t204 85t84 206t-84 206.5t-204 85.5t-204 -85.5t-84 -206.5z" />
    <glyph glyph-name="macron" unicode="&#xaf;" horiz-adv-x="492" 
d="M120 660h252v-80h-252v80z" />
    <glyph glyph-name="degree" unicode="&#xb0;" horiz-adv-x="370" 
d="M54 566q0 54 38.5 92.5t92.5 38.5t92.5 -38.5t38.5 -92.5t-38.5 -92.5t-92.5 -38.5t-92.5 38.5t-38.5 92.5zM123 566q0 -26 18.5 -44t43.5 -18t43.5 18t18.5 44t-18.5 44t-43.5 18t-43.5 -18t-18.5 -44z" />
    <glyph glyph-name="plusminus" unicode="&#xb1;" horiz-adv-x="542" 
d="M227 364v143h87v-143h159v-87h-159v-145h-87v145h-158v87h158zM473 0h-404v82h404v-82z" />
    <glyph glyph-name="twosuperior" unicode="&#xb2;" horiz-adv-x="320" 
d="M37 458l158 191q27 34 27 61t-19 44t-47 17q-26 0 -46.5 -18t-24.5 -47l-53 14q7 49 42 78.5t82 29.5q53 0 88.5 -33t35.5 -85q0 -54 -43 -102l-101 -119h145v-59h-244v28z" />
    <glyph glyph-name="threesuperior" unicode="&#xb3;" horiz-adv-x="320" 
d="M87 738l-40 32q17 28 47 43.5t66 13.5q48 -2 79 -34t29 -74q0 -12 -3 -24q-11 -36 -43 -54q29 -11 47 -42t15 -63q-4 -50 -46.5 -82.5t-96.5 -28.5q-38 3 -69.5 25.5t-47.5 56.5l48 26q9 -21 29.5 -37t43.5 -17h-1q33 -2 58.5 16.5t26.5 47.5q1 28 -21.5 49t-53.5 21h-45
v52h45q20 0 35 13t19 32q4 25 -7 40q-13 21 -45 23q-43 4 -69 -35z" />
    <glyph glyph-name="acute" unicode="&#xb4;" horiz-adv-x="512" 
d="M335 708l-119 -154h-87l97 154h109z" />
    <glyph glyph-name="mu" unicode="&#xb5;" horiz-adv-x="555" 
d="M83 -153v620h91v-270q0 -55 24 -86t68 -31q54 0 93 33t39 100v254h91v-467h-91v57q-20 -32 -57.5 -49t-74.5 -17q-63 0 -92 30v-174h-91z" />
    <glyph glyph-name="paragraph" unicode="&#xb6;" horiz-adv-x="651" 
d="M325 689v-745h-83v311q-86 5 -146.5 68t-60.5 149q0 90 63 153.5t154 63.5h73zM383 689h93q56 0 96.5 -40.5t40.5 -96.5v-85h-82v85q0 21 -12.5 37t-32.5 16h-20v-654q0 -52 -41 -93t-96 -44h-88v76h88q21 0 37.5 14t16.5 32v753z" />
    <glyph glyph-name="periodcentered" unicode="&#xb7;" horiz-adv-x="269" 
d="M69 251q0 27 19 45t46 18t46.5 -18t19.5 -45t-19.5 -44.5t-46.5 -17.5t-46 17.5t-19 44.5z" />
    <glyph glyph-name="cedilla" unicode="&#xb8;" horiz-adv-x="522" 
d="M227 -117q15 -33 50 -23q15 7 20.5 22t-0.5 31l-43 120h49l51 -95q8 -19 8 -42q0 -30 -16.5 -54.5t-46.5 -37.5q-18 -8 -39 -8q-29 0 -53 17t-37 47q-10 23 -10 49l64 -4q-1 -14 3 -22z" />
    <glyph glyph-name="onesuperior" unicode="&#xb9;" horiz-adv-x="208" 
d="M94 430v305l-68 -35v57l128 70v-397h-60z" />
    <glyph glyph-name="ordmasculine" unicode="&#xba;" horiz-adv-x="497" 
d="M248 318q-72 0 -121.5 48t-49.5 124q0 75 49.5 122t121.5 47t122 -47t50 -122q0 -76 -50 -124t-122 -48zM248 380q45 0 76.5 30.5t31.5 79.5q0 48 -31.5 77.5t-76.5 29.5t-76.5 -29.5t-31.5 -77.5q0 -49 31.5 -79.5t76.5 -30.5zM85 215v50h331v-50h-331z" />
    <glyph glyph-name="guillemotright" unicode="&#xbb;" horiz-adv-x="489" 
d="M443 233l-138 -207h-79l138 207l-138 207h79zM267 233l-138 -207h-79l138 207l-138 207h79z" />
    <glyph glyph-name="onequarter" unicode="&#xbc;" horiz-adv-x="733" 
d="M163 270h-53v324l-64 -22v51l117 42v-395zM582 295l-113 -164h113v164zM692 80h-57v-80h-53v80h-204l217 312h40v-261h57v-51zM596 670l-450 -680h-68l451 680h67z" />
    <glyph glyph-name="onehalf" unicode="&#xbd;" horiz-adv-x="771" 
d="M164 270h-53v324l-64 -22v51l117 42v-395zM478 0v24l159 193q29 36 29 64t-21.5 45t-51.5 17q-28 0 -47.5 -16.5t-23.5 -45.5l-49 13q7 47 41.5 75t81.5 28q52 0 87.5 -32.5t35.5 -83.5q0 -52 -43 -102l-106 -125h150v-54h-242zM594 670l-450 -680h-68l451 680h67z" />
    <glyph glyph-name="threequarters" unicode="&#xbe;" horiz-adv-x="812" 
d="M548 131l113 164v-164h-113zM714 80h57v51h-57v261h-40l-217 -312h204v-80h53v80zM104 578l-20 16.5t-20 15.5q16 28 46.5 43.5t66.5 13.5q47 -3 78.5 -34.5t29.5 -73.5q0 -23 -12.5 -44.5t-33.5 -33.5q29 -11 47 -42t15 -63q-4 -50 -46.5 -82.5t-97.5 -28.5
q-38 3 -69.5 25.5t-46.5 56.5l47 25q9 -21 30 -36.5t44 -17.5h-1q33 -2 58.5 17t26.5 48q1 28 -22 49t-53 21h-45v52h45q21 0 35.5 12.5t18.5 32.5q4 25 -11 42.5t-42 21.5q-42 3 -68 -36zM234 -10l450 680h-67l-451 -680h68z" />
    <glyph glyph-name="questiondown" unicode="&#xbf;" horiz-adv-x="472" 
d="M349 -24h86q0 -94 -57 -151.5t-140 -57.5q-84 0 -144.5 54t-60.5 141q0 70 41 120t103 69q36 11 53.5 26t17.5 47l2 59h88v-59q0 -68 -34.5 -103.5t-99.5 -55.5q-33 -9 -57.5 -39t-24.5 -64q0 -47 35 -76.5t81 -29.5q45 0 78 33t33 87zM359 415q0 -27 -19.5 -45
t-46.5 -18t-46 18t-19 45t19 44.5t46 17.5t46.5 -17.5t19.5 -44.5z" />
    <glyph glyph-name="Agrave" unicode="&#xc0;" horiz-adv-x="645" 
d="M209 259h228l-114 306zM469 175h-292l-67 -175h-99l262 689h100l261 -689h-98zM285 776l-119 154h109l97 -154h-87z" />
    <glyph glyph-name="Aacute" unicode="&#xc1;" horiz-adv-x="645" 
d="M437 259h-228l114 306zM177 175h292l67 -175h98l-261 689h-100l-262 -689h99zM482 930l-119 -154h-87l97 154h109z" />
    <glyph glyph-name="Acircumflex" unicode="&#xc2;" horiz-adv-x="645" 
d="M209 259h228l-114 306zM469 175h-292l-67 -175h-99l262 689h100l261 -689h-98zM397 776l-75 87l-74 -87h-82l110 154h93l110 -154h-82z" />
    <glyph glyph-name="Atilde" unicode="&#xc3;" horiz-adv-x="645" 
d="M209 259h228l-114 306zM469 175h-292l-67 -175h-99l262 689h100l261 -689h-98zM277 832q-9 0 -17.5 -11t-9.5 -33h-61q3 61 28.5 89t59.5 28q25 0 58 -24q21 -17 31 -17t18.5 9.5t9.5 31.5h61q-3 -60 -29 -87t-60 -27q-25 0 -57 25q-24 16 -32 16z" />
    <glyph glyph-name="Adieresis" unicode="&#xc4;" horiz-adv-x="645" 
d="M437 259h-228l114 306zM177 175h292l67 -175h98l-261 689h-100l-262 -689h99zM176 852q0 25 18 42t44 17q25 0 43 -17t18 -42t-18 -42t-43 -17q-26 0 -44 17t-18 42zM345 852q0 25 18 42t44 17t44 -17t18 -42t-18 -42t-44 -17t-44 17t-18 42z" />
    <glyph glyph-name="Aring" unicode="&#xc5;" horiz-adv-x="645" 
d="M437 259h-228l114 306zM177 175h292l67 -175h98l-261 689h-100l-262 -689h99zM217 867q0 45 30 75.5t74 30.5q45 0 76 -30.5t31 -75.5q0 -44 -31 -74t-76 -30q-43 0 -73.5 30.5t-30.5 73.5zM270 867q0 -21 15 -36t36 -15q22 0 38 15t16 36q0 22 -15.5 37.5t-38.5 15.5
q-21 0 -36 -15.5t-15 -37.5z" />
    <glyph glyph-name="AE" unicode="&#xc6;" horiz-adv-x="934" 
d="M220 173l-111 -173h-109l435 689h435v-92h-313v-213h274v-92h-274v-200h324v-92h-416v173h-245zM275 262h190v298z" />
    <glyph glyph-name="Ccedilla" unicode="&#xc7;" horiz-adv-x="684" 
d="M318 -117q15 -33 50 -23q15 7 20.5 22t-0.5 31l-29 79q-132 14 -220.5 114.5t-88.5 236.5q0 147 101.5 250.5t247.5 103.5q78 0 145 -31t114 -86l-70 -58q-78 85 -189 85q-108 0 -182 -77t-74 -187t74 -186.5t182 -76.5q116 0 191 88l70 -59q-93 -110 -243 -118l28 -53
q8 -19 8 -42q0 -30 -16.5 -54.5t-46.5 -37.5q-18 -8 -39 -8q-29 0 -53 17t-37 47q-10 23 -10 49l64 -4q-1 -14 3 -22z" />
    <glyph glyph-name="Egrave" unicode="&#xc8;" horiz-adv-x="565" 
d="M94 689h408v-87h-315v-220h275v-87h-275v-208h325v-87h-418v689zM267 776l-119 154h109l97 -154h-87z" />
    <glyph glyph-name="Eacute" unicode="&#xc9;" horiz-adv-x="565" 
d="M502 689h-408v-689h418v87h-325v208h275v87h-275v220h315v87zM421 930l-119 -154h-87l97 154h109z" />
    <glyph glyph-name="Ecircumflex" unicode="&#xca;" horiz-adv-x="565" 
d="M94 689h408v-87h-315v-220h275v-87h-275v-208h325v-87h-418v689zM357 776l-75 87l-74 -87h-82l110 154h93l110 -154h-82z" />
    <glyph glyph-name="Edieresis" unicode="&#xcb;" horiz-adv-x="565" 
d="M502 689h-408v-689h418v87h-325v208h275v87h-275v220h315v87zM140 852q0 25 18 42t44 17q25 0 43 -17t18 -42t-18 -42t-43 -17q-26 0 -44 17t-18 42zM309 852q0 25 18 42t44 17t44 -17t18 -42t-18 -42t-44 -17t-44 17t-18 42z" />
    <glyph glyph-name="Igrave" unicode="&#xcc;" horiz-adv-x="281" 
d="M94 689h93v-689h-93v689zM100 776l-119 154h109l97 -154h-87z" />
    <glyph glyph-name="Iacute" unicode="&#xcd;" horiz-adv-x="281" 
d="M187 689h-93v-689h93v689zM299 930l-119 -154h-87l97 154h109z" />
    <glyph glyph-name="Icircumflex" unicode="&#xce;" horiz-adv-x="281" 
d="M94 689h93v-689h-93v689zM215 776l-75 87l-74 -87h-82l110 154h93l110 -154h-82z" />
    <glyph glyph-name="Idieresis" unicode="&#xcf;" horiz-adv-x="281" 
d="M187 689h-93v-689h93v689zM-6 852q0 25 18 42t44 17q25 0 43 -17t18 -42t-18 -42t-43 -17q-26 0 -44 17t-18 42zM163 852q0 25 18 42t44 17t44 -17t18 -42t-18 -42t-44 -17t-44 17t-18 42z" />
    <glyph glyph-name="Eth" unicode="&#xd0;" horiz-adv-x="724" 
d="M363 0h-263v311h-93v68h93v310h263q143 0 225 -97t82 -249q0 -151 -82 -247t-225 -96zM193 379h165v-68h-165v-219h170q103 0 158.5 69.5t55.5 181.5q0 113 -55.5 183.5t-158.5 70.5h-170v-218z" />
    <glyph glyph-name="Ntilde" unicode="&#xd1;" horiz-adv-x="684" 
d="M590 0h-89l-314 519v-519h-93v689h92l311 -515v515h93v-689zM297 832q-9 0 -17.5 -11t-9.5 -33h-61q3 61 28.5 89t59.5 28q25 0 58 -24q21 -17 31 -17t18.5 9.5t9.5 31.5h61q-3 -60 -29 -87t-60 -27q-25 0 -57 25q-24 16 -32 16z" />
    <glyph glyph-name="Ograve" unicode="&#xd2;" horiz-adv-x="796" 
d="M49 343q0 148 101 251t247 103q147 0 248.5 -103t101.5 -251q0 -147 -101.5 -250t-248.5 -103q-146 0 -247 103t-101 250zM142 343q0 -110 73.5 -186.5t181.5 -76.5t182 76.5t74 186.5t-74 187t-182 77q-107 0 -181 -77t-74 -187zM364 776l-119 154h109l97 -154h-87z" />
    <glyph glyph-name="Oacute" unicode="&#xd3;" horiz-adv-x="796" 
d="M49 343q0 -147 101 -250t247 -103q147 0 248.5 103t101.5 250q0 148 -101.5 251t-248.5 103q-146 0 -247 -103t-101 -251zM142 343q0 110 74 187t181 77q108 0 182 -77t74 -187t-74 -186.5t-182 -76.5t-181.5 76.5t-73.5 186.5zM539 930l-119 -154h-87l97 154h109z" />
    <glyph glyph-name="Ocircumflex" unicode="&#xd4;" horiz-adv-x="796" 
d="M49 343q0 148 101 251t247 103q147 0 248.5 -103t101.5 -251q0 -147 -101.5 -250t-248.5 -103q-146 0 -247 103t-101 250zM142 343q0 -110 73.5 -186.5t181.5 -76.5t182 76.5t74 186.5t-74 187t-182 77q-107 0 -181 -77t-74 -187zM472 776l-75 87l-74 -87h-82l110 154h93
l110 -154h-82z" />
    <glyph glyph-name="Otilde" unicode="&#xd5;" horiz-adv-x="796" 
d="M49 343q0 148 101 251t247 103q147 0 248.5 -103t101.5 -251q0 -147 -101.5 -250t-248.5 -103q-146 0 -247 103t-101 250zM142 343q0 -110 73.5 -186.5t181.5 -76.5t182 76.5t74 186.5t-74 187t-182 77q-107 0 -181 -77t-74 -187zM353 832q-9 0 -17.5 -11t-9.5 -33h-61
q3 61 28.5 89t59.5 28q25 0 58 -24q21 -17 31 -17t18.5 9.5t9.5 31.5h61q-3 -60 -29 -87t-60 -27q-25 0 -57 25q-24 16 -32 16z" />
    <glyph glyph-name="Odieresis" unicode="&#xd6;" horiz-adv-x="796" 
d="M49 343q0 -147 101 -250t247 -103q147 0 248.5 103t101.5 250q0 148 -101.5 251t-248.5 103q-146 0 -247 -103t-101 -251zM142 343q0 110 74 187t181 77q108 0 182 -77t74 -187t-74 -186.5t-182 -76.5t-181.5 76.5t-73.5 186.5zM251 852q0 25 18 42t44 17q25 0 43 -17
t18 -42t-18 -42t-43 -17q-26 0 -44 17t-18 42zM420 852q0 25 18 42t44 17t44 -17t18 -42t-18 -42t-44 -17t-44 17t-18 42z" />
    <glyph glyph-name="multiply" unicode="&#xd7;" horiz-adv-x="497" 
d="M188 273l-125 124l62 60l123 -123l126 125l60 -63l-124 -123l124 -124l-60 -63l-126 125l-123 -123l-62 60z" />
    <glyph glyph-name="Oslash" unicode="&#xd8;" horiz-adv-x="795" 
d="M178 66l-80 -82l-47 47l80 82q-83 99 -83 230q0 148 101 251t247 103q127 0 224 -81l79 81l47 -46l-80 -82q80 -99 80 -226q0 -147 -101.5 -250t-248.5 -103q-125 0 -218 76zM141 343q0 -93 54 -164l361 371q-70 57 -160 57q-107 0 -181 -77t-74 -187zM396 80
q108 0 182 76.5t74 186.5q0 89 -51 159l-359 -370q66 -52 154 -52z" />
    <glyph glyph-name="Ugrave" unicode="&#xd9;" horiz-adv-x="678" 
d="M339 80q66 0 112 44t46 113v452h94v-452q0 -110 -73.5 -178.5t-178.5 -68.5t-178.5 68.5t-73.5 178.5v452h94v-452q0 -69 46 -113t112 -44zM314 776l-119 154h109l97 -154h-87z" />
    <glyph glyph-name="Uacute" unicode="&#xda;" horiz-adv-x="678" 
d="M339 80q66 0 112 44t46 113v452h94v-452q0 -110 -73.5 -178.5t-178.5 -68.5t-178.5 68.5t-73.5 178.5v452h94v-452q0 -69 46 -113t112 -44zM473 930l-119 -154h-87l97 154h109z" />
    <glyph glyph-name="Ucircumflex" unicode="&#xdb;" horiz-adv-x="678" 
d="M339 80q66 0 112 44t46 113v452h94v-452q0 -110 -73.5 -178.5t-178.5 -68.5t-178.5 68.5t-73.5 178.5v452h94v-452q0 -69 46 -113t112 -44zM413 776l-75 87l-74 -87h-82l110 154h93l110 -154h-82z" />
    <glyph glyph-name="Udieresis" unicode="&#xdc;" horiz-adv-x="678" 
d="M339 80q66 0 112 44t46 113v452h94v-452q0 -110 -73.5 -178.5t-178.5 -68.5t-178.5 68.5t-73.5 178.5v452h94v-452q0 -69 46 -113t112 -44zM192 852q0 25 18 42t44 17q25 0 43 -17t18 -42t-18 -42t-43 -17q-26 0 -44 17t-18 42zM361 852q0 25 18 42t44 17t44 -17t18 -42
t-18 -42t-44 -17t-44 17t-18 42z" />
    <glyph glyph-name="Yacute" unicode="&#xdd;" horiz-adv-x="628" 
d="M362 0h-96v317l-261 372h111l198 -279l200 279h112l-264 -372v-317zM459 930l-119 -154h-87l97 154h109z" />
    <glyph glyph-name="Thorn" unicode="&#xde;" horiz-adv-x="572" 
d="M327 138h-140v-138h-93v689h93v-123h140q90 0 150.5 -58.5t60.5 -153.5q0 -96 -60.5 -156t-150.5 -60zM187 228h140q50 0 84.5 35.5t34.5 90.5q0 56 -36 88.5t-91 35.5l-132 1v-251z" />
    <glyph glyph-name="germandbls" unicode="&#xdf;" horiz-adv-x="566" 
d="M206 4v85q44 -16 83 -16q62 0 104.5 43.5t42.5 101.5q0 55 -43.5 99t-102.5 44h-37v74h35q39 0 67 27t28 64q0 36 -29 61t-71 27h-9q-48 0 -80 -33.5t-32 -90.5v-490h-86v490q0 97 55 152t143 55h10q76 0 130 -50t54 -121q0 -70 -63 -119q50 -24 83.5 -77.5t33.5 -111.5
q0 -96 -66.5 -162t-164.5 -66q-38 -2 -85 14z" />
    <glyph glyph-name="agrave" unicode="&#xe0;" horiz-adv-x="612" 
d="M446 0v72q-23 -39 -68 -60.5t-96 -21.5q-99 0 -168 68t-69 176q0 109 69 176t168 67q51 0 96.5 -21t67.5 -59v70h90v-467h-90zM445 235q0 71 -47 112t-108 41q-65 0 -108.5 -42.5t-43.5 -110.5t44 -112t108 -44q65 0 110 42t45 114zM286 554l-119 154h109l97 -154h-87z
" />
    <glyph glyph-name="aacute" unicode="&#xe1;" horiz-adv-x="612" 
d="M446 0v72q-23 -39 -68 -60.5t-96 -21.5q-99 0 -168 68t-69 176q0 109 69 176t168 67q51 0 96.5 -21t67.5 -59v70h90v-467h-90zM445 235q0 71 -47 112t-108 41q-65 0 -108.5 -42.5t-43.5 -110.5t44 -112t108 -44q65 0 110 42t45 114zM428 708l-119 -154h-87l97 154h109z
" />
    <glyph glyph-name="acircumflex" unicode="&#xe2;" horiz-adv-x="612" 
d="M446 0v72q-23 -39 -68 -60.5t-96 -21.5q-99 0 -168 68t-69 176q0 109 69 176t168 67q51 0 96.5 -21t67.5 -59v70h90v-467h-90zM445 235q0 71 -47 112t-108 41q-65 0 -108.5 -42.5t-43.5 -110.5t44 -112t108 -44q65 0 110 42t45 114zM363 554l-75 87l-74 -87h-82l110 154
h93l110 -154h-82z" />
    <glyph glyph-name="atilde" unicode="&#xe3;" horiz-adv-x="612" 
d="M446 0v72q-23 -39 -68 -60.5t-96 -21.5q-99 0 -168 68t-69 176q0 109 69 176t168 67q51 0 96.5 -21t67.5 -59v70h90v-467h-90zM445 235q0 71 -47 112t-108 41q-65 0 -108.5 -42.5t-43.5 -110.5t44 -112t108 -44q65 0 110 42t45 114zM260 610q-9 0 -17.5 -11t-9.5 -33h-61
q3 61 28.5 89t59.5 28q25 0 58 -24q21 -17 31 -17t18.5 9.5t9.5 31.5h61q-3 -60 -29 -87t-60 -27q-25 0 -57 25q-24 16 -32 16z" />
    <glyph glyph-name="adieresis" unicode="&#xe4;" horiz-adv-x="612" 
d="M446 0v72q-23 -39 -68 -60.5t-96 -21.5q-99 0 -168 68t-69 176q0 109 69 176t168 67q51 0 96.5 -21t67.5 -59v70h90v-467h-90zM445 235q0 71 -47 112t-108 41q-65 0 -108.5 -42.5t-43.5 -110.5t44 -112t108 -44q65 0 110 42t45 114zM144 630q0 25 18 42t44 17
q25 0 43 -17t18 -42t-18 -42t-43 -17q-26 0 -44 17t-18 42zM313 630q0 25 18 42t44 17t44 -17t18 -42t-18 -42t-44 -17t-44 17t-18 42z" />
    <glyph glyph-name="aring" unicode="&#xe5;" horiz-adv-x="612" 
d="M446 0v72q-23 -39 -68 -60.5t-96 -21.5q-99 0 -168 68t-69 176q0 109 69 176t168 67q51 0 96.5 -21t67.5 -59v70h90v-467h-90zM445 235q0 71 -47 112t-108 41q-65 0 -108.5 -42.5t-43.5 -110.5t44 -112t108 -44q65 0 110 42t45 114zM185 645q0 45 30 75.5t74 30.5
q45 0 76 -30.5t31 -75.5q0 -44 -31 -74t-76 -30q-43 0 -73.5 30.5t-30.5 73.5zM238 645q0 -21 15 -36t36 -15q22 0 38 15t16 36q0 22 -15.5 37.5t-38.5 15.5q-21 0 -36 -15.5t-15 -37.5z" />
    <glyph glyph-name="ae" unicode="&#xe6;" horiz-adv-x="957" 
d="M536 467v-38q62 48 149 48q101 0 166.5 -66.5t65.5 -175.5q0 -26 -1 -36h-379q8 -58 49.5 -92.5t101.5 -34.5q43 0 79 19t55 53l40 -15.5l38 -14.5q-29 -60 -87 -92t-128 -32q-88 0 -149 49v-39h-90v72q-23 -39 -68 -60.5t-96 -21.5q-99 0 -168 68t-69 176q0 109 69 176
t168 67q51 0 96.5 -21t67.5 -59v70h90zM445 235q0 71 -47 112t-108 41q-65 0 -108.5 -42.5t-43.5 -110.5t44 -112t108 -44q65 0 110 42t45 114zM537 270h290q-8 58 -46.5 91.5t-95.5 33.5q-59 0 -99.5 -33.5t-48.5 -91.5z" />
    <glyph glyph-name="ccedilla" unicode="&#xe7;" horiz-adv-x="512" 
d="M316 -8l29 -54q8 -19 8 -42q0 -30 -16.5 -54.5t-46.5 -37.5q-18 -8 -39 -8q-29 0 -53 17t-37 47q-10 23 -10 49l64 -4q-1 -14 3 -22q15 -33 50 -23q15 7 20.5 22t-0.5 31l-29 79q-91 11 -152.5 77.5t-61.5 165.5q0 108 72 175t175 67q111 0 180 -75l-69 -58
q-44 44 -111 44q-65 0 -111 -42.5t-46 -110.5q0 -69 46 -113t111 -44q67 0 111 46l70 -58q-60 -66 -157 -74z" />
    <glyph glyph-name="egrave" unicode="&#xe8;" horiz-adv-x="556" 
d="M136 270h290q-8 58 -46.5 91.5t-95.5 33.5q-59 0 -99.5 -33.5t-48.5 -91.5zM516 235q0 -26 -1 -36h-379q8 -58 49.5 -92.5t101.5 -34.5q43 0 79 19t55 53l40 -15.5l38 -14.5q-29 -60 -87 -92t-128 -32q-102 0 -170.5 68t-68.5 177t68.5 175.5t170.5 66.5
q101 0 166.5 -66.5t65.5 -175.5zM247 554l-119 154h109l97 -154h-87z" />
    <glyph glyph-name="eacute" unicode="&#xe9;" horiz-adv-x="556" 
d="M136 270q8 58 48.5 91.5t99.5 33.5q57 0 95.5 -33.5t46.5 -91.5h-290zM516 235q0 109 -65.5 175.5t-166.5 66.5q-102 0 -170.5 -66.5t-68.5 -175.5t68.5 -177t170.5 -68q70 0 128 32t87 92l-38 14.5l-40 15.5q-19 -34 -55 -53t-79 -19q-60 0 -101.5 34.5t-49.5 92.5h379
q1 10 1 36zM423 708l-119 -154h-87l97 154h109z" />
    <glyph glyph-name="ecircumflex" unicode="&#xea;" horiz-adv-x="556" 
d="M136 270h290q-8 58 -46.5 91.5t-95.5 33.5q-59 0 -99.5 -33.5t-48.5 -91.5zM516 235q0 -26 -1 -36h-379q8 -58 49.5 -92.5t101.5 -34.5q43 0 79 19t55 53l40 -15.5l38 -14.5q-29 -60 -87 -92t-128 -32q-102 0 -170.5 68t-68.5 177t68.5 175.5t170.5 66.5
q101 0 166.5 -66.5t65.5 -175.5zM355 554l-75 87l-74 -87h-82l110 154h93l110 -154h-82z" />
    <glyph glyph-name="edieresis" unicode="&#xeb;" horiz-adv-x="556" 
d="M136 270q8 58 48.5 91.5t99.5 33.5q57 0 95.5 -33.5t46.5 -91.5h-290zM516 235q0 109 -65.5 175.5t-166.5 66.5q-102 0 -170.5 -66.5t-68.5 -175.5t68.5 -177t170.5 -68q70 0 128 32t87 92l-38 14.5l-40 15.5q-19 -34 -55 -53t-79 -19q-60 0 -101.5 34.5t-49.5 92.5h379
q1 10 1 36zM134 630q0 25 18 42t44 17q25 0 43 -17t18 -42t-18 -42t-43 -17q-26 0 -44 17t-18 42zM303 630q0 25 18 42t44 17t44 -17t18 -42t-18 -42t-44 -17t-44 17t-18 42z" />
    <glyph glyph-name="igrave" unicode="&#xec;" horiz-adv-x="241" 
d="M165 467v-467h-89v467h89zM77 554l-119 154h109l97 -154h-87z" />
    <glyph glyph-name="iacute" unicode="&#xed;" horiz-adv-x="241" 
d="M165 0v467h-89v-467h89zM281 708l-119 -154h-87l97 154h109z" />
    <glyph glyph-name="icircumflex" unicode="&#xee;" horiz-adv-x="241" 
d="M165 467v-467h-89v467h89zM200 554l-75 87l-74 -87h-82l110 154h93l110 -154h-82z" />
    <glyph glyph-name="idieresis" unicode="&#xef;" horiz-adv-x="241" 
d="M165 0v467h-89v-467h89zM-21 630q0 25 18 42t44 17q25 0 43 -17t18 -42t-18 -42t-43 -17q-26 0 -44 17t-18 42zM148 630q0 25 18 42t44 17t44 -17t18 -42t-18 -42t-44 -17t-44 17t-18 42z" />
    <glyph glyph-name="eth" unicode="&#xf0;" horiz-adv-x="578" 
d="M276 640l65 40l36 -42l-62 -42l171 -215q46 -63 46 -146q0 -108 -70.5 -176.5t-172.5 -68.5t-173 68.5t-71 176.5q0 107 70 174.5t166 67.5q20 0 36 -10l-74 83l-85 -53l-32 47l80 50l-75 95h105zM289 76q66 0 112 44.5t46 114.5t-46 113t-112 43q-67 0 -112.5 -43
t-45.5 -113t46 -114.5t112 -44.5z" />
    <glyph glyph-name="ntilde" unicode="&#xf1;" horiz-adv-x="563" 
d="M167 252v-252h-91v467h91v-70q20 39 61.5 59.5t84.5 20.5q87 0 133.5 -54t46.5 -153v-270h-91v264q0 58 -27.5 91t-75.5 33q-55 0 -93.5 -33.5t-38.5 -102.5zM237 610q-9 0 -17.5 -11t-9.5 -33h-61q3 61 28.5 89t59.5 28q25 0 58 -24q21 -17 31 -17t18.5 9.5t9.5 31.5h61
q-3 -60 -29 -87t-60 -27q-25 0 -57 25q-24 16 -32 16z" />
    <glyph glyph-name="ograve" unicode="&#xf2;" horiz-adv-x="579" 
d="M289 -10q-102 0 -173 68t-71 177q0 108 70.5 175t173.5 67t174 -67t71 -175t-71.5 -176.5t-173.5 -68.5zM289 78q65 0 109.5 43.5t44.5 113.5q0 69 -44.5 111t-109.5 42t-109.5 -42t-44.5 -111q0 -70 44.5 -113.5t109.5 -43.5zM253 554l-119 154h109l97 -154h-87z" />
    <glyph glyph-name="oacute" unicode="&#xf3;" horiz-adv-x="579" 
d="M289 -10q102 0 173.5 68.5t71.5 176.5t-71 175t-174 67t-173.5 -67t-70.5 -175q0 -109 71 -177t173 -68zM289 78q-65 0 -109.5 43.5t-44.5 113.5q0 69 44.5 111t109.5 42t109.5 -42t44.5 -111q0 -70 -44.5 -113.5t-109.5 -43.5zM436 708l-119 -154h-87l97 154h109z" />
    <glyph glyph-name="ocircumflex" unicode="&#xf4;" horiz-adv-x="579" 
d="M289 -10q-102 0 -173 68t-71 177q0 108 70.5 175t173.5 67t174 -67t71 -175t-71.5 -176.5t-173.5 -68.5zM289 78q65 0 109.5 43.5t44.5 113.5q0 69 -44.5 111t-109.5 42t-109.5 -42t-44.5 -111q0 -70 44.5 -113.5t109.5 -43.5zM364 554l-75 87l-74 -87h-82l110 154h93
l110 -154h-82z" />
    <glyph glyph-name="otilde" unicode="&#xf5;" horiz-adv-x="579" 
d="M289 -10q-102 0 -173 68t-71 177q0 108 70.5 175t173.5 67t174 -67t71 -175t-71.5 -176.5t-173.5 -68.5zM289 78q65 0 109.5 43.5t44.5 113.5q0 69 -44.5 111t-109.5 42t-109.5 -42t-44.5 -111q0 -70 44.5 -113.5t109.5 -43.5zM244 610q-9 0 -17.5 -11t-9.5 -33h-61
q3 61 28.5 89t59.5 28q25 0 58 -24q21 -17 31 -17t18.5 9.5t9.5 31.5h61q-3 -60 -29 -87t-60 -27q-25 0 -57 25q-24 16 -32 16z" />
    <glyph glyph-name="odieresis" unicode="&#xf6;" horiz-adv-x="579" 
d="M289 -10q102 0 173.5 68.5t71.5 176.5t-71 175t-174 67t-173.5 -67t-70.5 -175q0 -109 71 -177t173 -68zM289 78q-65 0 -109.5 43.5t-44.5 113.5q0 69 44.5 111t109.5 42t109.5 -42t44.5 -111q0 -70 -44.5 -113.5t-109.5 -43.5zM143 630q0 25 18 42t44 17q25 0 43 -17
t18 -42t-18 -42t-43 -17q-26 0 -44 17t-18 42zM312 630q0 25 18 42t44 17t44 -17t18 -42t-18 -42t-44 -17t-44 17t-18 42z" />
    <glyph glyph-name="divide" unicode="&#xf7;" horiz-adv-x="537" 
d="M203 90q0 27 19 45t46 18t46.5 -18t19.5 -45t-19.5 -44.5t-46.5 -17.5t-46 17.5t-19 44.5zM203 424q0 27 19 44.5t46 17.5t46.5 -17.5t19.5 -44.5t-19.5 -45t-46.5 -18t-46 18t-19 45zM63 214h411v83h-411v-83z" />
    <glyph glyph-name="oslash" unicode="&#xf8;" horiz-adv-x="577" 
d="M144 33l-57 -58l-47 47l56 57q-52 65 -52 156q0 108 70.5 175t173.5 67q84 0 150 -47l50 51l47 -46l-50 -51q48 -64 48 -149q0 -108 -71.5 -176.5t-173.5 -68.5q-83 0 -144 43zM288 388q-65 0 -109.5 -42t-44.5 -111q0 -53 25 -90l215 219q-38 24 -86 24zM288 78
q65 0 109.5 43.5t44.5 113.5q0 43 -22 82l-212 -218q34 -21 80 -21z" />
    <glyph glyph-name="ugrave" unicode="&#xf9;" horiz-adv-x="562" 
d="M259 554l-119 154h109l97 -154h-87zM395 215v252h91v-467h-91v70q-20 -39 -61 -59.5t-84 -20.5q-87 0 -134 54t-46 153v270h91v-264q0 -58 27 -91t75 -33q56 0 94 33t38 103z" />
    <glyph glyph-name="uacute" unicode="&#xfa;" horiz-adv-x="562" 
d="M434 708l-119 -154h-87l97 154h109zM395 215v252h91v-467h-91v70q-20 -39 -61 -59.5t-84 -20.5q-87 0 -134 54t-46 153v270h91v-264q0 -58 27 -91t75 -33q56 0 94 33t38 103z" />
    <glyph glyph-name="ucircumflex" unicode="&#xfb;" horiz-adv-x="562" 
d="M346 554l-75 87l-74 -87h-82l110 154h93l110 -154h-82zM395 215v252h91v-467h-91v70q-20 -39 -61 -59.5t-84 -20.5q-87 0 -134 54t-46 153v270h91v-264q0 -58 27 -91t75 -33q56 0 94 33t38 103z" />
    <glyph glyph-name="udieresis" unicode="&#xfc;" horiz-adv-x="562" 
d="M141 630q0 25 18 42t44 17q25 0 43 -17t18 -42t-18 -42t-43 -17q-26 0 -44 17t-18 42zM310 630q0 25 18 42t44 17t44 -17t18 -42t-18 -42t-44 -17t-44 17t-18 42zM395 215v252h91v-467h-91v70q-20 -39 -61 -59.5t-84 -20.5q-87 0 -134 54t-46 153v270h91v-264
q0 -58 27 -91t75 -33q56 0 94 33t38 103z" />
    <glyph glyph-name="yacute" unicode="&#xfd;" horiz-adv-x="509" 
d="M107 -227h95l290 694h-97l-140 -338l-140 338h-97l187 -453zM384 708l-119 -154h-87l97 154h109z" />
    <glyph glyph-name="thorn" unicode="&#xfe;" horiz-adv-x="602" 
d="M76 -213v933h91v-311q24 32 65 49.5t87 17.5q102 0 170 -66.5t68 -175.5q0 -108 -68 -176t-170 -68q-45 0 -86.5 18t-65.5 51v-272h-91zM467 234q0 68 -42 109.5t-106 41.5q-60 0 -106 -40.5t-46 -110.5q0 -72 44 -113t108 -41q63 0 105.5 43.5t42.5 110.5z" />
    <glyph glyph-name="ydieresis" unicode="&#xff;" horiz-adv-x="509" 
d="M107 -227h95l290 694h-97l-140 -338l-140 338h-97l187 -453zM111 630q0 25 18 42t44 17q25 0 43 -17t18 -42t-18 -42t-43 -17q-26 0 -44 17t-18 42zM280 630q0 25 18 42t44 17t44 -17t18 -42t-18 -42t-44 -17t-44 17t-18 42z" />
    <glyph glyph-name="Amacron" unicode="&#x100;" horiz-adv-x="645" 
d="M209 259h228l-114 306zM469 175h-292l-67 -175h-99l262 689h100l261 -689h-98zM196 882h252v-80h-252v80z" />
    <glyph glyph-name="amacron" unicode="&#x101;" horiz-adv-x="612" 
d="M446 0v72q-23 -39 -68 -60.5t-96 -21.5q-99 0 -168 68t-69 176q0 109 69 176t168 67q51 0 96.5 -21t67.5 -59v70h90v-467h-90zM445 235q0 71 -47 112t-108 41q-65 0 -108.5 -42.5t-43.5 -110.5t44 -112t108 -44q65 0 110 42t45 114zM179 660h252v-80h-252v80z" />
    <glyph glyph-name="Abreve" unicode="&#x102;" horiz-adv-x="645" 
d="M437 259h-228l114 306zM177 175h292l67 -175h98l-261 689h-100l-262 -689h99zM192 905h74q0 -26 15 -42.5t41 -16.5q25 0 40 18t15 41h76q0 -59 -35.5 -93.5t-95.5 -34.5q-65 0 -97.5 37t-32.5 91z" />
    <glyph glyph-name="abreve" unicode="&#x103;" horiz-adv-x="612" 
d="M446 0v72q-23 -39 -68 -60.5t-96 -21.5q-99 0 -168 68t-69 176q0 109 69 176t168 67q51 0 96.5 -21t67.5 -59v70h90v-467h-90zM445 235q0 71 -47 112t-108 41q-65 0 -108.5 -42.5t-43.5 -110.5t44 -112t108 -44q65 0 110 42t45 114zM175 683h74q0 -26 15 -42.5t41 -16.5
q25 0 40 18t15 41h76q0 -59 -35.5 -93.5t-95.5 -34.5q-65 0 -97.5 37t-32.5 91z" />
    <glyph glyph-name="Aogonek" unicode="&#x104;" horiz-adv-x="645" 
d="M209 259h228l-114 306zM535 1l-66 174h-292l-67 -175h-99l262 689h100l261 -689h-44l-31 -87q-6 -16 -0.5 -31t20.5 -22q35 -10 50 23l3 22l64 4q0 -26 -10 -49q-13 -30 -37 -47t-53 -17q-21 0 -39 8q-30 13 -46.5 37.5t-16.5 54.5q0 23 8 42z" />
    <glyph glyph-name="aogonek" unicode="&#x105;" horiz-adv-x="612" 
d="M539 -117l3 22l64 4q0 -26 -10 -49q-13 -30 -37 -47t-53 -17q-21 0 -39 8q-30 13 -46.5 37.5t-16.5 54.5q0 23 8 42l34 63v71q-23 -39 -68 -60.5t-96 -21.5q-99 0 -168 68t-69 176q0 109 69 176t168 67q51 0 96.5 -21t67.5 -59v70h90v-467h-36l-31 -87q-6 -16 -0.5 -31
t20.5 -22q35 -10 50 23zM445 235q0 71 -47 112t-108 41q-65 0 -108.5 -42.5t-43.5 -110.5t44 -112t108 -44q65 0 110 42t45 114z" />
    <glyph glyph-name="Cacute" unicode="&#x106;" horiz-adv-x="683" 
d="M659 109l-70 59q-75 -88 -191 -88q-108 0 -182 76.5t-74 186.5t74 187t182 77q111 0 189 -85l70 58q-47 55 -114 86t-145 31q-146 0 -247.5 -103.5t-101.5 -250.5t101.5 -250t247.5 -103q79 0 146.5 31.5t114.5 87.5zM535 930l-119 -154h-87l97 154h109z" />
    <glyph glyph-name="cacute" unicode="&#x107;" horiz-adv-x="512" 
d="M45 235q0 108 72 175t175 67q111 0 180 -75l-69 -58q-44 44 -111 44q-65 0 -111 -42.5t-46 -110.5q0 -69 46 -113t111 -44q67 0 111 46l70 -58q-70 -76 -181 -76q-103 0 -175 68.5t-72 176.5zM420 708l-119 -154h-87l97 154h109z" />
    <glyph glyph-name="Ccircumflex" unicode="&#x108;" horiz-adv-x="683" 
d="M589 168l70 -59q-47 -56 -114.5 -87.5t-146.5 -31.5q-146 0 -247.5 103t-101.5 250t101.5 250.5t247.5 103.5q78 0 145 -31t114 -86l-70 -58q-78 85 -189 85q-108 0 -182 -77t-74 -187t74 -186.5t182 -76.5q116 0 191 88zM471 776l-75 87l-74 -87h-82l110 154h93
l110 -154h-82z" />
    <glyph glyph-name="ccircumflex" unicode="&#x109;" horiz-adv-x="512" 
d="M45 235q0 108 72 175t175 67q111 0 180 -75l-69 -58q-44 44 -111 44q-65 0 -111 -42.5t-46 -110.5q0 -69 46 -113t111 -44q67 0 111 46l70 -58q-70 -76 -181 -76q-103 0 -175 68.5t-72 176.5zM363 554l-75 87l-74 -87h-82l110 154h93l110 -154h-82z" />
    <glyph glyph-name="Cdotaccent" unicode="&#x10a;" horiz-adv-x="683" 
d="M659 109l-70 59q-75 -88 -191 -88q-108 0 -182 76.5t-74 186.5t74 187t182 77q111 0 189 -85l70 58q-47 55 -114 86t-145 31q-146 0 -247.5 -103.5t-101.5 -250.5t101.5 -250t247.5 -103q79 0 146.5 31.5t114.5 87.5zM318 861q0 25 18.5 42t44.5 17t44.5 -17t18.5 -42
t-18.5 -42t-44.5 -17t-44.5 17t-18.5 42z" />
    <glyph glyph-name="cdotaccent" unicode="&#x10b;" horiz-adv-x="512" 
d="M45 235q0 108 72 175t175 67q111 0 180 -75l-69 -58q-44 44 -111 44q-65 0 -111 -42.5t-46 -110.5q0 -69 46 -113t111 -44q67 0 111 46l70 -58q-70 -76 -181 -76q-103 0 -175 68.5t-72 176.5zM225 639q0 25 18.5 42t44.5 17t44.5 -17t18.5 -42t-18.5 -42t-44.5 -17
t-44.5 17t-18.5 42z" />
    <glyph glyph-name="Ccaron" unicode="&#x10c;" horiz-adv-x="683" 
d="M659 109l-70 59q-75 -88 -191 -88q-108 0 -182 76.5t-74 186.5t74 187t182 77q111 0 189 -85l70 58q-47 55 -114 86t-145 31q-146 0 -247.5 -103.5t-101.5 -250.5t101.5 -250t247.5 -103q79 0 146.5 31.5t114.5 87.5zM382 843l75 87h82l-110 -154h-93l-110 154h82z" />
    <glyph glyph-name="ccaron" unicode="&#x10d;" horiz-adv-x="512" 
d="M45 235q0 108 72 175t175 67q111 0 180 -75l-69 -58q-44 44 -111 44q-65 0 -111 -42.5t-46 -110.5q0 -69 46 -113t111 -44q67 0 111 46l70 -58q-70 -76 -181 -76q-103 0 -175 68.5t-72 176.5zM279 621l75 87h82l-110 -154h-93l-110 154h82z" />
    <glyph glyph-name="Dcaron" unicode="&#x10e;" horiz-adv-x="724" 
d="M94 0h267q144 0 227 96.5t83 246.5q0 151 -83.5 248.5t-226.5 97.5h-267v-689zM361 87h-174v515h174q104 0 160.5 -72.5t56.5 -186.5q0 -113 -56.5 -184.5t-160.5 -71.5zM374 843l75 87h82l-110 -154h-93l-110 154h82z" />
    <glyph glyph-name="dcaron" unicode="&#x10f;" horiz-adv-x="602" 
d="M526 705v-705h-88v61q-25 -33 -67 -51.5t-87 -18.5q-102 0 -170.5 67.5t-68.5 176.5t68.5 175t170.5 66t152 -66v295h90zM135 235q0 -67 42.5 -110.5t106.5 -43.5t108 41.5t44 112.5q0 70 -46.5 110.5t-105.5 40.5q-64 0 -106.5 -41.5t-42.5 -109.5zM626 496l-58 19
q31 42 41.5 78t4.5 96h90q1 -129 -78 -193z" />
    <glyph glyph-name="Dcroat" unicode="&#x110;" horiz-adv-x="724" 
d="M363 0h-263v311h-93v68h93v310h263q143 0 225 -97t82 -249q0 -151 -82 -247t-225 -96zM193 379h165v-68h-165v-219h170q103 0 158.5 69.5t55.5 181.5q0 113 -55.5 183.5t-158.5 70.5h-170v-218z" />
    <glyph glyph-name="dcroat" unicode="&#x111;" horiz-adv-x="612" 
d="M536 559v-1v-558h-91v72q-23 -39 -68 -60.5t-96 -21.5q-99 0 -167.5 68t-68.5 176q0 109 68 176t167 67q53 0 97.5 -20.5t67.5 -59.5v162h-150v62h150v100h91v-100h75v-62h-75zM444 235q0 71 -47 112t-108 41q-64 0 -107.5 -42.5t-43.5 -110.5t43.5 -112t107.5 -44
t109.5 42.5t45.5 113.5z" />
    <glyph glyph-name="Emacron" unicode="&#x112;" horiz-adv-x="565" 
d="M94 689h408v-87h-315v-220h275v-87h-275v-208h325v-87h-418v689zM175 882h252v-80h-252v80z" />
    <glyph glyph-name="emacron" unicode="&#x113;" horiz-adv-x="556" 
d="M136 270h290q-8 58 -46.5 91.5t-95.5 33.5q-59 0 -99.5 -33.5t-48.5 -91.5zM516 235q0 -26 -1 -36h-379q8 -58 49.5 -92.5t101.5 -34.5q43 0 79 19t55 53l40 -15.5l38 -14.5q-29 -60 -87 -92t-128 -32q-102 0 -170.5 68t-68.5 177t68.5 175.5t170.5 66.5
q101 0 166.5 -66.5t65.5 -175.5zM154 660h252v-80h-252v80z" />
    <glyph glyph-name="Ebreve" unicode="&#x114;" horiz-adv-x="565" 
d="M502 689h-408v-689h418v87h-325v208h275v87h-275v220h315v87zM152 905h74q0 -26 15 -42.5t41 -16.5q25 0 40 18t15 41h76q0 -59 -35.5 -93.5t-95.5 -34.5q-65 0 -97.5 37t-32.5 91z" />
    <glyph glyph-name="ebreve" unicode="&#x115;" horiz-adv-x="556" 
d="M136 270q8 58 48.5 91.5t99.5 33.5q57 0 95.5 -33.5t46.5 -91.5h-290zM516 235q0 109 -65.5 175.5t-166.5 66.5q-102 0 -170.5 -66.5t-68.5 -175.5t68.5 -177t170.5 -68q70 0 128 32t87 92l-38 14.5l-40 15.5q-19 -34 -55 -53t-79 -19q-60 0 -101.5 34.5t-49.5 92.5h379
q1 10 1 36zM150 683h74q0 -26 15 -42.5t41 -16.5q25 0 40 18t15 41h76q0 -59 -35.5 -93.5t-95.5 -34.5q-65 0 -97.5 37t-32.5 91z" />
    <glyph glyph-name="Edotaccent" unicode="&#x116;" horiz-adv-x="565" 
d="M502 689h-408v-689h418v87h-325v208h275v87h-275v220h315v87zM242 861q0 25 18.5 42t44.5 17t44.5 -17t18.5 -42t-18.5 -42t-44.5 -17t-44.5 17t-18.5 42z" />
    <glyph glyph-name="edotaccent" unicode="&#x117;" horiz-adv-x="556" 
d="M136 270q8 58 48.5 91.5t99.5 33.5q57 0 95.5 -33.5t46.5 -91.5h-290zM516 235q0 109 -65.5 175.5t-166.5 66.5q-102 0 -170.5 -66.5t-68.5 -175.5t68.5 -177t170.5 -68q70 0 128 32t87 92l-38 14.5l-40 15.5q-19 -34 -55 -53t-79 -19q-60 0 -101.5 34.5t-49.5 92.5h379
q1 10 1 36zM222 639q0 25 18.5 42t44.5 17t44.5 -17t18.5 -42t-18.5 -42t-44.5 -17t-44.5 17t-18.5 42z" />
    <glyph glyph-name="Eogonek" unicode="&#x118;" horiz-adv-x="565" 
d="M507 0l-27 -76q-6 -16 -0.5 -31t20.5 -22q35 -10 50 23l3 22l64 4q0 -26 -10 -49q-13 -30 -37 -47t-53 -17q-21 0 -39 8q-30 13 -46.5 37.5t-16.5 54.5q0 23 8 42l27 51h-356v689h408v-87h-315v-220h275v-87h-275v-208h325v-87h-5z" />
    <glyph glyph-name="eogonek" unicode="&#x119;" horiz-adv-x="557" 
d="M379 -87q-6 -16 -0.5 -31t20.5 -22q35 -10 50 23l3 22l64 4q0 -26 -10 -49q-13 -30 -37 -47t-53 -17q-21 0 -39 8q-30 13 -46.5 37.5t-16.5 54.5q0 23 8 42l33 61q-35 -9 -71 -9q-102 0 -170.5 68t-68.5 177t68.5 175.5t170.5 66.5q101 0 166.5 -66.5t65.5 -175.5
q0 -26 -1 -36h-379q8 -58 49.5 -92.5t101.5 -34.5q43 0 79 19t55 53l78 -30q-5 -11 -20.5 -29l-31 -36t-35 -54t-33.5 -82zM136 270h290q-8 58 -46.5 91.5t-95.5 33.5q-59 0 -99.5 -33.5t-48.5 -91.5z" />
    <glyph glyph-name="Ecaron" unicode="&#x11a;" horiz-adv-x="565" 
d="M502 689h-408v-689h418v87h-325v208h275v87h-275v220h315v87zM282 843l75 87h82l-110 -154h-93l-110 154h82z" />
    <glyph glyph-name="ecaron" unicode="&#x11b;" horiz-adv-x="556" 
d="M136 270q8 58 48.5 91.5t99.5 33.5q57 0 95.5 -33.5t46.5 -91.5h-290zM516 235q0 109 -65.5 175.5t-166.5 66.5q-102 0 -170.5 -66.5t-68.5 -175.5t68.5 -177t170.5 -68q70 0 128 32t87 92l-38 14.5l-40 15.5q-19 -34 -55 -53t-79 -19q-60 0 -101.5 34.5t-49.5 92.5h379
q1 10 1 36zM280 621l75 87h82l-110 -154h-93l-110 154h82z" />
    <glyph glyph-name="Gcircumflex" unicode="&#x11c;" horiz-adv-x="756" 
d="M630 606l-67 -62q-72 64 -166 64q-107 0 -181 -77.5t-74 -187.5t74 -187t181 -77q94 0 155 50.5t65 135.5h-196v81h302q0 -177 -87 -266.5t-239 -89.5q-146 0 -247 103t-101 250q0 148 101 251t247 103q135 0 233 -91zM456 776l-75 87l-74 -87h-82l110 154h93l110 -154
h-82z" />
    <glyph glyph-name="gcircumflex" unicode="&#x11d;" horiz-adv-x="611" 
d="M146 -67q20 -38 57.5 -59t77.5 -21q166 0 166 212q0 2 -0.5 5.5t-0.5 5.5q-20 -40 -66.5 -63t-97.5 -23q-99 0 -168 67t-69 175q0 109 69 177t168 68q51 0 96.5 -22t67.5 -61v73h90v-396q0 -304 -255 -304q-66 0 -122 33t-89 93q7 3 40 21t36 19zM445 233q0 72 -45 113.5
t-110 41.5q-64 0 -108 -44t-44 -111q0 -70 43.5 -112t108.5 -42q61 0 108 42t47 112zM380 554l-75 87l-74 -87h-82l110 154h93l110 -154h-82z" />
    <glyph glyph-name="Gbreve" unicode="&#x11e;" horiz-adv-x="756" 
d="M630 606q-98 91 -233 91q-146 0 -247 -103t-101 -251q0 -147 101 -250t247 -103q152 0 239 89.5t87 266.5h-302v-81h196q-4 -85 -65 -135.5t-155 -50.5q-107 0 -181 77t-74 187t74 187.5t181 77.5q94 0 166 -64zM251 905h74q0 -26 15 -42.5t41 -16.5q25 0 40 18t15 41h76
q0 -59 -35.5 -93.5t-95.5 -34.5q-65 0 -97.5 37t-32.5 91z" />
    <glyph glyph-name="gbreve" unicode="&#x11f;" horiz-adv-x="611" 
d="M146 -67q-3 -1 -36 -19t-40 -21q33 -60 89 -93t122 -33q255 0 255 304v396h-90v-73q-22 39 -67.5 61t-96.5 22q-99 0 -168 -68t-69 -177q0 -108 69 -175t168 -67q51 0 97.5 23t66.5 63q0 -2 0.5 -5.5t0.5 -5.5q0 -212 -166 -212q-40 0 -77.5 21t-57.5 59zM445 233
q0 -70 -47 -112t-108 -42q-65 0 -108.5 42t-43.5 112q0 67 44 111t108 44q65 0 110 -41.5t45 -113.5zM175 683h74q0 -26 15 -42.5t41 -16.5q25 0 40 18t15 41h76q0 -59 -35.5 -93.5t-95.5 -34.5q-65 0 -97.5 37t-32.5 91z" />
    <glyph glyph-name="Gdotaccent" unicode="&#x120;" horiz-adv-x="756" 
d="M630 606q-98 91 -233 91q-146 0 -247 -103t-101 -251q0 -147 101 -250t247 -103q152 0 239 89.5t87 266.5h-302v-81h196q-4 -85 -65 -135.5t-155 -50.5q-107 0 -181 77t-74 187t74 187.5t181 77.5q94 0 166 -64zM331 861q0 25 18.5 42t44.5 17t44.5 -17t18.5 -42
t-18.5 -42t-44.5 -17t-44.5 17t-18.5 42z" />
    <glyph glyph-name="gdotaccent" unicode="&#x121;" horiz-adv-x="611" 
d="M146 -67q-3 -1 -36 -19t-40 -21q33 -60 89 -93t122 -33q255 0 255 304v396h-90v-73q-22 39 -67.5 61t-96.5 22q-99 0 -168 -68t-69 -177q0 -108 69 -175t168 -67q51 0 97.5 23t66.5 63q0 -2 0.5 -5.5t0.5 -5.5q0 -212 -166 -212q-40 0 -77.5 21t-57.5 59zM445 233
q0 -70 -47 -112t-108 -42q-65 0 -108.5 42t-43.5 112q0 67 44 111t108 44q65 0 110 -41.5t45 -113.5zM242 639q0 25 18.5 42t44.5 17t44.5 -17t18.5 -42t-18.5 -42t-44.5 -17t-44.5 17t-18.5 42z" />
    <glyph glyph-name="Gcommaaccent" unicode="&#x122;" horiz-adv-x="756" 
d="M630 606l-67 -62q-72 64 -166 64q-107 0 -181 -77.5t-74 -187.5t74 -187t181 -77q94 0 155 50.5t65 135.5h-196v81h302q0 -177 -87 -266.5t-239 -89.5q-146 0 -247 103t-101 250q0 148 101 251t247 103q135 0 233 -91zM371 -250l-58 19q31 42 41.5 78t4.5 96h90
q1 -129 -78 -193z" />
    <glyph glyph-name="gcommaaccent" unicode="&#x123;" horiz-adv-x="611" 
d="M146 -67q-3 -1 -36 -19t-40 -21q33 -60 89 -93t122 -33q255 0 255 304v396h-90v-73q-22 39 -67.5 61t-96.5 22q-99 0 -168 -68t-69 -177q0 -108 69 -175t168 -67q51 0 97.5 23t66.5 63q0 -2 0.5 -5.5t0.5 -5.5q0 -212 -166 -212q-40 0 -77.5 21t-57.5 59zM445 233
q0 -70 -47 -112t-108 -42q-65 0 -108.5 42t-43.5 112q0 67 44 111t108 44q65 0 110 -41.5t45 -113.5zM310 749l58 -19q-31 -42 -41.5 -78t-4.5 -96h-90q-1 129 78 193z" />
    <glyph glyph-name="Hcircumflex" unicode="&#x124;" horiz-adv-x="708" 
d="M614 689v-689h-94v300h-333v-300h-93v689h93v-304h333v304h94zM428 776l-75 87l-74 -87h-82l110 154h93l110 -154h-82z" />
    <glyph glyph-name="hcircumflex" unicode="&#x125;" 
d="M167 252v-252h-91v721h91v-324q19 39 64.5 59.5t89.5 20.5q88 0 139 -54.5t50 -152.5v-270h-91v264q0 57 -30.5 90.5t-79.5 33.5q-56 0 -99 -33.5t-43 -102.5zM197 765l-75 87l-74 -87h-82l110 154h93l110 -154h-82z" />
    <glyph glyph-name="Hbar" unicode="&#x126;" horiz-adv-x="716" 
d="M617 564h70v-62h-70v-502h-93v298h-332v-298h-93v502h-69v62h69v125h93v-125h332v125h93v-125zM192 386h332v116h-332v-116z" />
    <glyph glyph-name="hbar" unicode="&#x127;" 
d="M167 559v-162q19 39 64.5 59.5t89.5 20.5q88 0 139 -54.5t50 -152.5v-270h-91v264q0 57 -30.5 90.5t-79.5 33.5q-56 0 -99 -33.5t-43 -102.5v-252h-91v559h-70v62h70v100h91v-100h130v-62h-130z" />
    <glyph glyph-name="Itilde" unicode="&#x128;" horiz-adv-x="281" 
d="M94 689h93v-689h-93v689zM96 832q-9 0 -17.5 -11t-9.5 -33h-61q3 61 28.5 89t59.5 28q25 0 58 -24q21 -17 31 -17t18.5 9.5t9.5 31.5h61q-3 -60 -29 -87t-60 -27q-25 0 -57 25q-24 16 -32 16z" />
    <glyph glyph-name="itilde" unicode="&#x129;" horiz-adv-x="241" 
d="M165 467v-467h-89v467h89zM80 610q-9 0 -17.5 -11t-9.5 -33h-61q3 61 28.5 89t59.5 28q25 0 58 -24q21 -17 31 -17t18.5 9.5t9.5 31.5h61q-3 -60 -29 -87t-60 -27q-25 0 -57 25q-24 16 -32 16z" />
    <glyph glyph-name="Imacron" unicode="&#x12a;" horiz-adv-x="281" 
d="M94 689h93v-689h-93v689zM15 882h252v-80h-252v80z" />
    <glyph glyph-name="imacron" unicode="&#x12b;" horiz-adv-x="241" 
d="M165 467v-467h-89v467h89zM-1 660h252v-80h-252v80z" />
    <glyph glyph-name="Ibreve" unicode="&#x12c;" horiz-adv-x="281" 
d="M187 689h-93v-689h93v689zM10 905h74q0 -26 15 -42.5t41 -16.5q25 0 40 18t15 41h76q0 -59 -35.5 -93.5t-95.5 -34.5q-65 0 -97.5 37t-32.5 91z" />
    <glyph glyph-name="ibreve" unicode="&#x12d;" horiz-adv-x="241" 
d="M165 0v467h-89v-467h89zM-5 683h74q0 -26 15 -42.5t41 -16.5q25 0 40 18t15 41h76q0 -59 -35.5 -93.5t-95.5 -34.5q-65 0 -97.5 37t-32.5 91z" />
    <glyph glyph-name="Iogonek" unicode="&#x12e;" horiz-adv-x="281" 
d="M148 0l-31 -87q-6 -16 -0.5 -31t20.5 -22q35 -10 50 23l3 22l64 4q0 -26 -10 -49q-13 -30 -37 -47t-53 -17q-21 0 -39 8q-30 13 -46.5 37.5t-16.5 54.5q0 23 8 42l34 63v688h93v-689h-39z" />
    <glyph glyph-name="iogonek" unicode="&#x12f;" horiz-adv-x="242" 
d="M131 0l-31 -87q-6 -16 -0.5 -31t20.5 -22q35 -10 50 23l3 22l64 4q0 -26 -10 -49q-13 -30 -37 -47t-53 -17q-21 0 -39 8q-30 13 -46.5 37.5t-16.5 54.5q0 23 8 42l33 62v467h90v-467h-35zM73 639q0 25 18.5 42t44.5 17t44.5 -17t18.5 -42t-18.5 -42t-44.5 -17t-44.5 17
t-18.5 42z" />
    <glyph glyph-name="Idotaccent" unicode="&#x130;" horiz-adv-x="281" 
d="M187 689h-93v-689h93v689zM78 861q0 25 18.5 42t44.5 17t44.5 -17t18.5 -42t-18.5 -42t-44.5 -17t-44.5 17t-18.5 42z" />
    <glyph glyph-name="dotlessi" unicode="&#x131;" horiz-adv-x="242" 
d="M166 467v-467h-90v467h90z" />
    <glyph glyph-name="IJ" unicode="&#x132;" horiz-adv-x="562" 
d="M94 689h93v-689h-93v689zM181 -240l9 88q24 -8 66 -8q61 0 90 37t29 96v716h93v-716q0 -99 -51.5 -161.5t-160.5 -62.5q-22 0 -75 11z" />
    <glyph glyph-name="ij" unicode="&#x133;" horiz-adv-x="486" 
d="M166 0v467h-90v-467h90zM58 639q0 25 18.5 42t44.5 17t44.5 -17t18.5 -42t-18.5 -42t-44.5 -17t-44.5 17t-18.5 42zM180 -229v85h54q86 0 84 116v495h92v-496q0 -200 -168 -200h-62zM301 639q0 25 18.5 42t44.5 17t44.5 -17t18.5 -42t-18.5 -42t-44.5 -17t-44.5 17
t-18.5 42z" />
    <glyph glyph-name="Jcircumflex" unicode="&#x134;" horiz-adv-x="281" 
d="M-100 -240l9 88q24 -8 66 -8q61 0 90 37t29 96v716h93v-716q0 -99 -51.5 -161.5t-160.5 -62.5q-22 0 -75 11zM208 776l-75 87l-74 -87h-82l110 154h93l110 -154h-82z" />
    <glyph glyph-name="jcircumflex" unicode="&#x135;" horiz-adv-x="244" 
d="M-62 -229v85h54q86 0 84 116v495h92v-496q0 -200 -168 -200h-62zM201 554l-75 87l-74 -87h-82l110 154h93l110 -154h-82z" />
    <glyph glyph-name="Kcommaaccent" unicode="&#x136;" horiz-adv-x="578" 
d="M301 -250l-58 19q31 42 41.5 78t4.5 96h90q1 -129 -78 -193zM265 345l320 -345h-125l-273 294v-294h-93v689h93v-298l228 298h115z" />
    <glyph glyph-name="kcommaaccent" unicode="&#x137;" horiz-adv-x="502" 
d="M166 228v-228h-90v721h90v-417l161 163h124l-200 -202l248 -265h-120zM247 -250l-58 19q31 42 41.5 78t4.5 96h90q1 -129 -78 -193z" />
    <glyph glyph-name="kgreenlandic" unicode="&#x138;" horiz-adv-x="494" 
d="M166 187v-187h-90v467h90v-187l178 187h119l-217 -231l238 -236h-126z" />
    <glyph glyph-name="Lacute" unicode="&#x139;" horiz-adv-x="495" 
d="M187 689h-93v-689h374v87h-281v602zM306 919l-119 -154h-87l97 154h109z" />
    <glyph glyph-name="lacute" unicode="&#x13a;" horiz-adv-x="243" 
d="M167 721h-91v-721h91v721zM283 931l-119 -154h-87l97 154h109z" />
    <glyph glyph-name="Lcommaaccent" unicode="&#x13b;" horiz-adv-x="495" 
d="M94 689h93v-602h281v-87h-374v689zM240 -250l-58 19q31 42 41.5 78t4.5 96h90q1 -129 -78 -193z" />
    <glyph glyph-name="lcommaaccent" unicode="&#x13c;" horiz-adv-x="243" 
d="M76 721h91v-721h-91v721zM89 -250l-58 19q31 42 41.5 78t4.5 96h90q1 -129 -78 -193z" />
    <glyph glyph-name="Lcaron" unicode="&#x13d;" horiz-adv-x="495" 
d="M94 689h93v-602h281v-87h-374v689zM311 496l-58 19q31 42 41.5 78t4.5 96h90q1 -129 -78 -193z" />
    <glyph glyph-name="lcaron" unicode="&#x13e;" horiz-adv-x="243" 
d="M76 721h91v-721h-91v721zM267 528l-58 19q31 42 41.5 78t4.5 96h90q1 -129 -78 -193z" />
    <glyph glyph-name="Ldot" unicode="&#x13f;" horiz-adv-x="495" 
d="M94 689h93v-602h281v-87h-374v689zM266 261q0 27 19 45t46 18t46.5 -18t19.5 -45t-19.5 -44.5t-46.5 -17.5t-46 17.5t-19 44.5z" />
    <glyph glyph-name="ldot" unicode="&#x140;" horiz-adv-x="337" 
d="M76 721h91v-721h-91v721zM223 261q0 27 19 45t46 18t46.5 -18t19.5 -45t-19.5 -44.5t-46.5 -17.5t-46 17.5t-19 44.5z" />
    <glyph glyph-name="Lslash" unicode="&#x141;" horiz-adv-x="499" 
d="M191 452l104 65v-66l-104 -65v-294h280v-92h-372v328l-65 -41v66l65 41v295h92v-237z" />
    <glyph glyph-name="lslash" unicode="&#x142;" horiz-adv-x="255" 
d="M174 721v-281l77 50v-64l-77 -50v-376h-90v319l-67 -43v64l67 43v338h90z" />
    <glyph glyph-name="Nacute" unicode="&#x143;" horiz-adv-x="684" 
d="M501 0h89v689h-93v-515l-311 515h-92v-689h93v519zM475 930l-119 -154h-87l97 154h109z" />
    <glyph glyph-name="nacute" unicode="&#x144;" horiz-adv-x="563" 
d="M167 252v-252h-91v467h91v-70q20 39 61.5 59.5t84.5 20.5q87 0 133.5 -54t46.5 -153v-270h-91v264q0 58 -27.5 91t-75.5 33q-55 0 -93.5 -33.5t-38.5 -102.5zM423 708l-119 -154h-87l97 154h109z" />
    <glyph glyph-name="Ncommaaccent" unicode="&#x145;" horiz-adv-x="684" 
d="M590 0h-89l-314 519v-519h-93v689h92l311 -515v515h93v-689zM318 -250l-58 19q31 42 41.5 78t4.5 96h90q1 -129 -78 -193z" />
    <glyph glyph-name="ncommaaccent" unicode="&#x146;" horiz-adv-x="563" 
d="M167 252v-252h-91v467h91v-70q20 39 61.5 59.5t84.5 20.5q87 0 133.5 -54t46.5 -153v-270h-91v264q0 58 -27.5 91t-75.5 33q-55 0 -93.5 -33.5t-38.5 -102.5zM253 -250l-58 19q31 42 41.5 78t4.5 96h90q1 -129 -78 -193z" />
    <glyph glyph-name="Ncaron" unicode="&#x147;" horiz-adv-x="684" 
d="M501 0h89v689h-93v-515l-311 515h-92v-689h93v519zM341 843l75 87h82l-110 -154h-93l-110 154h82z" />
    <glyph glyph-name="ncaron" unicode="&#x148;" horiz-adv-x="563" 
d="M167 252v-252h-91v467h91v-70q20 39 61.5 59.5t84.5 20.5q87 0 133.5 -54t46.5 -153v-270h-91v264q0 58 -27.5 91t-75.5 33q-55 0 -93.5 -33.5t-38.5 -102.5zM281 621l75 87h82l-110 -154h-93l-110 154h82z" />
    <glyph glyph-name="napostrophe" unicode="&#x149;" horiz-adv-x="563" 
d="M9 469l-65 19q48 67 52 114q2 22 -4 59h95q1 -127 -78 -192zM167 252v-252h-91v467h91v-70q20 39 61.5 59.5t84.5 20.5q87 0 133.5 -54t46.5 -153v-270h-91v264q0 58 -27.5 91t-75.5 33q-55 0 -93.5 -33.5t-38.5 -102.5z" />
    <glyph glyph-name="Eng" unicode="&#x14a;" horiz-adv-x="682" 
d="M495 -23v33l-309 505v-515h-92v689h91l310 -515v515h93v-685q0 -251 -211 -251q-34 0 -76 11l9 93q23 -6 55 -9q43 -3 68 12q62 27 62 117z" />
    <glyph glyph-name="eng" unicode="&#x14b;" horiz-adv-x="562" 
d="M493 270l-1 -256q0 -233 -207 -233q-29 0 -73 10l8 91q36 -12 65 -12q60 0 88 36t29 94v264q0 58 -27.5 91t-75.5 33q-55 0 -93.5 -33.5t-38.5 -102.5v-252h-91v467h91v-70q20 39 61.5 59.5t84.5 20.5q87 0 134 -54.5t46 -152.5z" />
    <glyph glyph-name="Omacron" unicode="&#x14c;" horiz-adv-x="796" 
d="M49 343q0 148 101 251t247 103q147 0 248.5 -103t101.5 -251q0 -147 -101.5 -250t-248.5 -103q-146 0 -247 103t-101 250zM142 343q0 -110 73.5 -186.5t181.5 -76.5t182 76.5t74 186.5t-74 187t-182 77q-107 0 -181 -77t-74 -187zM272 882h252v-80h-252v80z" />
    <glyph glyph-name="omacron" unicode="&#x14d;" horiz-adv-x="579" 
d="M289 -10q-102 0 -173 68t-71 177q0 108 70.5 175t173.5 67t174 -67t71 -175t-71.5 -176.5t-173.5 -68.5zM289 78q65 0 109.5 43.5t44.5 113.5q0 69 -44.5 111t-109.5 42t-109.5 -42t-44.5 -111q0 -70 44.5 -113.5t109.5 -43.5zM154 660h252v-80h-252v80z" />
    <glyph glyph-name="Obreve" unicode="&#x14e;" horiz-adv-x="796" 
d="M49 343q0 -147 101 -250t247 -103q147 0 248.5 103t101.5 250q0 148 -101.5 251t-248.5 103q-146 0 -247 -103t-101 -251zM142 343q0 110 74 187t181 77q108 0 182 -77t74 -187t-74 -186.5t-182 -76.5t-181.5 76.5t-73.5 186.5zM267 905h74q0 -26 15 -42.5t41 -16.5
q25 0 40 18t15 41h76q0 -59 -35.5 -93.5t-95.5 -34.5q-65 0 -97.5 37t-32.5 91z" />
    <glyph glyph-name="obreve" unicode="&#x14f;" horiz-adv-x="579" 
d="M289 -10q102 0 173.5 68.5t71.5 176.5t-71 175t-174 67t-173.5 -67t-70.5 -175q0 -109 71 -177t173 -68zM289 78q-65 0 -109.5 43.5t-44.5 113.5q0 69 44.5 111t109.5 42t109.5 -42t44.5 -111q0 -70 -44.5 -113.5t-109.5 -43.5zM159 683h74q0 -26 15 -42.5t41 -16.5
q25 0 40 18t15 41h76q0 -59 -35.5 -93.5t-95.5 -34.5q-65 0 -97.5 37t-32.5 91z" />
    <glyph glyph-name="Ohungarumlaut" unicode="&#x150;" horiz-adv-x="796" 
d="M49 343q0 -147 101 -250t247 -103q147 0 248.5 103t101.5 250q0 148 -101.5 251t-248.5 103q-146 0 -247 -103t-101 -251zM142 343q0 110 74 187t181 77q108 0 182 -77t74 -187t-74 -186.5t-182 -76.5t-181.5 76.5t-73.5 186.5zM453 930l-89 -154h-83l80 154h92zM597 930
l-102 -154h-81l89 154h94z" />
    <glyph glyph-name="ohungarumlaut" unicode="&#x151;" horiz-adv-x="579" 
d="M289 -10q102 0 173.5 68.5t71.5 176.5t-71 175t-174 67t-173.5 -67t-70.5 -175q0 -109 71 -177t173 -68zM289 78q-65 0 -109.5 43.5t-44.5 113.5q0 69 44.5 111t109.5 42t109.5 -42t44.5 -111q0 -70 -44.5 -113.5t-109.5 -43.5zM329 708l-89 -154h-83l80 154h92zM473 708
l-102 -154h-81l89 154h94z" />
    <glyph glyph-name="OE" unicode="&#x152;" horiz-adv-x="1120" 
d="M650 689h406v-92h-313v-213h274v-92h-274v-200h324v-92h-417v108q-46 -55 -112 -86.5t-142 -31.5q-146 0 -246 103t-100 250q0 148 100 251t246 103q76 0 142 -32t112 -87v111zM143 343q0 -109 73 -184.5t180 -75.5q104 0 176.5 72.5t77.5 176.5v22q-5 105 -77.5 177.5
t-176.5 72.5q-107 0 -180 -76t-73 -185z" />
    <glyph glyph-name="oe" unicode="&#x153;" horiz-adv-x="955" 
d="M915 235q0 -26 -1 -36h-379q8 -58 49.5 -92.5t101.5 -34.5q43 0 79 19t55 53l40 -15.5l38 -14.5q-29 -60 -87 -92t-128 -32q-61 0 -112 25.5t-83 71.5q-34 -46 -86 -71.5t-113 -25.5q-102 0 -173 68t-71 177q0 108 70.5 175t173.5 67q128 0 199 -96q68 96 195 96
q101 0 166.5 -66.5t65.5 -175.5zM289 78q65 0 109.5 43.5t44.5 113.5q0 69 -44.5 111t-109.5 42t-109.5 -42t-44.5 -111q0 -70 44.5 -113.5t109.5 -43.5zM535 270h290q-8 58 -46.5 91.5t-95.5 33.5q-59 0 -99.5 -33.5t-48.5 -91.5z" />
    <glyph glyph-name="Racute" unicode="&#x154;" horiz-adv-x="619" 
d="M567 0l-184 261q91 8 135.5 68t44.5 144q0 90 -51 153t-153 63h-265v-689h94v258h88l178 -258h113zM188 602h168q56 0 83.5 -38t27.5 -91q0 -54 -28 -91t-87 -37h-164v257zM411 930l-119 -154h-87l97 154h109z" />
    <glyph glyph-name="racute" unicode="&#x155;" horiz-adv-x="395" 
d="M167 170q0 99 32 159.5t96 60.5q36 0 69 -16l14 85q-26 18 -81 18q-96 0 -130 -115v105h-91v-467h91v170zM283 708l-119 -154h-87l97 154h109z" />
    <glyph glyph-name="Rcommaaccent" unicode="&#x156;" horiz-adv-x="619" 
d="M383 261l184 -261h-113l-178 258h-88v-258h-94v689h265q102 0 153 -63t51 -153q0 -84 -44.5 -144t-135.5 -68zM356 602h-168v-257h164q59 0 87 37t28 91q0 53 -27.5 91t-83.5 38zM286 -250l-58 19q31 42 41.5 78t4.5 96h90q1 -129 -78 -193z" />
    <glyph glyph-name="rcommaaccent" unicode="&#x157;" horiz-adv-x="395" 
d="M167 170v-170h-91v467h91v-105q34 115 130 115q55 0 81 -18l-14 -85q-33 16 -69 16q-64 0 -96 -60.5t-32 -159.5zM89 -250l-58 19q31 42 41.5 78t4.5 96h90q1 -129 -78 -193z" />
    <glyph glyph-name="Rcaron" unicode="&#x158;" horiz-adv-x="619" 
d="M567 0l-184 261q91 8 135.5 68t44.5 144q0 90 -51 153t-153 63h-265v-689h94v258h88l178 -258h113zM188 602h168q56 0 83.5 -38t27.5 -91q0 -54 -28 -91t-87 -37h-164v257zM308 843l75 87h82l-110 -154h-93l-110 154h82z" />
    <glyph glyph-name="rcaron" unicode="&#x159;" horiz-adv-x="395" 
d="M167 170q0 99 32 159.5t96 60.5q36 0 69 -16l14 85q-26 18 -81 18q-96 0 -130 -115v105h-91v-467h91v170zM205 621l75 87h82l-110 -154h-93l-110 154h82z" />
    <glyph glyph-name="Sacute" unicode="&#x15a;" horiz-adv-x="573" 
d="M145 199h-93q0 -84 69 -146.5t172 -62.5q98 0 159.5 51t70.5 129q10 81 -38 136t-146 80l-90 22q-98 24 -98 96q0 46 38.5 75t90.5 29q57 0 93.5 -31t36.5 -82h93q0 91 -63 146.5t-159 55.5q-91 0 -157 -54.5t-66 -139.5q0 -137 168 -180l89 -22q54 -12 87.5 -42
t29.5 -81q-7 -43 -42 -72t-97 -29q-63 0 -105 37.5t-43 84.5zM416 930l-119 -154h-87l97 154h109z" />
    <glyph glyph-name="sacute" unicode="&#x15b;" horiz-adv-x="439" 
d="M182 206q-67 18 -99 54t-26 98q5 51 52 85t110 34q65 0 110.5 -32.5t51.5 -99.5h-87q-4 25 -24.5 39t-48.5 14q-26 0 -45.5 -11.5t-24.5 -30.5q-6 -22 1 -37q11 -23 55 -36l69 -17q121 -30 121 -136q0 -63 -52.5 -101.5t-128.5 -38.5q-67 0 -119.5 41t-54.5 109h83
q6 -37 38 -53q31 -19 74 -16q32 2 51 19t20 42q1 24 -16 38t-46 21zM350 708l-119 -154h-87l97 154h109z" />
    <glyph glyph-name="Scircumflex" unicode="&#x15c;" horiz-adv-x="573" 
d="M145 199q1 -47 43 -84.5t105 -37.5q62 0 97 29t42 72q4 51 -29.5 81t-87.5 42l-89 22q-168 43 -168 180q0 85 66 139.5t157 54.5q96 0 159 -55.5t63 -146.5h-93q0 51 -36.5 82t-93.5 31q-52 0 -90.5 -29t-38.5 -75q0 -72 98 -96l90 -22q98 -25 146 -80t38 -136
q-9 -78 -70.5 -129t-159.5 -51q-103 0 -172 62.5t-69 146.5h93zM352 776l-75 87l-74 -87h-82l110 154h93l110 -154h-82z" />
    <glyph glyph-name="scircumflex" unicode="&#x15d;" horiz-adv-x="439" 
d="M182 206q-67 18 -99 54t-26 98q5 51 52 85t110 34q65 0 110.5 -32.5t51.5 -99.5h-87q-4 25 -24.5 39t-48.5 14q-26 0 -45.5 -11.5t-24.5 -30.5q-6 -22 1 -37q11 -23 55 -36l69 -17q121 -30 121 -136q0 -63 -52.5 -101.5t-128.5 -38.5q-67 0 -119.5 41t-54.5 109h83
q6 -37 38 -53q31 -19 74 -16q32 2 51 19t20 42q1 24 -16 38t-46 21zM294 554l-75 87l-74 -87h-82l110 154h93l110 -154h-82z" />
    <glyph glyph-name="Scedilla" unicode="&#x15e;" horiz-adv-x="573" 
d="M254 -117q15 -33 50 -23q15 7 20.5 22t-0.5 31l-28 77h-3q-103 0 -172 62.5t-69 146.5h93q1 -47 43 -84.5t105 -37.5q62 0 97 29t42 72q4 51 -30 81.5t-87 41.5l-89 22q-168 43 -168 180q0 85 66 139.5t157 54.5q96 0 159 -55.5t63 -146.5h-93q0 51 -36.5 82t-93.5 31
q-52 0 -90.5 -29t-38.5 -75q0 -72 98 -96l90 -22q98 -25 146 -80t38 -136q-8 -65 -53.5 -112.5t-119.5 -61.5l31 -58q8 -19 8 -42q0 -30 -16.5 -54.5t-46.5 -37.5q-18 -8 -39 -8q-29 0 -53 17t-37 47q-10 23 -10 49l64 -4q-1 -14 3 -22z" />
    <glyph glyph-name="scedilla" unicode="&#x15f;" horiz-adv-x="440" 
d="M280 -1l33 -61q8 -19 8 -42q0 -30 -16.5 -54.5t-46.5 -37.5q-18 -8 -39 -8q-29 0 -53 17t-37 47q-10 23 -10 49l64 -4q-1 -14 3 -22q15 -33 50 -23q15 7 20.5 22t-0.5 31l-28 78q-2 0 -6 -0.5t-6 -0.5q-67 0 -119.5 41t-54.5 109h83q6 -37 38 -53q31 -19 74 -16
q32 2 51 19t20 42q1 24 -16 38t-46 21l-64 15q-67 18 -99 54t-26 98q5 51 52 85t110 34q65 0 110.5 -32.5t51.5 -99.5h-87q-4 25 -24.5 39t-48.5 14q-26 0 -45.5 -11.5t-24.5 -30.5q-6 -22 1 -37q11 -23 55 -36l69 -17q121 -30 121 -136q0 -49 -32.5 -83.5t-84.5 -47.5z" />
    <glyph glyph-name="Scaron" unicode="&#x160;" horiz-adv-x="573" 
d="M145 199h-93q0 -84 69 -146.5t172 -62.5q98 0 159.5 51t70.5 129q10 81 -38 136t-146 80l-90 22q-98 24 -98 96q0 46 38.5 75t90.5 29q57 0 93.5 -31t36.5 -82h93q0 91 -63 146.5t-159 55.5q-91 0 -157 -54.5t-66 -139.5q0 -137 168 -180l89 -22q54 -12 87.5 -42
t29.5 -81q-7 -43 -42 -72t-97 -29q-63 0 -105 37.5t-43 84.5zM288 843l75 87h82l-110 -154h-93l-110 154h82z" />
    <glyph glyph-name="scaron" unicode="&#x161;" horiz-adv-x="439" 
d="M182 206q-67 18 -99 54t-26 98q5 51 52 85t110 34q65 0 110.5 -32.5t51.5 -99.5h-87q-4 25 -24.5 39t-48.5 14q-26 0 -45.5 -11.5t-24.5 -30.5q-6 -22 1 -37q11 -23 55 -36l69 -17q121 -30 121 -136q0 -63 -52.5 -101.5t-128.5 -38.5q-67 0 -119.5 41t-54.5 109h83
q6 -37 38 -53q31 -19 74 -16q32 2 51 19t20 42q1 24 -16 38t-46 21zM219 621l75 87h82l-110 -154h-93l-110 154h82z" />
    <glyph glyph-name="Tcommaaccent" unicode="&#x162;" horiz-adv-x="568" 
d="M28 689h512v-88h-209v-601h-94v601h-209v88zM249 -250l-58 19q31 42 41.5 78t4.5 96h90q1 -129 -78 -193z" />
    <glyph glyph-name="tcommaaccent" unicode="&#x163;" horiz-adv-x="328" 
d="M202 467h99v-77h-99v-390h-91v390h-84v77h84v176h91v-176zM123 -250l-58 19q31 42 41.5 78t4.5 96h90q1 -129 -78 -193z" />
    <glyph glyph-name="Tcaron" unicode="&#x164;" horiz-adv-x="568" 
d="M540 689h-512v-88h209v-601h94v601h209v88zM283 843l75 87h82l-110 -154h-93l-110 154h82z" />
    <glyph glyph-name="tcaron" unicode="&#x165;" horiz-adv-x="328" 
d="M301 467h-99v176h-91v-176h-84v-77h84v-390h91v390h99v77zM299 528l-58 19q31 42 41.5 78t4.5 96h90q1 -129 -78 -193z" />
    <glyph glyph-name="Tbar" unicode="&#x166;" horiz-adv-x="567" 
d="M330 410h133v-66h-133v-344h-93v344h-132v66h132v187h-211v92h515v-92h-211v-187z" />
    <glyph glyph-name="tbar" unicode="&#x167;" horiz-adv-x="330" 
d="M112 0v226h-68v61h68v103h-84v77h84v176h91v-176h99v-77h-99v-103h76v-61h-76v-226h-91z" />
    <glyph glyph-name="Utilde" unicode="&#x168;" horiz-adv-x="678" 
d="M339 80q66 0 112 44t46 113v452h94v-452q0 -110 -73.5 -178.5t-178.5 -68.5t-178.5 68.5t-73.5 178.5v452h94v-452q0 -69 46 -113t112 -44zM294 832q-9 0 -17.5 -11t-9.5 -33h-61q3 61 28.5 89t59.5 28q25 0 58 -24q21 -17 31 -17t18.5 9.5t9.5 31.5h61q-3 -60 -29 -87
t-60 -27q-25 0 -57 25q-24 16 -32 16z" />
    <glyph glyph-name="utilde" unicode="&#x169;" horiz-adv-x="562" 
d="M395 215v252h91v-467h-91v70q-20 -39 -61 -59.5t-84 -20.5q-87 0 -134 54t-46 153v270h91v-264q0 -58 27 -91t75 -33q56 0 94 33t38 103zM242 610q-9 0 -17.5 -11t-9.5 -33h-61q3 61 28.5 89t59.5 28q25 0 58 -24q21 -17 31 -17t18.5 9.5t9.5 31.5h61q-3 -60 -29 -87
t-60 -27q-25 0 -57 25q-24 16 -32 16z" />
    <glyph glyph-name="Umacron" unicode="&#x16a;" horiz-adv-x="678" 
d="M339 80q66 0 112 44t46 113v452h94v-452q0 -110 -73.5 -178.5t-178.5 -68.5t-178.5 68.5t-73.5 178.5v452h94v-452q0 -69 46 -113t112 -44zM213 882h252v-80h-252v80z" />
    <glyph glyph-name="umacron" unicode="&#x16b;" horiz-adv-x="562" 
d="M395 215v252h91v-467h-91v70q-20 -39 -61 -59.5t-84 -20.5q-87 0 -134 54t-46 153v270h91v-264q0 -58 27 -91t75 -33q56 0 94 33t38 103zM161 660h252v-80h-252v80z" />
    <glyph glyph-name="Ubreve" unicode="&#x16c;" horiz-adv-x="678" 
d="M339 80q66 0 112 44t46 113v452h94v-452q0 -110 -73.5 -178.5t-178.5 -68.5t-178.5 68.5t-73.5 178.5v452h94v-452q0 -69 46 -113t112 -44zM208 905h74q0 -26 15 -42.5t41 -16.5q25 0 40 18t15 41h76q0 -59 -35.5 -93.5t-95.5 -34.5q-65 0 -97.5 37t-32.5 91z" />
    <glyph glyph-name="ubreve" unicode="&#x16d;" horiz-adv-x="562" 
d="M395 215v252h91v-467h-91v70q-20 -39 -61 -59.5t-84 -20.5q-87 0 -134 54t-46 153v270h91v-264q0 -58 27 -91t75 -33q56 0 94 33t38 103zM157 683h74q0 -26 15 -42.5t41 -16.5q25 0 40 18t15 41h76q0 -59 -35.5 -93.5t-95.5 -34.5q-65 0 -97.5 37t-32.5 91z" />
    <glyph glyph-name="Uring" unicode="&#x16e;" horiz-adv-x="678" 
d="M339 80q66 0 112 44t46 113v452h94v-452q0 -110 -73.5 -178.5t-178.5 -68.5t-178.5 68.5t-73.5 178.5v452h94v-452q0 -69 46 -113t112 -44zM233 867q0 45 30 75.5t74 30.5q45 0 76 -30.5t31 -75.5q0 -44 -31 -74t-76 -30q-43 0 -73.5 30.5t-30.5 73.5zM286 867
q0 -21 15 -36t36 -15q22 0 38 15t16 36q0 22 -15.5 37.5t-38.5 15.5q-21 0 -36 -15.5t-15 -37.5z" />
    <glyph glyph-name="uring" unicode="&#x16f;" horiz-adv-x="562" 
d="M395 215v252h91v-467h-91v70q-20 -39 -61 -59.5t-84 -20.5q-87 0 -134 54t-46 153v270h91v-264q0 -58 27 -91t75 -33q56 0 94 33t38 103zM182 645q0 45 30 75.5t74 30.5q45 0 76 -30.5t31 -75.5q0 -44 -31 -74t-76 -30q-44 0 -74 30.5t-30 73.5zM235 645q0 -21 15 -36
t36 -15q22 0 38 15t16 36q0 22 -15.5 37.5t-38.5 15.5q-21 0 -36 -15.5t-15 -37.5z" />
    <glyph glyph-name="Uhungarumlaut" unicode="&#x170;" horiz-adv-x="678" 
d="M339 80q66 0 112 44t46 113v452h94v-452q0 -110 -73.5 -178.5t-178.5 -68.5t-178.5 68.5t-73.5 178.5v452h94v-452q0 -69 46 -113t112 -44zM381 930l-89 -154h-83l80 154h92zM525 930l-102 -154h-81l89 154h94z" />
    <glyph glyph-name="uhungarumlaut" unicode="&#x171;" horiz-adv-x="562" 
d="M395 215v252h91v-467h-91v70q-20 -39 -61 -59.5t-84 -20.5q-87 0 -134 54t-46 153v270h91v-264q0 -58 27 -91t75 -33q56 0 94 33t38 103zM321 708l-89 -154h-83l80 154h92zM465 708l-102 -154h-81l89 154h94z" />
    <glyph glyph-name="Uogonek" unicode="&#x172;" horiz-adv-x="678" 
d="M414 -117l3 22l64 4q0 -26 -10 -49q-13 -30 -37 -47t-53 -17q-21 0 -39 8q-30 13 -46.5 37.5t-16.5 54.5q0 23 8 42l28 53q-97 8 -162.5 75.5t-65.5 170.5v452h94v-452q0 -69 46 -113t112 -44t112 44t46 113v452h94v-452q0 -101 -62.5 -167.5t-156.5 -77.5l-28 -79
q-6 -16 -0.5 -31t20.5 -22q35 -10 50 23z" />
    <glyph glyph-name="uogonek" unicode="&#x173;" horiz-adv-x="562" 
d="M489 -117l3 22l64 4q0 -26 -10 -49q-13 -30 -37 -47t-53 -17q-21 0 -39 8q-30 13 -46.5 37.5t-16.5 54.5q0 23 8 42l33 62v70q-20 -39 -61 -59.5t-84 -20.5q-87 0 -134 54t-46 153v270h91v-264q0 -58 27 -91t75 -33q56 0 94 33t38 103v252h91v-467h-36l-31 -87
q-6 -16 -0.5 -31t20.5 -22q35 -10 50 23z" />
    <glyph glyph-name="Wcircumflex" unicode="&#x174;" horiz-adv-x="901" 
d="M786 689h100l-233 -689h-81l-122 430l-121 -430h-81l-233 689h100l173 -539l127 446h71l127 -446zM525 776l-75 87l-74 -87h-82l110 154h93l110 -154h-82z" />
    <glyph glyph-name="wcircumflex" unicode="&#x175;" horiz-adv-x="790" 
d="M596 0h-75l-127 343l-123 -343h-74l-178 467h97l117 -327l117 327h88l117 -327l117 327h97zM468 554l-75 87l-74 -87h-82l110 154h93l110 -154h-82z" />
    <glyph glyph-name="Ycircumflex" unicode="&#x176;" horiz-adv-x="628" 
d="M362 0h-96v317l-261 372h111l198 -279l200 279h112l-264 -372v-317zM390 776l-75 87l-74 -87h-82l110 154h93l110 -154h-82z" />
    <glyph glyph-name="ycircumflex" unicode="&#x177;" horiz-adv-x="509" 
d="M202 -227h-95l98 241l-187 453h97l140 -338l140 338h97zM332 554l-75 87l-74 -87h-82l110 154h93l110 -154h-82z" />
    <glyph glyph-name="Ydieresis" unicode="&#x178;" horiz-adv-x="628" 
d="M362 0h-96v317l-261 372h111l198 -279l200 279h112l-264 -372v-317zM169 852q0 25 18 42t44 17q25 0 43 -17t18 -42t-18 -42t-43 -17q-26 0 -44 17t-18 42zM338 852q0 25 18 42t44 17t44 -17t18 -42t-18 -42t-44 -17t-44 17t-18 42z" />
    <glyph glyph-name="Zacute" unicode="&#x179;" horiz-adv-x="573" 
d="M42 81l364 520h-350v88h468v-81l-366 -520h366v-88h-482v81zM425 930l-119 -154h-87l97 154h109z" />
    <glyph glyph-name="zacute" unicode="&#x17a;" horiz-adv-x="502" 
d="M453 392v75h-395v-87h262l-278 -305v-75h411v87h-283zM382 708l-119 -154h-87l97 154h109z" />
    <glyph glyph-name="Zdotaccent" unicode="&#x17b;" horiz-adv-x="573" 
d="M42 81l364 520h-350v88h468v-81l-366 -520h366v-88h-482v81zM220 861q0 25 18.5 42t44.5 17t44.5 -17t18.5 -42t-18.5 -42t-44.5 -17t-44.5 17t-18.5 42z" />
    <glyph glyph-name="zdotaccent" unicode="&#x17c;" horiz-adv-x="502" 
d="M453 392v75h-395v-87h262l-278 -305v-75h411v87h-283zM185 639q0 25 18.5 42t44.5 17t44.5 -17t18.5 -42t-18.5 -42t-44.5 -17t-44.5 17t-18.5 42z" />
    <glyph glyph-name="Zcaron" unicode="&#x17d;" horiz-adv-x="573" 
d="M42 81l364 520h-350v88h468v-81l-366 -520h366v-88h-482v81zM282 843l75 87h82l-110 -154h-93l-110 154h82z" />
    <glyph glyph-name="zcaron" unicode="&#x17e;" horiz-adv-x="502" 
d="M453 392v75h-395v-87h262l-278 -305v-75h411v87h-283zM247 621l75 87h82l-110 -154h-93l-110 154h82z" />
    <glyph glyph-name="longs" unicode="&#x17f;" horiz-adv-x="305" 
d="M347 721v-87h-51q-89 0 -87 -120v-514h-92v390h-90v77h90v47q0 97 44 152t135 55h51z" />
    <glyph glyph-name="florin" unicode="&#x192;" horiz-adv-x="617" 
d="M210 16l80 367h-86l18 84h86l9 40q39 175 173 194q21 4 59 2l37 -2l-17 -83h-58q-16 0 -30 -4.5t-23.5 -10.5t-18 -18t-13 -20.5t-10 -25t-7 -24.5t-5.5 -25.5t-5 -22.5h108l-17 -84h-109l-74 -341q-20 -97 -61 -155.5t-119 -70.5q-29 -4 -97 1l17 82h59q26 0 44.5 10
t30 29.5t17.5 36.5t12 41z" />
    <glyph glyph-name="Aringacute" unicode="&#x1fa;" horiz-adv-x="645" 
d="M177 175h292l67 -175h98l-261 689h-100l-262 -689h99zM476 1091l-102 -132q54 -29 54 -92q0 -44 -31 -74t-76 -30q-43 0 -73.5 30.5t-30.5 73.5q0 36 20 63.5t52 37.5l78 123h109zM437 259h-228l114 306zM270 867q0 -21 15 -36t36 -15q22 0 38 15t16 36q0 22 -15.5 37.5
t-38.5 15.5q-21 0 -36 -15.5t-15 -37.5z" />
    <glyph glyph-name="aringacute" unicode="&#x1fb;" horiz-adv-x="612" 
d="M446 0v72q-23 -39 -68 -60.5t-96 -21.5q-99 0 -168 68t-69 176q0 109 69 176t168 67q51 0 96.5 -21t67.5 -59v70h90v-467h-90zM445 235q0 71 -47 112t-108 41q-65 0 -108.5 -42.5t-43.5 -110.5t44 -112t108 -44q65 0 110 42t45 114zM433 861l-102 -132q54 -29 54 -92
q0 -44 -31 -74t-76 -30q-44 0 -74 30.5t-30 73.5q0 36 20 63.5t52 37.5l78 123h109zM227 637q0 -21 15 -36t36 -15q22 0 38 15t16 36q0 22 -15.5 37.5t-38.5 15.5q-21 0 -36 -15.5t-15 -37.5z" />
    <glyph glyph-name="AEacute" unicode="&#x1fc;" horiz-adv-x="934" 
d="M109 0l111 173h245v-173h416v92h-324v200h274v92h-274v213h313v92h-435l-435 -689h109zM465 262h-190l190 298v-298zM666 930l-119 -154h-87l97 154h109z" />
    <glyph glyph-name="aeacute" unicode="&#x1fd;" horiz-adv-x="957" 
d="M536 429v38h-90v-70q-22 38 -67.5 59t-96.5 21q-99 0 -168 -67t-69 -176q0 -108 69 -176t168 -68q51 0 96 21.5t68 60.5v-72h90v39q61 -49 149 -49q70 0 128 32t87 92l-38 14.5l-40 15.5q-19 -34 -55 -53t-79 -19q-60 0 -101.5 34.5t-49.5 92.5h379q1 10 1 36
q0 109 -65.5 175.5t-166.5 66.5q-87 0 -149 -48zM445 235q0 -72 -45 -114t-110 -42q-64 0 -108 44t-44 112t43.5 110.5t108.5 42.5q61 0 108 -41t47 -112zM537 270q8 58 48.5 91.5t99.5 33.5q57 0 95.5 -33.5t46.5 -91.5h-290zM626 708l-119 -154h-87l97 154h109z" />
    <glyph glyph-name="Oslashacute" unicode="&#x1fe;" horiz-adv-x="795" 
d="M553 930l-119 -154h-87l97 154h109zM98 -16l80 82q93 -76 218 -76q147 0 248.5 103t101.5 250q0 127 -80 226l80 82l-47 46l-79 -81q-97 81 -224 81q-146 0 -247 -103t-101 -251q0 -131 83 -230l-80 -82zM141 343q0 110 74 187t181 77q90 0 160 -57l-361 -371
q-54 71 -54 164zM396 80q-88 0 -154 52l359 370q51 -70 51 -159q0 -110 -74 -186.5t-182 -76.5z" />
    <glyph glyph-name="oslashacute" unicode="&#x1ff;" horiz-adv-x="577" 
d="M435 708l-119 -154h-87l97 154h109zM87 -25l57 58q61 -43 144 -43q102 0 173.5 68.5t71.5 176.5q0 85 -48 149l50 51l-47 46l-50 -51q-66 47 -150 47q-103 0 -173.5 -67t-70.5 -175q0 -91 52 -156l-56 -57zM288 388q48 0 86 -24l-215 -219q-25 37 -25 90q0 69 44.5 111
t109.5 42zM288 78q-46 0 -80 21l212 218q22 -39 22 -82q0 -70 -44.5 -113.5t-109.5 -43.5z" />
    <glyph glyph-name="Scommaaccent" unicode="&#x218;" horiz-adv-x="573" 
d="M145 199q1 -47 43 -84.5t105 -37.5q62 0 97 29t42 72q7 56 -34 86q-31 26 -83 37l-89 22q-168 43 -168 180q0 85 66 139.5t157 54.5q96 0 159 -55.5t63 -146.5h-93q0 51 -36.5 82t-93.5 31q-52 0 -90.5 -29t-38.5 -75q0 -72 98 -96l90 -22q98 -25 146 -80t38 -136
q-9 -78 -70.5 -129t-159.5 -51q-103 0 -172 62.5t-69 146.5h93zM265 -250l-58 19q31 42 41.5 78t4.5 96h90q1 -129 -78 -193z" />
    <glyph glyph-name="scommaaccent" unicode="&#x219;" horiz-adv-x="439" 
d="M182 206q-67 18 -99 54t-26 98q5 51 52 85t110 34q65 0 110.5 -32.5t51.5 -99.5h-87q-4 25 -24.5 39t-48.5 14q-26 0 -45.5 -11.5t-24.5 -30.5q-6 -22 1 -37q11 -23 55 -36l69 -17q121 -30 121 -136q0 -63 -52.5 -101.5t-128.5 -38.5q-67 0 -119.5 41t-54.5 109h83
q6 -37 38 -53q31 -19 74 -16q32 2 51 19t20 42q1 24 -16 38t-46 21zM195 -250l-58 19q31 42 41.5 78t4.5 96h90q1 -129 -78 -193z" />
    <glyph glyph-name="circumflex" unicode="&#x2c6;" horiz-adv-x="523" 
d="M336 554l-75 87l-74 -87h-82l110 154h93l110 -154h-82z" />
    <glyph glyph-name="caron" unicode="&#x2c7;" horiz-adv-x="523" 
d="M261 621l75 87h82l-110 -154h-93l-110 154h82z" />
    <glyph glyph-name="breve" unicode="&#x2d8;" horiz-adv-x="481" 
d="M110 683h74q0 -26 15 -42.5t41 -16.5q25 0 40 18t15 41h76q0 -59 -35.5 -93.5t-95.5 -34.5q-65 0 -97.5 37t-32.5 91z" />
    <glyph glyph-name="dotaccent" unicode="&#x2d9;" horiz-adv-x="526" 
d="M200 639q0 25 18.5 42t44.5 17t44.5 -17t18.5 -42t-18.5 -42t-44.5 -17t-44.5 17t-18.5 42z" />
    <glyph glyph-name="ring" unicode="&#x2da;" horiz-adv-x="531" 
d="M160 645q0 45 30 75.5t74 30.5q45 0 76 -30.5t31 -75.5q0 -44 -31 -74t-76 -30q-44 0 -74 30.5t-30 73.5zM213 645q0 -21 15 -36t36 -15q22 0 38 15t16 36q0 22 -15.5 37.5t-38.5 15.5q-21 0 -36 -15.5t-15 -37.5z" />
    <glyph glyph-name="ogonek" unicode="&#x2db;" horiz-adv-x="522" 
d="M295 -117l3 22l64 4q0 -26 -10 -49q-13 -30 -37 -47t-53 -17q-21 0 -39 8q-30 13 -46.5 37.5t-16.5 54.5q0 23 8 42l51 95h49l-43 -120q-6 -16 -0.5 -31t20.5 -22q35 -10 50 23z" />
    <glyph glyph-name="tilde" unicode="&#x2dc;" horiz-adv-x="426" 
d="M168 610q-9 0 -17.5 -11t-9.5 -33h-61q3 61 28.5 89t59.5 28q25 0 58 -24q21 -17 31 -17t18.5 9.5t9.5 31.5h61q-3 -60 -29 -87t-60 -27q-25 0 -57 25q-24 16 -32 16z" />
    <glyph glyph-name="hungarumlaut" unicode="&#x2dd;" horiz-adv-x="476" 
d="M252 708l-89 -154h-83l80 154h92zM396 708l-102 -154h-81l89 154h94z" />
    <glyph glyph-name="Wgrave" unicode="&#x1e80;" horiz-adv-x="901" 
d="M786 689h100l-233 -689h-81l-122 430l-121 -430h-81l-233 689h100l173 -539l127 446h71l127 -446zM409 776l-119 154h109l97 -154h-87z" />
    <glyph glyph-name="wgrave" unicode="&#x1e81;" horiz-adv-x="790" 
d="M596 0h-75l-127 343l-123 -343h-74l-178 467h97l117 -327l117 327h88l117 -327l117 327h97zM353 554l-119 154h109l97 -154h-87z" />
    <glyph glyph-name="Wacute" unicode="&#x1e82;" horiz-adv-x="901" 
d="M886 689h-100l-173 -539l-127 446h-71l-127 -446l-173 539h-100l233 -689h81l121 430l122 -430h81zM610 930l-119 -154h-87l97 154h109z" />
    <glyph glyph-name="wacute" unicode="&#x1e83;" horiz-adv-x="790" 
d="M521 0h75l173 467h-97l-117 -327l-117 327h-88l-117 -327l-117 327h-97l178 -467h74l123 343zM555 708l-119 -154h-87l97 154h109z" />
    <glyph glyph-name="Wdieresis" unicode="&#x1e84;" horiz-adv-x="901" 
d="M886 689h-100l-173 -539l-127 446h-71l-127 -446l-173 539h-100l233 -689h81l121 430l122 -430h81zM304 852q0 25 18 42t44 17q25 0 43 -17t18 -42t-18 -42t-43 -17q-26 0 -44 17t-18 42zM473 852q0 25 18 42t44 17t44 -17t18 -42t-18 -42t-44 -17t-44 17t-18 42z" />
    <glyph glyph-name="wdieresis" unicode="&#x1e85;" horiz-adv-x="790" 
d="M521 0h75l173 467h-97l-117 -327l-117 327h-88l-117 -327l-117 327h-97l178 -467h74l123 343zM247 630q0 25 18 42t44 17q25 0 43 -17t18 -42t-18 -42t-43 -17q-26 0 -44 17t-18 42zM416 630q0 25 18 42t44 17t44 -17t18 -42t-18 -42t-44 -17t-44 17t-18 42z" />
    <glyph glyph-name="Ygrave" unicode="&#x1ef2;" horiz-adv-x="628" 
d="M362 0h-96v317l-261 372h111l198 -279l200 279h112l-264 -372v-317zM277 776l-119 154h109l97 -154h-87z" />
    <glyph glyph-name="ygrave" unicode="&#x1ef3;" horiz-adv-x="509" 
d="M202 -227h-95l98 241l-187 453h97l140 -338l140 338h97zM243 554l-119 154h109l97 -154h-87z" />
    <glyph glyph-name="thinspace" unicode="&#x2009;" horiz-adv-x="14" 
 />
    <glyph glyph-name="endash" unicode="&#x2013;" horiz-adv-x="595" 
d="M71 273h453v-78h-453v78z" />
    <glyph glyph-name="emdash" unicode="&#x2014;" horiz-adv-x="801" 
d="M71 273h659v-78h-659v78z" />
    <glyph glyph-name="quoteleft" unicode="&#x2018;" horiz-adv-x="248" 
d="M153 688l53 -19q-64 -91 -63 -211h-83q6 80 33 141.5t60 88.5z" />
    <glyph glyph-name="quoteright" unicode="&#x2019;" horiz-adv-x="245" 
d="M103 454l-53 19q64 91 63 211h83q-6 -80 -33 -141.5t-60 -88.5z" />
    <glyph glyph-name="quotesinglbase" unicode="&#x201a;" horiz-adv-x="242" 
d="M81 -65l-53 19q64 91 63 211h83q-6 -80 -33 -141.5t-60 -88.5z" />
    <glyph glyph-name="quotedblleft" unicode="&#x201c;" horiz-adv-x="397" 
d="M153 689l53 -19q-64 -91 -63 -211h-83q6 80 33 141.5t60 88.5zM302 689l53 -19q-64 -91 -63 -211h-83q6 80 33 141.5t60 88.5z" />
    <glyph glyph-name="quotedblright" unicode="&#x201d;" horiz-adv-x="395" 
d="M253 459l-53 19q64 91 63 211h83q-6 -80 -33 -141.5t-60 -88.5zM104 459l-53 19q64 91 63 211h83q-6 -80 -33 -141.5t-60 -88.5z" />
    <glyph glyph-name="quotedblbase" unicode="&#x201e;" horiz-adv-x="391" 
d="M230 -65l-53 19q64 91 63 211h83q-6 -80 -33 -141.5t-60 -88.5zM81 -65l-53 19q64 91 63 211h83q-6 -80 -33 -141.5t-60 -88.5z" />
    <glyph glyph-name="dagger" unicode="&#x2020;" horiz-adv-x="414" 
d="M251 497h121v-90h-121v-528h-89v528h-120v90h120v179h89v-179z" />
    <glyph glyph-name="daggerdbl" unicode="&#x2021;" horiz-adv-x="448" 
d="M268 497h121v-90h-121v-235h121v-89h-121v-204h-89v204h-120v89h120v235h-120v90h120v179h89v-179z" />
    <glyph glyph-name="bullet" unicode="&#x2022;" horiz-adv-x="461" 
d="M81 239q0 61 44 101.5t106 40.5t105.5 -40.5t43.5 -101.5t-43.5 -102t-105.5 -41t-106 41t-44 102z" />
    <glyph glyph-name="ellipsis" unicode="&#x2026;" horiz-adv-x="718" 
d="M67 52q0 27 19 45t46 18t46.5 -18t19.5 -45t-19.5 -44.5t-46.5 -17.5t-46 17.5t-19 44.5zM293 52q0 27 19 45t46 18t46.5 -18t19.5 -45t-19.5 -44.5t-46.5 -17.5t-46 17.5t-19 44.5zM519 52q0 27 19 45t46 18t46.5 -18t19.5 -45t-19.5 -44.5t-46.5 -17.5t-46 17.5
t-19 44.5z" />
    <glyph glyph-name="perthousand" unicode="&#x2030;" horiz-adv-x="991" 
d="M533 673l-329 -673h-66l329 673h66zM39 539q0 56 38.5 95t94.5 39t95 -39.5t39 -94.5q0 -56 -39 -94.5t-95 -38.5t-94.5 38.5t-38.5 94.5zM109 539q0 -27 18 -45t45 -18t45.5 18t18.5 45q0 26 -19 45t-45 19q-27 0 -45 -18.5t-18 -45.5zM379 123q0 56 38.5 95t94.5 39
t95 -39.5t39 -94.5q0 -56 -39 -94.5t-95 -38.5t-94.5 38.5t-38.5 94.5zM449 123q0 -27 18 -45t45 -18t45.5 18t18.5 45q0 26 -19 45t-45 19q-27 0 -45 -18.5t-18 -45.5zM688 123q0 56 38.5 95t94.5 39q55 0 94.5 -39.5t39.5 -94.5q0 -56 -39 -94.5t-95 -38.5t-94.5 38.5
t-38.5 94.5zM758 123q0 -27 18 -45t45 -18t45.5 18t18.5 45q0 26 -19 45t-45 19q-27 0 -45 -18.5t-18 -45.5z" />
    <glyph glyph-name="guilsinglleft" unicode="&#x2039;" horiz-adv-x="313" 
d="M46 233l138 207h79l-138 -207l138 -207h-79z" />
    <glyph glyph-name="guilsinglright" unicode="&#x203a;" horiz-adv-x="313" 
d="M267 233l-138 -207h-79l138 207l-138 207h79z" />
    <glyph glyph-name="fraction" unicode="&#x2044;" horiz-adv-x="180" 
d="M346 670l-450 -680h-68l451 680h67z" />
    <glyph glyph-name="zerosuperior" unicode="&#x2070;" horiz-adv-x="364" 
d="M39 625q0 45 6.5 79.5t22 63.5t44.5 44.5t70 15.5t70 -15.5t44.5 -44.5t22 -63.5t6.5 -79.5q0 -200 -143 -200t-143 200zM98 625q0 -142 84 -142t84 142q0 144 -84 144t-84 -144z" />
    <glyph glyph-name="foursuperior" unicode="&#x2074;" horiz-adv-x="359" 
d="M276 509v-79h-59v79h-203l218 314h44v-258h56v-56h-56zM116 565h101v150z" />
    <glyph glyph-name="fivesuperior" unicode="&#x2075;" horiz-adv-x="340" 
d="M26 507l49 35q11 -28 35.5 -44t52.5 -16q39 0 62.5 21.5t23.5 53.5q0 33 -23 50.5t-52 17.5q-46 0 -111 -33l-18 23l35 207h201v-56h-152q-3 -17 -9 -48t-9 -48q30 13 63 13q56 0 94.5 -33t38.5 -93t-39.5 -96.5t-104.5 -36.5q-42 0 -80 22t-57 61z" />
    <glyph glyph-name="sixsuperior" unicode="&#x2076;" horiz-adv-x="338" 
d="M300 746l-53 -22q-22 46 -64 46q-38 0 -61.5 -37t-22.5 -95q24 47 80 47q54 0 89.5 -41t33.5 -96q-3 -54 -41 -90.5t-92 -34.5q-53 2 -88 38t-40 97q0 29 -1 64t8 71.5t22.5 66.5t43 48.5t69.5 17.5q83 -4 117 -80zM102 557q0 -31 20.5 -52t49.5 -22t49 18.5t22 49.5
q1 31 -17.5 52t-47.5 22q-31 1 -53 -18.5t-23 -49.5z" />
    <glyph glyph-name="sevensuperior" unicode="&#x2077;" horiz-adv-x="327" 
d="M314 823l-215 -393h-69l183 334h-174v59h275z" />
    <glyph glyph-name="eightsuperior" unicode="&#x2078;" horiz-adv-x="342" 
d="M65 725q0 43 30.5 73t75.5 30q46 0 77 -30t31 -73q0 -36 -29 -67q57 -37 57 -105q0 -54 -39 -91t-97 -37t-97 37t-39 91q0 69 56 105q-26 28 -26 67zM94 553q0 -29 22 -49.5t55 -20.5q32 0 54.5 20.5t22.5 49.5q0 30 -22.5 52.5t-54.5 22.5h-4q-31 0 -52 -23t-21 -52z
M124 725q0 -18 12.5 -32t31.5 -15h5q20 1 33 15t13 32t-14 31t-34 13t-33.5 -13t-13.5 -31z" />
    <glyph glyph-name="ninesuperior" unicode="&#x2079;" horiz-adv-x="338" 
d="M38 504l53 22q22 -46 64 -46q38 0 61.5 37t22.5 95q-24 -47 -80 -47q-54 0 -89.5 41t-33.5 96q3 54 41 90.5t92 34.5q53 -2 88 -38t40 -97q0 -29 1 -64t-8 -71.5t-22.5 -66.5t-43 -48.5t-69.5 -17.5q-83 4 -117 80zM236 693q0 31 -20.5 52t-49.5 22t-49 -18.5t-22 -49.5
q-1 -31 17.5 -52t47.5 -22q31 -1 53 18.5t23 49.5z" />
    <glyph glyph-name="zeroinferior" unicode="&#x2080;" horiz-adv-x="364" 
d="M39 49q0 45 6.5 79.5t22 63.5t44.5 44.5t70 15.5t70 -15.5t44.5 -44.5t22 -63.5t6.5 -79.5q0 -200 -143 -200t-143 200zM98 49q0 -142 84 -142t84 142q0 144 -84 144t-84 -144z" />
    <glyph glyph-name="oneinferior" unicode="&#x2081;" horiz-adv-x="207" 
d="M93 -146v305l-68 -35v57l128 70v-397h-60z" />
    <glyph glyph-name="twoinferior" unicode="&#x2082;" horiz-adv-x="325" 
d="M39 -118l158 191q27 34 27 61t-19 44t-47 17q-26 0 -46.5 -18t-24.5 -47l-53 14q7 49 42 78.5t82 29.5q53 0 88.5 -33t35.5 -85q0 -54 -43 -102l-101 -119h145v-59h-244v28z" />
    <glyph glyph-name="threeinferior" unicode="&#x2083;" horiz-adv-x="320" 
d="M87 162l-40 32q17 28 47 43.5t66 13.5q48 -2 79 -34t29 -74q0 -12 -3 -24q-11 -36 -43 -54q29 -11 47 -42t15 -63q-4 -50 -46.5 -82.5t-96.5 -28.5q-38 3 -69.5 25.5t-47.5 56.5l48 26q9 -21 29.5 -37t43.5 -17h-1q33 -2 58.5 16.5t26.5 47.5q1 28 -21.5 49t-53.5 21h-45
v52h45q20 0 35 13t19 32q4 25 -7 40q-13 21 -45 23q-43 4 -69 -35z" />
    <glyph glyph-name="fourinferior" unicode="&#x2084;" horiz-adv-x="360" 
d="M277 -67v-79h-59v79h-203l218 314h44v-258h56v-56h-56zM117 -11h101v150z" />
    <glyph glyph-name="fiveinferior" unicode="&#x2085;" horiz-adv-x="338" 
d="M26 -69l49 35q11 -28 35.5 -44t52.5 -16q39 0 62.5 21.5t23.5 53.5q0 33 -23 50.5t-52 17.5q-46 0 -111 -33l-18 23l35 207h201v-56h-152q-3 -17 -9 -48t-9 -48q30 13 63 13q56 0 94.5 -33t38.5 -93t-39.5 -96.5t-104.5 -36.5q-42 0 -80 22t-57 61z" />
    <glyph glyph-name="sixinferior" unicode="&#x2086;" horiz-adv-x="337" 
d="M300 170l-53 -22q-22 46 -64 46q-38 0 -61.5 -37t-22.5 -95q24 47 80 47q54 0 89.5 -41t33.5 -96q-3 -54 -41 -90.5t-92 -34.5q-53 2 -88 38t-40 97q0 29 -1 64t8 71.5t22.5 66.5t43 48.5t69.5 17.5q83 -4 117 -80zM102 -19q0 -31 20.5 -52t49.5 -22t49 18.5t22 49.5
q1 31 -17.5 52t-47.5 22q-31 1 -53 -18.5t-23 -49.5z" />
    <glyph glyph-name="seveninferior" unicode="&#x2087;" horiz-adv-x="320" 
d="M315 247l-215 -393h-69l183 334h-174v59h275z" />
    <glyph glyph-name="eightinferior" unicode="&#x2088;" horiz-adv-x="342" 
d="M65 149q0 43 30.5 73t75.5 30q46 0 77 -30t31 -73q0 -36 -29 -67q57 -37 57 -105q0 -54 -39 -91t-97 -37t-97 37t-39 91q0 69 56 105q-26 28 -26 67zM94 -23q0 -29 22 -49.5t55 -20.5q32 0 54.5 20.5t22.5 49.5q0 30 -22.5 52.5t-54.5 22.5h-4q-31 0 -52 -23t-21 -52z
M124 149q0 -18 12.5 -32t31.5 -15h5q20 1 33 15t13 32t-14 31t-34 13t-33.5 -13t-13.5 -31z" />
    <glyph glyph-name="nineinferior" unicode="&#x2089;" horiz-adv-x="338" 
d="M39 -72l53 22q22 -46 64 -46q38 0 61.5 37t22.5 95q-24 -47 -80 -47q-54 0 -89.5 41t-33.5 96q3 54 41 90.5t92 34.5q53 -2 88 -38t40 -97q0 -29 1 -64t-8 -71.5t-22.5 -66.5t-43 -48.5t-69.5 -17.5q-83 4 -117 80zM237 117q0 31 -20.5 52t-49.5 22t-49 -18.5t-22 -49.5
q-1 -31 17.5 -52t47.5 -22q31 -1 53 18.5t23 49.5z" />
    <glyph glyph-name="colonmonetary" unicode="&#x20a1;" horiz-adv-x="702" 
d="M311 0l-39 -109l-47 17l38 108q-42 17 -75 43l-47 -131l-47 16l53 150q-100 103 -100 249q0 138 90.5 238.5t224.5 113.5l39 110l47 -17l-33 -92q46 -2 86 -15l31 87l47 -16l-32 -89q60 -29 108 -83l-70 -58q-33 35 -69 54l-175 -490q27 -6 55 -6q116 0 191 88l70 -59
q-47 -56 -114.5 -87.5t-146.5 -31.5q-40 0 -85 10zM396 607h-13l-163 -457q33 -31 74 -49l176 494q-34 12 -74 12zM140 343q0 -81 43 -148l144 402q-83 -23 -135 -93.5t-52 -160.5z" />
    <glyph glyph-name="lira" unicode="&#x20a4;" horiz-adv-x="635" 
d="M144 398v104q0 86 60.5 140.5t144.5 54.5q83 0 140 -57.5t57 -151.5h-90q0 43 -20 73.5t-52 39.5q-24 7 -45 4q-42 -2 -74 -31t-32 -72v-104h153v-53h-153v-66h153v-53h-153v-136h244q17 0 17 22v57h90v-49q0 -53 -24.5 -86.5t-71.5 -33.5h-436v90h92v136h-76v53h76v66
h-76v53h76z" />
    <glyph glyph-name="uni20A6" unicode="&#x20a6;" horiz-adv-x="757" 
d="M622 0h-89l-151 250h-163v-250h-93v250h-69v55h69v74h-69v55h69v255h92l154 -255h157v255h93v-255h82v-55h-82v-74h82v-55h-82v-250zM219 379v-74h129l-44 74h-85zM405 379l45 -74h79v74h-124zM219 519v-85h51zM483 250l46 -76v76h-46z" />
    <glyph glyph-name="peseta" unicode="&#x20a7;" horiz-adv-x="745" 
d="M133 399h-80v55h80v49h-80v55h80v131h275q72 0 119.5 -36t68.5 -95h104v-55h-90q3 -21 3 -41v-8h87v-55h-95q-16 -64 -65 -102.5t-132 -38.5h-181v-258h-94v399zM520 454v8q0 18 -5 41h-288v-49h293zM227 345h175q76 0 104 54h-279v-54zM407 602h-180v-44h264
q-30 44 -84 44z" />
    <glyph glyph-name="rupee" unicode="&#x20a8;" horiz-adv-x="674" 
d="M185 258h-118v87h194q57 0 85 35t30 88h-309v55h303q-23 79 -105 79h-198l-1 87h560v-55h-216q46 -44 58 -111h158v-55h-154q-2 -82 -46.5 -140.5t-133.5 -66.5l184 -261h-113z" />
    <glyph glyph-name="uni20A9" unicode="&#x20a9;" horiz-adv-x="982" 
d="M195 274h-135v55h117l-34 100h-83v55h64l-69 205h100l66 -205h202l32 112h71l32 -112h202l66 205h100l-70 -205h66v-55h-84l-34 -100h118v-55h-136l-93 -274h-81l-78 274h-88l-77 -274h-81zM573 429l29 -100h108l32 100h-169zM238 429l32 -100h109l28 100h-169zM617 274
l36 -124l40 124h-76zM288 274l40 -124l35 124h-75zM489 429l-28 -100h58l-29 100h-1z" />
    <glyph glyph-name="afii57636" unicode="&#x20aa;" horiz-adv-x="751" 
d="M504 332v-167h-89v167q0 50 -34 83.5t-88 33.5h-107v-449h-90v538h197q94 0 152.5 -59t58.5 -147zM247 206v167h89v-167q0 -50 34 -83.5t88 -33.5h107v449h90v-538h-197q-94 0 -152.5 59t-58.5 147z" />
    <glyph glyph-name="Euro" unicode="&#x20ac;" horiz-adv-x="783" 
d="M519 365h-467v56h102q27 115 113.5 188.5t205.5 73.5q142 0 250 -110l-63 -63q-86 84 -187 84q-81 0 -141 -48.5t-83 -124.5h270v-56zM52 304h467v-55h-269q23 -74 83 -121.5t140 -47.5q103 0 188 85l63 -64q-108 -110 -251 -110q-118 0 -204 72t-114 186h-103v55z" />
    <glyph glyph-name="uni2113" unicode="&#x2113;" horiz-adv-x="393" 
d="M221 89h95v-89h-107q-137 0 -137 159v379q0 159 137 159q70 0 102 -43.5t32 -115.5v-190q0 -88 -39.5 -124t-142.5 -36v-29q0 -48 20 -61q16 -9 40 -9zM161 278h48q44 0 44 75v179q0 76 -44 76q-48 0 -48 -76v-254z" />
    <glyph glyph-name="afii61352" unicode="&#x2116;" horiz-adv-x="969" 
d="M655 558q0 54 38.5 92.5t93.5 38.5q54 0 92.5 -38.5t38.5 -92.5t-38.5 -92.5t-92.5 -38.5q-55 0 -93.5 38.5t-38.5 92.5zM723 558q0 -26 19 -45t45 -19t45 19t19 45t-19 45t-45 19t-45 -19t-19 -45zM660 338v47h253v-47h-253zM503 0h89v689h-93v-515l-311 515h-92v-689
h93v519z" />
    <glyph glyph-name="trademark" unicode="&#x2122;" horiz-adv-x="844" 
d="M66 681h357l123 -270l123 270h58l46 -383h-65l-32 268l-102 -227h-55l-104 227l-31 -268h-66l38 324h-106v-324h-68v324h-116v59z" />
    <glyph glyph-name="estimated" unicode="&#x212e;" horiz-adv-x="659" 
d="M611 279h-429v-193q66 -63 152 -63q76 0 123 33t87 94l31 -19q-44 -68 -99 -104.5t-142 -36.5q-119 0 -195 84.5t-76 205.5q0 123 75 206.5t200 83.5q124 0 198.5 -84.5t74.5 -206.5zM491 312v163q-68 62 -153 62q-96 0 -156 -62v-163h309z" />
    <glyph glyph-name="minus" unicode="&#x2212;" horiz-adv-x="576" 
d="M74 305h428v-82h-428v82z" />
    <glyph glyph-name="notequal" unicode="&#x2260;" horiz-adv-x="594" 
d="M311 197h216v-87h-259l-54 -110h-70l54 110h-131v87h173l52 106h-225v87h267l54 110h71l-54 -110h122v-87h-165z" />
    <glyph glyph-name="lessequal" unicode="&#x2264;" horiz-adv-x="654" 
d="M572 141l-506 194v87l506 194v-97l-380 -140l380 -142v-96zM75 80h497v-80h-497v80z" />
    <glyph glyph-name="greaterequal" unicode="&#x2265;" horiz-adv-x="654" 
d="M588 335l-506 -194v96l380 142l-380 140v97l506 -194v-87zM579 80h-497v-80h497v80z" />
    <glyph glyph-name="commaaccent" unicode="&#xf6c3;" horiz-adv-x="277" 
d="M128 -250l-58 19q31 42 41.5 78t4.5 96h90q1 -129 -78 -193z" />
    <glyph glyph-name="rupiah" unicode="&#xf6dd;" horiz-adv-x="1176" 
d="M363 261l184 -261h-113l-178 258h-88v-258h-94v689h265q102 0 153 -63t51 -153q0 -84 -44.5 -144t-135.5 -68zM336 602h-168v-257h164q59 0 87 37t28 91q0 53 -27.5 91t-83.5 38zM744 467v-73q23 39 68 61t95 22q98 0 166 -68t68 -177q0 -108 -67.5 -175t-166.5 -67
q-51 0 -96 20.5t-67 59.5v-297h-91v694h91zM745 231q0 -71 46 -111.5t107 -40.5q65 0 108 42t43 110q0 69 -43.5 113t-107.5 44t-108.5 -42.5t-44.5 -114.5z" />
    <glyph glyph-name="apple" unicode="&#xf8ff;" horiz-adv-x="847" 
d="M767 687v-687h-687v687h687zM164 595v-377h81l-74 75v178l255 -253l256 253v-178l-74 -75h84v377l-266 -263zM179 132h-15v-53h9v37l13 -37h10l11 37v-37h9v53h-14l-9 -36zM248 132q-25 0 -25 -27q0 -11 6.5 -18.5t18.5 -7.5q11 0 17 8t6 18q0 11 -6 19t-17 8zM248 89
q-7 0 -12 5.5t-5 10.5q0 6 5 11.5t12 5.5q12 0 12 -17q0 -16 -12 -16zM284 99h-13q0 -20 22 -20t22 17q0 11 -15 14q-16 3 -16 6q0 6 9 6q10 0 10 -6h9q0 16 -19 16t-19 -16q0 -8 16 -15q13 0 13 -5q0 -7 -10 -7q-9 0 -9 10zM315 122h17v-43h8v43h15v10h-40v-10zM377 132h-9
l-22 -53h12l4 13h22l3 -13h11zM374 119l7 -18h-16l6 18h3zM426 132h-28v-53h9v22h13q9 0 9 -9v-13h13q-3 3 -3 13q0 9 -7 13q7 3 7 11q0 16 -13 16zM420 108h-13v14h13q9 0 9 -6q0 -8 -9 -8zM466 132h-20v-53h20q25 0 25 29q0 24 -25 24zM466 89h-8v33h4q17 0 17 -17
q0 -6 -4 -11t-9 -5zM531 132h-37v-53h40v10h-28v12h25v9h-25v12h25v10zM543 99h-9q0 -20 22 -20t22 17q0 11 -15 14q-17 3 -17 6q0 6 7 6q12 0 12 -6h10q0 16 -19 16q-8 0 -15 -4.5t-7 -11.5t19 -15q12 0 12 -5q0 -7 -9 -7q-13 0 -13 10zM589 132h-7v-53h7v53zM633 86l4 -7
h6v29h-22v-9h12q-4 -10 -12 -10q-7 0 -11.5 5.5t-4.5 10.5q0 6 4.5 11.5t11.5 5.5q9 0 9 -10h13q-4 20 -22 20q-11 0 -18 -8t-7 -19q0 -10 7 -18t18 -8q9 0 12 7zM657 132h-8v-53h8v33l22 -33h13v53h-13v-33z" />
    <glyph glyph-name="published" horiz-adv-x="809" 
d="M369 280h67q55 0 84.5 35.5t29.5 79.5q0 48 -29.5 82t-84.5 34h-136v-353h69v122zM369 443h67q21 0 32 -14t11 -34t-11.5 -33.5t-33.5 -13.5h-65v95zM55 343q0 147 101.5 250.5t247.5 103.5t248 -103.5t102 -250.5t-102 -250t-248 -103t-247.5 103t-101.5 250zM116 343
q0 -121 84 -206t204 -85t204 85t84 206t-84 206.5t-204 85.5t-204 -85.5t-84 -206.5z" />
    <glyph glyph-name="frenchfranc" horiz-adv-x="726" 
d="M478 116v-116h-91v330h-200v-330h-90v676h392v-90h-302v-166h291v-112q34 115 130 115q55 0 81 -18l-14 -85q-33 16 -69 16q-64 0 -96 -60.5t-32 -159.5z" />
    <glyph glyph-name="parenleft.case" horiz-adv-x="363" 
d="M49 348q0 215 74.5 340t199.5 125v-89q-86 0 -137.5 -102t-51.5 -274t51.5 -274t137.5 -102v-89q-125 0 -199.5 125t-74.5 340z" />
    <glyph glyph-name="parenright.case" horiz-adv-x="363" 
d="M314 348q0 -215 -74.5 -340t-199.5 -125v89q86 0 137.5 102t51.5 274t-51.5 274t-137.5 102v89q125 0 199.5 -125t74.5 -340z" />
    <glyph glyph-name="hyphen.case" horiz-adv-x="486" 
d="M69 394h348v-87h-348v87z" />
    <glyph glyph-name="at.case" horiz-adv-x="971" 
d="M601 354q0 54 -37.5 91.5t-91.5 37.5t-91.5 -37.5t-37.5 -91.5q0 -53 38 -90.5t91 -37.5q51 0 99 48v-85q-48 -34 -99 -34q-83 0 -141.5 58.5t-58.5 140.5q0 83 58.5 141.5t141.5 58.5q80 0 138 -55q59 -56 62 -136v-145q0 -66 72 -66q34 0 58.5 21.5t36.5 56t17 68
t5 68.5q0 150 -111.5 250.5t-267.5 100.5q-152 0 -256.5 -107.5t-104.5 -260.5t104 -259t257 -106h23v-71h-23q-182 0 -307 126.5t-125 309.5q0 182 125.5 310.5t306.5 128.5q121 0 224 -54t165 -151.5t62 -216.5q0 -47 -10 -94t-31 -91t-59.5 -71.5t-88.5 -27.5
q-62 0 -102.5 33.5t-40.5 109.5v129z" />
    <glyph glyph-name="bracketleft.case" horiz-adv-x="327" 
d="M84 -107v916h201v-83h-111v-750h111v-83h-201z" />
    <glyph glyph-name="bracketright.case" horiz-adv-x="327" 
d="M243 807v-916h-201v83h111v750h-111v83h201z" />
    <glyph glyph-name="braceleft.case" horiz-adv-x="400" 
d="M186 255v-174q0 -49 32 -83t76 -34h67v-79h-64q-83 0 -140 54t-57 142v174q0 20 -18.5 35.5t-42.5 15.5v81q24 0 42.5 15.5t18.5 35.5v176q-1 88 56 141.5t141 53.5h64v-79h-67q-45 0 -76.5 -34t-31.5 -82v-176q0 -28 -13 -54t-36 -38q21 -12 35 -38.5t14 -52.5z" />
    <glyph glyph-name="braceright.case" horiz-adv-x="400" 
d="M214 81v174q0 26 14 52.5t35 38.5q-23 12 -36 38t-13 54v176q0 48 -31.5 82t-76.5 34h-67v79h64q84 0 141 -53.5t56 -141.5v-176q0 -20 18.5 -35.5t42.5 -15.5v-81q-24 0 -42.5 -15.5t-18.5 -35.5v-174q0 -88 -57 -142t-140 -54h-64v79h67q44 0 76 34t32 83z" />
    <glyph glyph-name="exclamdown.case" horiz-adv-x="263" 
d="M168 502l9 -503h-90l10 503h71zM66 635q0 27 19 44.5t46 17.5t46.5 -17.5t19.5 -44.5t-19.5 -45t-46.5 -18t-46 18t-19 45z" />
    <glyph glyph-name="guillemotleft.case" horiz-adv-x="515" 
d="M57 350l138 207h79l-138 -207l138 -207h-79zM233 350l138 207h79l-138 -207l138 -207h-79z" />
    <glyph glyph-name="periodcentered.case" horiz-adv-x="268" 
d="M69 353q0 27 19 45t46 18t46.5 -18t19.5 -45t-19.5 -44.5t-46.5 -17.5t-46 17.5t-19 44.5z" />
    <glyph glyph-name="guillemotright.case" horiz-adv-x="515" 
d="M458 350l-138 -207h-79l138 207l-138 207h79zM282 350l-138 -207h-79l138 207l-138 207h79z" />
    <glyph glyph-name="questiondown.case" horiz-adv-x="482" 
d="M350 199h90q0 -94 -57 -151.5t-140 -57.5q-84 0 -144.5 54t-60.5 141q0 70 41 120t103 69q36 11 53.5 26t17.5 47l2 59h88v-59q0 -68 -34.5 -103.5t-99.5 -55.5q-27 -8 -48 -30q-34 -30 -34 -73q0 -47 35 -76.5t81 -29.5q45 0 76 33t31 87zM364 635q0 -27 -19.5 -45
t-46.5 -18t-46 18t-19 45t19 44.5t46 17.5t46.5 -17.5t19.5 -44.5z" />
    <glyph glyph-name="endash.case" horiz-adv-x="597" 
d="M72 389h453v-78h-453v78z" />
    <glyph glyph-name="emdash.case" horiz-adv-x="803" 
d="M72 389h659v-78h-659v78z" />
    <glyph glyph-name="bullet.case" horiz-adv-x="463" 
d="M82 350q0 61 44 101.5t106 40.5t105.5 -40.5t43.5 -101.5t-43.5 -102t-105.5 -41t-106 41t-44 102z" />
    <glyph glyph-name="guilsinglleft.case" horiz-adv-x="339" 
d="M57 350l138 207h79l-138 -207l138 -207h-79z" />
    <glyph glyph-name="guilsinglright.case" horiz-adv-x="339" 
d="M282 350l-138 -207h-79l138 207l-138 207h79z" />
    <glyph glyph-name="cent.case" horiz-adv-x="533" 
d="M252 0v107q-87 15 -144 80t-57 161q0 95 57 159t144 79v103h62v-100q99 -5 164 -74l-69 -58q-44 44 -111 44q-65 0 -111 -42.5t-46 -110.5q0 -69 46 -113t111 -44q67 0 111 46l70 -58q-63 -69 -165 -75v-104h-62z" />
    <glyph glyph-name="zero.tnum" 
d="M53 325q0 74 11 131.5t36.5 105.5t73.5 73.5t116 25.5q69 0 116.5 -25.5t73 -73.5t36 -105t10.5 -132q0 -74 -10.5 -130.5t-36 -104.5t-73.5 -73.5t-116 -25.5q-55 0 -96.5 17.5t-68 47t-43 73t-23 91t-6.5 105.5zM143 325q0 -114 32.5 -179.5t114.5 -65.5t114.5 65.5
t32.5 179.5q0 115 -32.5 180.5t-114.5 65.5t-114.5 -65.5t-32.5 -180.5z" />
    <glyph glyph-name="one.tnum" 
d="M271 0v539l-106 -37v86l196 71v-659h-90z" />
    <glyph glyph-name="two.tnum" 
d="M86 40l265 321q48 56 48 107q0 46 -33.5 74.5t-82.5 28.5q-45 0 -78 -27.5t-40 -75.5l-87 21q13 78 70 125t135 47q87 0 146 -54t59 -139q0 -88 -71 -169l-177 -209h249v-90h-403v40z" />
    <glyph glyph-name="three.tnum" 
d="M170 513l-67 53q27 47 78 73.5t111 22.5q79 -4 130.5 -57.5t49.5 -123.5q0 -19 -6 -40q-18 -59 -71 -89q49 -18 78.5 -70t24.5 -106q-7 -83 -77.5 -137t-161.5 -47q-64 4 -116 41.5t-78 94.5l79 43q16 -35 50 -61t72 -29h-1q55 -3 97.5 28.5t44.5 78.5q1 47 -36.5 82
t-89.5 35h-74v87h74q34 -1 59 20.5t31 54.5q7 41 -11 67q-23 35 -76 38q-70 6 -114 -59z" />
    <glyph glyph-name="four.tnum" 
d="M449 134v-134h-89v134h-340l362 519h67v-434h94v-85h-94zM173 219h187v272z" />
    <glyph glyph-name="five.tnum" 
d="M56 139l77 42q19 -48 56.5 -76t83.5 -28q78 0 117.5 37t39.5 96q0 60 -38.5 92.5t-96.5 32.5q-42 0 -76 -11.5t-86 -42.5l-56 46l57 325h348v-86h-274l-36 -185q22 16 57.5 27t65.5 11q95 0 159 -55.5t64 -153.5q0 -100 -67.5 -160t-177.5 -60q-69 0 -128 40.5t-89 108.5
z" />
    <glyph glyph-name="six.tnum" 
d="M504 535l-80 -34q-37 75 -111 75q-68 0 -108.5 -64.5t-31.5 -163.5q29 74 134 74q87 0 146 -67.5t56 -156.5q-5 -89 -68 -150t-151 -57q-87 4 -143.5 63.5t-64.5 160.5q-9 123 11 247q15 90 75.5 146t148.5 53q62 -3 109.5 -30.5t77.5 -95.5zM172 212q0 -54 35.5 -91
t86.5 -39t87.5 32.5t38.5 87.5t-31 90.5t-85 39.5t-91 -32.5t-41 -87.5z" />
    <glyph glyph-name="seven.tnum" 
d="M538 653l-358 -653h-105l311 564h-299v89h451z" />
    <glyph glyph-name="eight.tnum" 
d="M116 494q0 70 50 118.5t124 48.5t125 -48.5t51 -118.5q0 -69 -51 -115q47 -29 73.5 -75t26.5 -100q0 -89 -65 -151t-160 -62q-96 0 -160.5 61.5t-64.5 151.5q0 54 26.5 100.5t72.5 74.5q-48 46 -48 115zM155 204q0 -52 39 -88t96 -36t96 36t39 88t-39 89t-96 37h-7
q-54 -1 -91 -38.5t-37 -87.5zM205 494q0 -32 23 -55.5t57 -24.5h8q36 1 59.5 24.5t23.5 55.5t-24.5 54.5t-61.5 22.5q-36 0 -60.5 -22.5t-24.5 -54.5z" />
    <glyph glyph-name="nine.tnum" 
d="M75 116l80 34q37 -75 111 -75q68 0 108.5 64.5t31.5 163.5q-29 -74 -134 -74q-87 0 -146 67.5t-56 156.5q5 89 68 150t151 57q87 -4 143.5 -63.5t64.5 -160.5q9 -122 -11 -248v1q-15 -90 -75.5 -146t-148.5 -53q-62 3 -109.5 30.5t-77.5 95.5zM407 439q0 54 -35.5 91
t-86.5 39t-87.5 -32.5t-38.5 -87.5t31 -90.5t85 -39.5t91 32.5t41 87.5z" />
    <glyph glyph-name="zero.taboldstyle" 
d="M289 -10q-100 0 -171 72t-71 186q0 115 71 186t171 71q102 0 173 -71t71 -186q0 -114 -71.5 -186t-172.5 -72zM289 79q64 0 109 47t45 122q0 74 -45 120.5t-109 46.5t-108.5 -46.5t-44.5 -120.5q0 -75 45 -122t108 -47z" />
    <glyph glyph-name="one.taboldstyle" 
d="M387 516v-516h-90v370l-148 -77v95z" />
    <glyph glyph-name="two.taboldstyle" 
d="M100 41l235 254q36 36 36 66q0 27 -23.5 44.5t-59.5 17.5q-34 0 -57 -20t-26 -54l-88 15q7 67 57 108t118 41q75 0 123.5 -43t48.5 -109q0 -12 -2 -24t-4.5 -20.5t-9 -20.5l-9.5 -17.5t-13.5 -18.5l-13.5 -16.5l-16.5 -18.5t-16.5 -18l-113 -117h199v-90h-365v41z" />
    <glyph glyph-name="six.taboldstyle" 
d="M504 535l-80 -34q-37 75 -111 75q-68 0 -108.5 -64.5t-31.5 -163.5q29 74 134 74q87 0 146 -67.5t56 -156.5q-5 -89 -68 -150t-151 -57q-87 4 -143.5 63.5t-64.5 160.5q-9 123 11 247q15 90 75.5 146t148.5 53q62 -3 109.5 -30.5t77.5 -95.5zM172 212q0 -54 35.5 -91
t86.5 -39t87.5 32.5t38.5 87.5t-31 90.5t-85 39.5t-91 -32.5t-41 -87.5z" />
    <glyph glyph-name="eight.taboldstyle" 
d="M116 494q0 70 50 118.5t124 48.5t125 -48.5t51 -118.5q0 -69 -51 -115q47 -29 73.5 -75t26.5 -100q0 -89 -65 -151t-160 -62q-96 0 -160.5 61.5t-64.5 151.5q0 54 26.5 100.5t72.5 74.5q-48 46 -48 115zM155 204q0 -52 39 -88t96 -36t96 36t39 88t-39 89t-96 37h-7
q-54 -1 -91 -38.5t-37 -87.5zM205 494q0 -32 23 -55.5t57 -24.5h8q36 1 59.5 24.5t23.5 55.5t-24.5 54.5t-61.5 22.5q-36 0 -60.5 -22.5t-24.5 -54.5z" />
    <glyph glyph-name="three.taboldstyle" 
d="M173 325l-67 53q27 47 78 73.5t111 22.5q79 -4 130.5 -57.5t49.5 -123.5q0 -19 -6 -40q-18 -59 -71 -89q49 -18 78.5 -70t24.5 -106q-7 -83 -77.5 -137t-161.5 -47q-64 4 -116 41.5t-78 94.5l79 43q16 -35 50 -61t72 -29h-1q55 -3 97.5 28.5t44.5 78.5q1 47 -36.5 82
t-89.5 35h-74v87h74q34 -1 59 20.5t31 54.5q7 41 -11 67q-23 35 -76 38q-70 6 -114 -59z" />
    <glyph glyph-name="four.taboldstyle" 
d="M449 -53v-134h-89v134h-340l362 519h67v-434h94v-85h-94zM173 32h187v272z" />
    <glyph glyph-name="five.taboldstyle" 
d="M57 -48l77 42q19 -48 56.5 -76t83.5 -28q78 0 117.5 37t39.5 96q0 60 -38.5 92.5t-96.5 32.5q-42 0 -76 -11.5t-86 -42.5l-56 46l57 325h348v-86h-274l-36 -185q22 16 57.5 27t65.5 11q95 0 159 -55.5t64 -153.5q0 -100 -67.5 -160t-177.5 -60q-69 0 -128 40.5t-89 108.5
z" />
    <glyph glyph-name="seven.taboldstyle" 
d="M539 465l-358 -653h-105l311 564h-299v89h451z" />
    <glyph glyph-name="nine.taboldstyle" 
d="M80 -73l80 34q37 -75 111 -75q68 0 108.5 64.5t31.5 163.5q-29 -74 -134 -74q-87 0 -146 67.5t-56 156.5q5 89 68 150t151 57q87 -4 143.5 -63.5t64.5 -160.5q9 -122 -11 -248v1q-15 -90 -75.5 -146t-148.5 -53q-62 3 -109.5 30.5t-77.5 95.5zM412 250q0 54 -35.5 91
t-86.5 39t-87.5 -32.5t-38.5 -87.5t31 -90.5t85 -39.5t91 32.5t41 87.5z" />
    <glyph glyph-name="zero.oldstyle" horiz-adv-x="592" 
d="M295 -10q-100 0 -171 72t-71 186q0 115 71 186t171 71q102 0 173 -71t71 -186q0 -114 -71.5 -186t-172.5 -72zM295 79q64 0 109 47t45 122q0 74 -45 120.5t-109 46.5t-108.5 -46.5t-44.5 -120.5q0 -75 45 -122t108 -47z" />
    <glyph glyph-name="one.oldstyle" horiz-adv-x="365" 
d="M280 516v-516h-90v370l-148 -77v95z" />
    <glyph glyph-name="two.oldstyle" horiz-adv-x="475" 
d="M48 41l235 254q36 36 36 66q0 27 -23.5 44.5t-59.5 17.5q-34 0 -57 -20t-26 -54l-88 15q7 67 57 108t118 41q75 0 123.5 -43t48.5 -109q0 -12 -2 -24t-4.5 -20.5t-9 -20.5l-9.5 -17.5t-13.5 -18.5l-13.5 -16.5l-16.5 -18.5t-16.5 -18l-113 -117h199v-90h-365v41z" />
    <glyph glyph-name="three.oldstyle" horiz-adv-x="515" 
d="M140 325l-67 53q27 47 78 73.5t111 22.5q79 -4 130.5 -57.5t49.5 -123.5q0 -19 -6 -40q-18 -59 -71 -89q49 -18 78.5 -70t24.5 -106q-7 -83 -77.5 -137t-161.5 -47q-64 4 -116 41.5t-78 94.5l79 43q16 -35 50 -61t72 -29h-1q55 -3 97.5 28.5t44.5 78.5q1 47 -36.5 82
t-89.5 35h-74v87h74q34 -1 59 20.5t31 54.5q7 41 -11 67q-23 35 -76 38q-70 6 -114 -59z" />
    <glyph glyph-name="four.oldstyle" 
d="M449 -53v-134h-89v134h-340l362 519h67v-434h94v-85h-94zM173 32h187v272z" />
    <glyph glyph-name="five.oldstyle" horiz-adv-x="548" 
d="M41 -48l77 42q19 -48 56.5 -76t83.5 -28q78 0 117.5 37t39.5 96q0 60 -38.5 92.5t-96.5 32.5q-42 0 -76 -11.5t-86 -42.5l-56 46l57 325h348v-86h-274l-36 -185q22 16 57.5 27t65.5 11q95 0 159 -55.5t64 -153.5q0 -100 -67.5 -160t-177.5 -60q-69 0 -128 40.5t-89 108.5
z" />
    <glyph glyph-name="six.oldstyle" horiz-adv-x="556" 
d="M492 535l-80 -34q-37 75 -111 75q-68 0 -108.5 -64.5t-31.5 -163.5q29 74 134 74q87 0 146 -67.5t56 -156.5q-5 -89 -68 -150t-151 -57q-87 4 -143.5 63.5t-64.5 160.5q-9 123 11 247q15 90 75.5 146t148.5 53q62 -3 109.5 -30.5t77.5 -95.5zM160 212q0 -54 35.5 -91
t86.5 -39t87.5 32.5t38.5 87.5t-31 90.5t-85 39.5t-91 -32.5t-41 -87.5z" />
    <glyph glyph-name="seven.oldstyle" horiz-adv-x="506" 
d="M502 465l-358 -653h-105l311 564h-299v89h451z" />
    <glyph glyph-name="eight.oldstyle" horiz-adv-x="562" 
d="M107 494q0 70 50 118.5t124 48.5t125 -48.5t51 -118.5q0 -69 -51 -115q47 -29 73.5 -75t26.5 -100q0 -89 -65 -151t-160 -62q-96 0 -160.5 61.5t-64.5 151.5q0 54 26.5 100.5t72.5 74.5q-48 46 -48 115zM146 204q0 -52 39 -88t96 -36t96 36t39 88t-39 89t-96 37h-7
q-54 -1 -91 -38.5t-37 -87.5zM196 494q0 -32 23 -55.5t57 -24.5h8q36 1 59.5 24.5t23.5 55.5t-24.5 54.5t-61.5 22.5q-36 0 -60.5 -22.5t-24.5 -54.5z" />
    <glyph glyph-name="nine.oldstyle" horiz-adv-x="534" 
d="M57 -73l80 34q37 -75 111 -75q68 0 108.5 64.5t31.5 163.5q-29 -74 -134 -74q-87 0 -146 67.5t-56 156.5q5 89 68 150t151 57q87 -4 143.5 -63.5t64.5 -160.5q9 -122 -11 -248v1q-15 -90 -75.5 -146t-148.5 -53q-62 3 -109.5 30.5t-77.5 95.5zM389 250q0 54 -35.5 91
t-86.5 39t-87.5 -32.5t-38.5 -87.5t31 -90.5t85 -39.5t91 32.5t41 87.5z" />
    <glyph glyph-name="Lslash.sc" horiz-adv-x="434" 
d="M177 388l87 54v-63l-87 -55v-241h235v-83h-319v272l-54 -35v64l54 35v248h84v-196z" />
    <glyph glyph-name="Zcaron.sc" horiz-adv-x="507" 
d="M45 72l302 433h-290v79h399v-72l-305 -432h305v-80h-411v72zM249 715l63 71h75l-97 -134h-80l-98 134h76z" />
    <glyph glyph-name="exclam.sc" horiz-adv-x="262" 
d="M172 584l-8 -429h-65l-8 429h81zM79 46q0 22 15 36.5t36 14.5q22 0 37 -14.5t15 -36.5q0 -20 -15 -34.5t-37 -14.5q-21 0 -36 14.5t-15 34.5z" />
    <glyph glyph-name="ampersand.sc" horiz-adv-x="577" 
d="M252 360h110v74h78v-75h73v-67h-73v-112q0 -53 18 -82t70 -29v-77q-45 0 -81.5 16.5t-55.5 42.5q-51 -59 -141 -59q-84 0 -138.5 54t-54.5 134q0 99 84 154q-38 38 -38 102q0 62 44 105t109 43q44 0 82.5 -23.5t61.5 -62.5l-68 -43q-31 51 -76 51q-32 0 -53.5 -20
t-21.5 -50t20.5 -53t50.5 -23zM362 292h-111q-48 0 -81.5 -34t-33.5 -78q0 -46 32 -77.5t82 -31.5q47 0 78.5 30t33.5 74v117z" />
    <glyph glyph-name="question.sc" horiz-adv-x="426" 
d="M121 410h-78q0 81 49 130.5t120 49.5q72 0 123.5 -45.5t51.5 -119.5q0 -60 -35.5 -103t-87.5 -59q-29 -9 -43.5 -21.5t-14.5 -37.5l-1 -49h-80v49q0 58 29.5 89t84.5 48q27 7 47.5 31t20.5 53q0 37 -29 61t-66 24t-64 -27.5t-27 -72.5zM107 47q0 24 17 40.5t41 16.5
q25 0 41.5 -16t16.5 -41q0 -24 -16.5 -39.5t-41.5 -15.5q-24 0 -41 15.5t-17 39.5z" />
    <glyph glyph-name="A.sc" horiz-adv-x="570" 
d="M193 223h184l-92 244zM406 147h-241l-32 -83.5l-24 -63.5h-90l222 584h88l222 -584h-89z" />
    <glyph glyph-name="B.sc" horiz-adv-x="553" 
d="M470 431q0 -86 -66 -119q44 -13 70.5 -55t26.5 -87q0 -72 -47 -121t-125 -49h-240v584h221q74 0 117 -41t43 -112zM174 345h136q35 0 54.5 24t19.5 60t-22 56.5t-61 20.5h-127v-161zM323 270h-149v-191h151q40 0 65 27.5t25 64.5q0 36 -26 67.5t-66 31.5z" />
    <glyph glyph-name="C.sc" horiz-adv-x="600" 
d="M508 148l63 -53q-41 -48 -99 -76t-124 -28q-124 0 -210.5 87.5t-86.5 212.5t86.5 212t210.5 87q134 0 221 -100l-62 -53q-67 72 -159 72q-90 0 -151.5 -63.5t-61.5 -154.5t61.5 -154.5t151.5 -63.5q95 0 160 75z" />
    <glyph glyph-name="D.sc" horiz-adv-x="633" 
d="M316 0h-227v584h227q122 0 192.5 -82.5t70.5 -210.5t-70.5 -209.5t-192.5 -81.5zM173 79h143q86 0 132.5 59t46.5 153t-47 154.5t-132 60.5h-143v-427z" />
    <glyph glyph-name="E.sc" horiz-adv-x="499" 
d="M89 584h348v-78h-264v-179h231v-79h-231v-169h272v-79h-356v584z" />
    <glyph glyph-name="F.sc" horiz-adv-x="464" 
d="M89 584h343v-78h-259v-179h205v-79h-205v-248h-84v584z" />
    <glyph glyph-name="G.sc" horiz-adv-x="659" 
d="M545 511l-60 -56q-58 55 -139 55q-89 0 -150 -64t-61 -155t61 -155t150 -64q77 0 127 40.5t54 109.5h-164v74h259q0 -151 -73.5 -228t-202.5 -77q-125 0 -210 87.5t-85 212.5t85 212t210 87q117 0 199 -79z" />
    <glyph glyph-name="H.sc" horiz-adv-x="620" 
d="M531 584v-584h-85v252h-273v-252h-84v584h84v-255h273v255h85z" />
    <glyph glyph-name="I.sc" horiz-adv-x="262" 
d="M89 584h84v-584h-84v584z" />
    <glyph glyph-name="J.sc" horiz-adv-x="262" 
d="M-74 -201l8 81q22 -8 59 -8q50 0 73 30t23 78v604h84v-604q0 -84 -43.5 -137t-136.5 -53q-22 0 -67 9z" />
    <glyph glyph-name="K.sc" horiz-adv-x="515" 
d="M238 292l276 -292h-115l-226 242v-242h-84v584h84v-244l187 244h102z" />
    <glyph glyph-name="L.sc" horiz-adv-x="430" 
d="M89 584h84v-505h236v-79h-320v584z" />
    <glyph glyph-name="M.sc" horiz-adv-x="810" 
d="M404 165l203 419h76l71 -584h-84l-51 427l-177 -363h-73l-178 363l-52 -427h-83l71 584h76z" />
    <glyph glyph-name="N.sc" horiz-adv-x="601" 
d="M512 0h-80l-259 428v-428h-84v584h82l257 -423v423h84v-584z" />
    <glyph glyph-name="O.sc" horiz-adv-x="694" 
d="M51 291q0 125 85 212t210 87t211 -87t86 -212t-86 -212.5t-211 -87.5t-210 87.5t-85 212.5zM135 291q0 -91 61 -154.5t150 -63.5t150.5 63.5t61.5 154.5t-61.5 154.5t-150.5 63.5t-150 -63.5t-61 -154.5z" />
    <glyph glyph-name="P.sc" horiz-adv-x="534" 
d="M89 584h234q87 0 131 -54t44 -130q0 -78 -44 -131t-131 -53h-149v-216h-85v584zM322 506h-148v-211h144q48 0 72 31t24 74t-23.5 74.5t-68.5 31.5z" />
    <glyph glyph-name="Q.sc" horiz-adv-x="694" 
d="M507 39l60 -96l-66 -42l-65 104q-49 -14 -90 -14q-125 0 -210 87.5t-85 212.5t85 212t210 87t211 -87t86 -212q0 -77 -37 -144t-99 -108zM396 215l65 -105q45 29 71 76.5t26 104.5q0 91 -61.5 154.5t-150.5 63.5t-150 -63.5t-61 -154.5q0 -83 57 -145t139 -70q40 0 58 3
l-29 47t-29 48z" />
    <glyph glyph-name="R.sc" horiz-adv-x="546" 
d="M340 220l155 -220h-102l-149 216h-70v-216h-85v584h225q86 0 130.5 -54t44.5 -130q0 -72 -37 -122.5t-112 -57.5zM312 506h-138v-211h134q48 0 71 30.5t23 74.5t-22.5 75t-67.5 31z" />
    <glyph glyph-name="S.sc" horiz-adv-x="505" 
d="M53 173h85q0 -41 34 -72t86 -31q51 0 80 24t34 58q6 41 -23.5 66t-72.5 35l-75 19q-142 34 -142 154q0 72 56.5 118t133.5 46q82 0 135.5 -47.5t53.5 -126.5h-84q0 42 -30 68t-76 26q-43 0 -74 -23.5t-31 -60.5q0 -57 80 -77l75 -19q82 -21 123 -69t34 -116
q-10 -65 -63 -109.5t-134 -44.5q-88 0 -146.5 54.5t-58.5 127.5z" />
    <glyph glyph-name="T.sc" horiz-adv-x="482" 
d="M23 584h436v-79h-176v-505h-85v505h-175v79z" />
    <glyph glyph-name="U.sc" horiz-adv-x="595" 
d="M297 73q54 0 92.5 36t38.5 92v383h84v-383q0 -93 -62.5 -151.5t-152.5 -58.5q-89 0 -151.5 58.5t-62.5 151.5v383h85v-383q0 -56 38 -92t91 -36z" />
    <glyph glyph-name="V.sc" horiz-adv-x="498" 
d="M120 584l130 -438l128 438h87l-176 -584h-79l-177 584h87z" />
    <glyph glyph-name="W.sc" horiz-adv-x="785" 
d="M672 584h90l-198 -584h-72l-100 352l-99 -352h-72l-198 584h90l143 -446l105 368h63l105 -368z" />
    <glyph glyph-name="X.sc" horiz-adv-x="546" 
d="M324 313l204 -313h-102l-153 242l-153 -242h-101l203 314l-181 270h101l131 -200l132 200h100z" />
    <glyph glyph-name="Y.sc" horiz-adv-x="563" 
d="M324 0h-86v268l-222 316h99l165 -233l167 233h102l-225 -316v-268z" />
    <glyph glyph-name="Z.sc" horiz-adv-x="507" 
d="M45 72l302 433h-290v79h399v-72l-305 -432h305v-80h-411v72z" />
    <glyph glyph-name="Scaron.sc" horiz-adv-x="505" 
d="M254 715l63 71h76l-98 -134h-80l-98 134h76zM138 173h-85q0 -73 58.5 -127.5t146.5 -54.5q81 0 134 44.5t63 109.5q7 68 -34 116t-123 69l-75 19q-80 20 -80 77q0 37 31 60.5t74 23.5q46 0 76 -26t30 -68h84q0 79 -53.5 126.5t-135.5 47.5q-77 0 -133.5 -46t-56.5 -118
q0 -120 142 -154l75 -19q43 -10 72.5 -35t23.5 -66q-5 -34 -34 -58t-80 -24q-52 0 -86 31t-34 72z" />
    <glyph glyph-name="OE.sc" horiz-adv-x="964" 
d="M554 584h347v-83h-263v-173h230v-83h-230v-162h272v-83h-356v86q-85 -95 -210 -95q-124 0 -208.5 87.5t-84.5 212.5t84.5 212t208.5 87q126 0 210 -94v88zM134 291q0 -90 60.5 -152.5t149.5 -62.5q82 0 142.5 61t67.5 144v19q-7 84 -67.5 145t-142.5 61
q-89 0 -149.5 -62.5t-60.5 -152.5z" />
    <glyph glyph-name="Ydieresis.sc" horiz-adv-x="563" 
d="M324 0h-86v268l-222 316h99l165 -233l167 233h102l-225 -316v-268zM156 718q0 22 16 37t39 15t38.5 -15t15.5 -37q0 -23 -15.5 -38t-38.5 -15t-39 15t-16 38zM298 718q0 22 16 37t39 15t39 -15t16 -37q0 -23 -16 -38t-39 -15t-39 15t-16 38z" />
    <glyph glyph-name="exclamdown.sc" horiz-adv-x="264" 
d="M75 536q0 24 16.5 39.5t40.5 15.5q25 0 41.5 -15.5t16.5 -39.5t-16.5 -40t-41.5 -16q-24 0 -40.5 16t-16.5 40zM91 0l8 429h65l8 -429h-81z" />
    <glyph glyph-name="questiondown.sc" horiz-adv-x="426" 
d="M312 -14h81q0 -81 -49 -131t-119 -50q-72 0 -123.5 46t-51.5 120q0 57 35.5 100.5t86.5 60.5q29 10 44 22.5t15 36.5l1 53h80v-53q0 -58 -29.5 -88.5t-85.5 -48.5q-23 -6 -38 -23q-28 -26 -28 -60q0 -38 28 -62t66 -24q36 0 61.5 28t25.5 73zM329 351q0 -24 -16.5 -40
t-41.5 -16t-41 16t-16 40t16 39.5t41 15.5t41.5 -15.5t16.5 -39.5z" />
    <glyph glyph-name="Agrave.sc" horiz-adv-x="570" 
d="M193 223h184l-92 244zM406 147h-241l-32 -83.5l-24 -63.5h-90l222 584h88l222 -584h-89zM253 652l-105 134h99l86 -134h-80z" />
    <glyph glyph-name="Aacute.sc" horiz-adv-x="570" 
d="M424 780l-104 -134h-80l85 134h99zM377 223h-184l92 244zM165 147h241l56 -147h89l-222 584h-88l-222 -584h90l24 63.5z" />
    <glyph glyph-name="Acircumflex.sc" horiz-adv-x="570" 
d="M193 223h184l-92 244zM406 147h-241l-32 -83.5l-24 -63.5h-90l222 584h88l222 -584h-89zM346 652l-62 72l-61 -72h-75l97 134h80l98 -134h-77z" />
    <glyph glyph-name="Atilde.sc" horiz-adv-x="570" 
d="M193 223h184l-92 244zM406 147h-241l-32 -83.5l-24 -63.5h-90l222 584h88l222 -584h-89zM247 698q-19 0 -20 -36h-57q3 54 25.5 78.5t51.5 24.5q21 0 45 -18l-1 1q1 0 3 -2l3 -3q18 -12 25 -12q19 0 20 34h57q-3 -54 -25.5 -78t-51.5 -24q-24 0 -50 22l-10 6q-10 7 -15 7
z" />
    <glyph glyph-name="Adieresis.sc" horiz-adv-x="570" 
d="M159 718q0 22 16 37t39 15t38.5 -15t15.5 -37q0 -23 -15.5 -38t-38.5 -15t-39 15t-16 38zM301 718q0 22 15.5 37t38.5 15t39.5 -15t16.5 -37q0 -23 -16 -38t-40 -15q-23 0 -38.5 15t-15.5 38zM377 223h-184l92 244zM165 147h241l56 -147h89l-222 584h-88l-222 -584h90
l24 63.5z" />
    <glyph glyph-name="Aring.sc" horiz-adv-x="570" 
d="M193 731q0 39 26 65t64 26q40 0 66.5 -26t26.5 -65q0 -38 -26.5 -64t-66.5 -26q-38 0 -64 26t-26 64zM244 731q0 -16 11.5 -28t27.5 -12q18 0 30.5 11.5t12.5 28.5t-12.5 29t-30.5 12q-16 0 -27.5 -12t-11.5 -29zM377 223h-184l92 244zM165 147h241l56 -147h89l-222 584
h-88l-222 -584h90l24 63.5z" />
    <glyph glyph-name="AE.sc" horiz-adv-x="814" 
d="M204 145l-93 -145h-100l370 584h370v-83h-263v-173h229v-83h-229v-162h272v-83h-356v145h-200zM254 226h150v235z" />
    <glyph glyph-name="Ccedilla.sc" horiz-adv-x="601" 
d="M282 -94q5 -11 16.5 -16.5t22.5 -1.5q24 11 15 41l-24 64q-112 13 -186.5 97.5t-74.5 200.5q0 125 86.5 212t210.5 87q134 0 221 -100l-62 -53q-67 72 -159 72q-90 0 -151.5 -63.5t-61.5 -154.5t61.5 -154.5t151.5 -63.5q95 0 160 75l63 -53q-81 -94 -204 -103l22 -40
q7 -17 7 -36q0 -54 -55 -81q-14 -6 -34 -6q-24 0 -45.5 15t-32.5 40q-9 23 -9 46l60 -4q0 -14 2 -20z" />
    <glyph glyph-name="Egrave.sc" horiz-adv-x="499" 
d="M89 584h348v-78h-264v-179h231v-79h-231v-169h272v-79h-356v584zM236 652l-105 134h100l85 -134h-80z" />
    <glyph glyph-name="Eacute.sc" horiz-adv-x="499" 
d="M372 786l-105 -134h-80l85 134h100zM437 584h-348v-584h356v79h-272v169h231v79h-231v179h264v78z" />
    <glyph glyph-name="Ecircumflex.sc" horiz-adv-x="499" 
d="M89 584h348v-78h-264v-179h231v-79h-231v-169h272v-79h-356v584zM312 652l-62 72l-62 -72h-76l98 134h80l97 -134h-75z" />
    <glyph glyph-name="Edieresis.sc" horiz-adv-x="499" 
d="M127 718q0 22 16.5 37t39.5 15q22 0 38 -15t16 -37q0 -23 -16 -38t-38 -15q-24 0 -40 15t-16 38zM269 718q0 22 16 37t39 15t39 -15t16 -37q0 -23 -16 -38t-39 -15t-39 15t-16 38zM437 584h-348v-584h356v79h-272v169h231v79h-231v179h264v78z" />
    <glyph glyph-name="Igrave.sc" horiz-adv-x="261" 
d="M89 584h83v-584h-83v584zM95 652l-104 134h100l84 -134h-80z" />
    <glyph glyph-name="Iacute.sc" horiz-adv-x="261" 
d="M270 786l-105 -134h-80l86 134h99zM172 584h-83v-584h83v584z" />
    <glyph glyph-name="Icircumflex.sc" horiz-adv-x="262" 
d="M89 584h84v-584h-84v584zM193 652l-63 72l-61 -72h-76l98 134h80l98 -134h-76z" />
    <glyph glyph-name="Idieresis.sc" horiz-adv-x="261" 
d="M5 718q0 22 16 37t39 15t39 -15t16 -37q0 -23 -16 -38t-39 -15t-39 15t-16 38zM147 718q0 22 15.5 37t38.5 15t39.5 -15t16.5 -37q0 -23 -16 -38t-40 -15q-23 0 -38.5 15t-15.5 38zM172 584h-83v-584h83v584z" />
    <glyph glyph-name="Eth.sc" horiz-adv-x="630" 
d="M316 0h-223v262h-78v60h78v262h223q122 0 191 -82t69 -211q0 -128 -69 -209.5t-191 -81.5zM177 322h138v-60h-138v-179h139q85 0 131 57.5t46 150.5t-46 151.5t-131 58.5h-139v-179z" />
    <glyph glyph-name="Ntilde.sc" horiz-adv-x="601" 
d="M512 0h-80l-259 428v-428h-84v584h82l257 -423v423h84v-584zM263 698q-7 0 -13.5 -9t-6.5 -27h-57q3 54 25 78.5t52 24.5q17 0 46 -18l4 -3q17 -13 24 -13q20 0 20 34h58q-3 -54 -26 -78t-52 -24q-23 0 -49 22l-10 6q-10 7 -15 7z" />
    <glyph glyph-name="Ograve.sc" horiz-adv-x="694" 
d="M51 291q0 125 85 212t210 87t211 -87t86 -212t-86 -212.5t-211 -87.5t-210 87.5t-85 212.5zM135 291q0 -91 61 -154.5t150 -63.5t150.5 63.5t61.5 154.5t-61.5 154.5t-150.5 63.5t-150 -63.5t-61 -154.5zM317 652l-104 134h98l86 -134h-80z" />
    <glyph glyph-name="Oacute.sc" horiz-adv-x="694" 
d="M471 786l-104 -134h-80l85 134h99zM51 291q0 -125 85 -212.5t210 -87.5t211 87.5t86 212.5t-86 212t-211 87t-210 -87t-85 -212zM135 291q0 91 61 154.5t150 63.5t150.5 -63.5t61.5 -154.5t-61.5 -154.5t-150.5 -63.5t-150 63.5t-61 154.5z" />
    <glyph glyph-name="Ocircumflex.sc" horiz-adv-x="694" 
d="M51 291q0 125 85 212t210 87t211 -87t86 -212t-86 -212.5t-211 -87.5t-210 87.5t-85 212.5zM135 291q0 -91 61 -154.5t150 -63.5t150.5 63.5t61.5 154.5t-61.5 154.5t-150.5 63.5t-150 -63.5t-61 -154.5zM408 652l-62 72l-61 -72h-76l97 134h80l97 -134h-75z" />
    <glyph glyph-name="Otilde.sc" horiz-adv-x="694" 
d="M51 291q0 125 85 212t210 87t211 -87t86 -212t-86 -212.5t-211 -87.5t-210 87.5t-85 212.5zM135 291q0 -91 61 -154.5t150 -63.5t150.5 63.5t61.5 154.5t-61.5 154.5t-150.5 63.5t-150 -63.5t-61 -154.5zM309 698q-18 0 -19 -36h-58q3 54 25.5 78.5t51.5 24.5
q18 0 47 -18l4 -3q17 -13 23 -13q20 0 21 34h57q-3 -54 -25.5 -78t-52.5 -24q-22 0 -48 22l-11 6q-10 7 -15 7z" />
    <glyph glyph-name="Odieresis.sc" horiz-adv-x="694" 
d="M220 718q0 22 16.5 37t39.5 15q22 0 37.5 -15t15.5 -37q0 -23 -15.5 -38t-37.5 -15q-24 0 -40 15t-16 38zM363 718q0 22 15.5 37t38.5 15t39 -15t16 -37q0 -23 -16 -38t-39 -15t-38.5 15t-15.5 38zM51 291q0 -125 85 -212.5t210 -87.5t211 87.5t86 212.5t-86 212t-211 87
t-210 -87t-85 -212zM135 291q0 91 61 154.5t150 63.5t150.5 -63.5t61.5 -154.5t-61.5 -154.5t-150.5 -63.5t-150 63.5t-61 154.5z" />
    <glyph glyph-name="Oslash.sc" horiz-adv-x="692" 
d="M162 54l-67 -69l-43 44l67 69q-69 85 -69 193q0 125 85 212t210 87q105 0 187 -66l68 67l43 -42l-67 -68q66 -85 66 -190q0 -125 -86 -212.5t-211 -87.5q-103 0 -183 63zM134 291q0 -76 42 -134l299 307q-56 45 -130 45q-89 0 -150 -63.5t-61 -154.5zM345 73
q89 0 150.5 63.5t61.5 154.5q0 70 -40 130l-298 -307q55 -41 126 -41z" />
    <glyph glyph-name="Ugrave.sc" horiz-adv-x="595" 
d="M276 652l-105 134h100l85 -134h-80zM297 73q54 0 92.5 36t38.5 92v383h84v-383q0 -93 -62.5 -151.5t-152.5 -58.5q-89 0 -151.5 58.5t-62.5 151.5v383h85v-383q0 -56 38 -92t91 -36z" />
    <glyph glyph-name="Uacute.sc" horiz-adv-x="595" 
d="M297 73q54 0 92.5 36t38.5 92v383h84v-383q0 -93 -62.5 -151.5t-152.5 -58.5q-89 0 -151.5 58.5t-62.5 151.5v383h85v-383q0 -56 38 -92t91 -36zM416 786l-105 -134h-80l86 134h99z" />
    <glyph glyph-name="Ucircumflex.sc" horiz-adv-x="595" 
d="M358 652l-61 72l-61 -72h-76l97 134h80l97 -134h-76zM297 73q54 0 92.5 36t38.5 92v383h84v-383q0 -93 -62.5 -151.5t-152.5 -58.5q-89 0 -151.5 58.5t-62.5 151.5v383h85v-383q0 -56 38 -92t91 -36z" />
    <glyph glyph-name="Udieresis.sc" horiz-adv-x="595" 
d="M297 73q54 0 92.5 36t38.5 92v383h84v-383q0 -93 -62.5 -151.5t-152.5 -58.5q-89 0 -151.5 58.5t-62.5 151.5v383h85v-383q0 -56 38 -92t91 -36zM171 718q0 22 16 37t39 15t38.5 -15t15.5 -37q0 -23 -15.5 -38t-38.5 -15t-39 15t-16 38zM313 718q0 22 16 37t39 15t39 -15
t16 -37q0 -23 -16 -38t-39 -15t-39 15t-16 38z" />
    <glyph glyph-name="Yacute.sc" horiz-adv-x="563" 
d="M324 0h-86v268l-222 316h99l165 -233l167 233h102l-225 -316v-268zM409 786l-105 -134h-80l85 134h100z" />
    <glyph glyph-name="Thorn.sc" horiz-adv-x="505" 
d="M287 116h-114v-116h-84v584h84v-103h114q78 0 129.5 -49.5t51.5 -131.5t-52 -133t-129 -51zM173 197h114q41 0 69 29t28 74t-29.5 72t-74.5 29q-18 0 -53.5 0.5t-53.5 0.5v-205z" />
    <glyph glyph-name="Amacron.sc" horiz-adv-x="570" 
d="M193 223h184l-92 244zM406 147h-241l-32 -83.5l-24 -63.5h-90l222 584h88l222 -584h-89zM176 746h217v-73h-217v73z" />
    <glyph glyph-name="Abreve.sc" horiz-adv-x="570" 
d="M173 765h68q0 -22 11.5 -35.5t31.5 -13.5t32 15t12 34h69q0 -52 -31 -82.5t-82 -30.5q-56 0 -83.5 32.5t-27.5 80.5zM377 223h-184l92 244zM165 147h241l56 -147h89l-222 584h-88l-222 -584h90l24 63.5z" />
    <glyph glyph-name="Cacute.sc" horiz-adv-x="600" 
d="M468 786l-105 -134h-80l86 134h99zM571 95l-63 53q-65 -75 -160 -75q-90 0 -151.5 63.5t-61.5 154.5t61.5 154.5t151.5 63.5q92 0 159 -72l62 53q-87 100 -221 100q-124 0 -210.5 -87t-86.5 -212t86.5 -212.5t210.5 -87.5q66 0 124 28t99 76z" />
    <glyph glyph-name="Ccircumflex.sc" horiz-adv-x="600" 
d="M508 148l63 -53q-41 -48 -99 -76t-124 -28q-124 0 -210.5 87.5t-86.5 212.5t86.5 212t210.5 87q134 0 221 -100l-62 -53q-67 72 -159 72q-90 0 -151.5 -63.5t-61.5 -154.5t61.5 -154.5t151.5 -63.5q95 0 160 75zM408 652l-62 72l-62 -72h-75l97 134h80l98 -134h-76z" />
    <glyph glyph-name="Cdotaccent.sc" horiz-adv-x="600" 
d="M278 726q0 22 16 37t39 15t39.5 -15t16.5 -37q0 -23 -16 -38t-40 -15q-23 0 -39 15t-16 38zM571 95l-63 53q-65 -75 -160 -75q-90 0 -151.5 63.5t-61.5 154.5t61.5 154.5t151.5 63.5q92 0 159 -72l62 53q-87 100 -221 100q-124 0 -210.5 -87t-86.5 -212t86.5 -212.5
t210.5 -87.5q66 0 124 28t99 76z" />
    <glyph glyph-name="Ccaron.sc" horiz-adv-x="600" 
d="M334 715l62 71h76l-98 -134h-80l-96 134h75zM571 95l-63 53q-65 -75 -160 -75q-90 0 -151.5 63.5t-61.5 154.5t61.5 154.5t151.5 63.5q92 0 159 -72l62 53q-87 100 -221 100q-124 0 -210.5 -87t-86.5 -212t86.5 -212.5t210.5 -87.5q66 0 124 28t99 76z" />
    <glyph glyph-name="Dcaron.sc" horiz-adv-x="626" 
d="M324 715l62 71h75l-96 -134h-80l-98 134h76zM89 0h223q122 0 191 81.5t69 209.5q0 129 -69 211t-191 82h-223v-584zM173 83v418h139q85 0 131 -58.5t46 -151.5t-46 -150.5t-131 -57.5h-139z" />
    <glyph glyph-name="Aogonek.sc" horiz-adv-x="570" 
d="M194 223h183l-92 244zM460 4l-55 143h-240l-32 -83.5l-24 -63.5h-90l222 584h88l222 -584h-39l-25 -71q-10 -29 15 -41q25 -9 37 18l3 20l59 4q0 -24 -8 -46q-11 -25 -32.5 -40t-46.5 -15q-21 0 -33 6q-55 26 -55 81q0 19 7 36z" />
    <glyph glyph-name="Emacron.sc" horiz-adv-x="499" 
d="M89 584h348v-78h-264v-179h231v-79h-231v-169h272v-79h-356v584zM157 746h217v-73h-217v73z" />
    <glyph glyph-name="Ebreve.sc" horiz-adv-x="499" 
d="M137 765h68q0 -21 12 -35t33 -14q19 0 31 15t12 34h69q0 -52 -30.5 -82.5t-81.5 -30.5q-56 0 -84.5 32.5t-28.5 80.5zM437 584h-348v-584h356v79h-272v169h231v79h-231v179h264v78z" />
    <glyph glyph-name="Edotaccent.sc" horiz-adv-x="499" 
d="M213 726q0 22 16 37t39 15q24 0 40.5 -15t16.5 -37q0 -23 -16.5 -38t-40.5 -15q-23 0 -39 15t-16 38zM437 584h-348v-584h356v79h-272v169h231v79h-231v179h264v78z" />
    <glyph glyph-name="Ecaron.sc" horiz-adv-x="499" 
d="M250 715l62 71h75l-97 -134h-80l-98 134h76zM437 584h-348v-584h356v79h-272v169h231v79h-231v179h264v78z" />
    <glyph glyph-name="Gcircumflex.sc" horiz-adv-x="659" 
d="M545 511l-60 -56q-58 55 -139 55q-89 0 -150 -64t-61 -155t61 -155t150 -64q77 0 127 40.5t54 109.5h-164v74h259q0 -151 -73.5 -228t-202.5 -77q-125 0 -210 87.5t-85 212.5t85 212t210 87q117 0 199 -79zM394 652l-62 72l-60 -72h-76l97 134h79l98 -134h-76z" />
    <glyph glyph-name="Gbreve.sc" horiz-adv-x="659" 
d="M220 765h69q0 -22 11.5 -35.5t31.5 -13.5t31.5 15t11.5 34h71q0 -52 -31 -82.5t-83 -30.5q-56 0 -84 32.5t-28 80.5zM485 455l60 56q-82 79 -199 79q-125 0 -210 -87t-85 -212t85 -212.5t210 -87.5q129 0 202.5 77t73.5 228h-259v-74h164q-4 -69 -54 -109.5t-127 -40.5
q-89 0 -150 64t-61 155t61 155t150 64q81 0 139 -55z" />
    <glyph glyph-name="Eogonek.sc" horiz-adv-x="499" 
d="M440 0l-21 -62q-5 -11 -0.5 -23.5t15.5 -17.5q11 -4 22 1.5t16 16.5l2 21l60 3q0 -23 -9 -46q-11 -25 -32 -40t-46 -15q-18 0 -34 7q-54 24 -54 80q0 19 6 36l21 39h-297v584h349v-78h-265v-179h231v-79h-231v-169h272l-2 -78z" />
    <glyph glyph-name="Dcroat.sc" horiz-adv-x="631" 
d="M317 0h-223v260h-78v66h78v258h223q122 0 191 -82t69 -211q0 -128 -69 -209.5t-191 -81.5zM178 326h138v-66h-138v-177h139q85 0 131 57.5t46 150.5t-46 151.5t-131 58.5h-139v-175z" />
    <glyph glyph-name="Gdotaccent.sc" horiz-adv-x="659" 
d="M266 726q0 22 16 37t39 15t39.5 -15t16.5 -37q0 -23 -16 -38t-40 -15q-23 0 -39 15t-16 38zM485 455l60 56q-82 79 -199 79q-125 0 -210 -87t-85 -212t85 -212.5t210 -87.5q129 0 202.5 77t73.5 228h-259v-74h164q-4 -69 -54 -109.5t-127 -40.5q-89 0 -150 64t-61 155
t61 155t150 64q81 0 139 -55z" />
    <glyph glyph-name="Hcircumflex.sc" horiz-adv-x="620" 
d="M531 584v-584h-85v252h-273v-252h-84v584h84v-255h273v255h85zM371 652l-62 72l-61 -72h-75l97 134h80l97 -134h-76z" />
    <glyph glyph-name="Hbar.sc" horiz-adv-x="628" 
d="M534 479h59v-52h-59v-427h-84v250h-273v-250h-84v427h-57v52h57v105h84v-105h273v105h84v-105zM177 330h273v97h-273v-97z" />
    <glyph glyph-name="Itilde.sc" horiz-adv-x="262" 
d="M89 584h84v-584h-84v584zM94 698q-19 0 -20 -36h-57q3 54 25.5 78.5t51.5 24.5q17 0 46 -18l4 -3q17 -13 24 -13q20 0 21 34h57q-3 -54 -25.5 -78t-52.5 -24q-23 0 -49 22l-10 6q-10 7 -15 7z" />
    <glyph glyph-name="Imacron.sc" horiz-adv-x="262" 
d="M89 584h84v-584h-84v584zM23 746h217v-73h-217v73z" />
    <glyph glyph-name="Iogonek.sc" horiz-adv-x="262" 
d="M139 0l-24 -71q-10 -29 14 -41q26 -9 38 18l3 20l59 4q0 -23 -9 -46q-11 -25 -32 -40t-46 -15q-21 0 -33 6q-26 12 -41 34t-15 47q0 19 7 36l29 53v579h84v-584h-34z" />
    <glyph glyph-name="IJ.sc" horiz-adv-x="524" 
d="M89 584h84v-584h-84v584zM188 -201l8 81q22 -8 59 -8q50 0 73 30t23 78v604h84v-604q0 -84 -43.5 -137t-136.5 -53q-22 0 -67 9z" />
    <glyph glyph-name="Jcircumflex.sc" horiz-adv-x="262" 
d="M186 652l-62 72l-61 -72h-76l98 134h80l96 -134h-75zM-74 -201l8 81q22 -8 59 -8q50 0 73 30t23 78v604h84v-604q0 -84 -43.5 -137t-136.5 -53q-22 0 -67 9z" />
    <glyph glyph-name="Lacute.sc" horiz-adv-x="430" 
d="M275 777l-104 -135h-80l85 135h99zM173 584h-84v-584h320v79h-236v505z" />
    <glyph glyph-name="Lcaron.sc" horiz-adv-x="431" 
d="M89 584h84v-505h236v-79h-320v584zM285 423l-55 14q38 55 38 112q0 8 -2 30h82q0 -106 -63 -156z" />
    <glyph glyph-name="Ldot.sc" horiz-adv-x="430" 
d="M89 584h84v-505h236v-79h-320v584zM239 222q0 21 15 35.5t36 14.5q22 0 37.5 -14.5t15.5 -35.5t-15.5 -35t-37.5 -14q-21 0 -36 14t-15 35z" />
    <glyph glyph-name="Nacute.sc" horiz-adv-x="601" 
d="M418 786l-105 -134h-80l85 134h100zM432 0h80v584h-84v-423l-257 423h-82v-584h84v428z" />
    <glyph glyph-name="Ncaron.sc" horiz-adv-x="601" 
d="M299 715l62 71h75l-96 -134h-80l-98 134h76zM432 0h80v584h-84v-423l-257 423h-82v-584h84v428z" />
    <glyph glyph-name="Omacron.sc" horiz-adv-x="694" 
d="M51 291q0 125 85 212t210 87t211 -87t86 -212t-86 -212.5t-211 -87.5t-210 87.5t-85 212.5zM135 291q0 -91 61 -154.5t150 -63.5t150.5 63.5t61.5 154.5t-61.5 154.5t-150.5 63.5t-150 -63.5t-61 -154.5zM238 746h217v-73h-217v73z" />
    <glyph glyph-name="Obreve.sc" horiz-adv-x="694" 
d="M234 765h67q0 -21 12 -35t33 -14q20 0 31.5 15t11.5 34h69q0 -52 -30.5 -82.5t-81.5 -30.5q-56 0 -84 32.5t-28 80.5zM51 291q0 -125 85 -212.5t210 -87.5t211 87.5t86 212.5t-86 212t-211 87t-210 -87t-85 -212zM135 291q0 91 61 154.5t150 63.5t150.5 -63.5
t61.5 -154.5t-61.5 -154.5t-150.5 -63.5t-150 63.5t-61 154.5z" />
    <glyph glyph-name="Ohungarumlaut.sc" horiz-adv-x="694" 
d="M399 786l-79 -134h-77l70 134h86zM519 786l-90 -134h-75l79 134h86zM51 291q0 -125 85 -212.5t210 -87.5t211 87.5t86 212.5t-86 212t-211 87t-210 -87t-85 -212zM135 291q0 91 61 154.5t150 63.5t150.5 -63.5t61.5 -154.5t-61.5 -154.5t-150.5 -63.5t-150 63.5
t-61 154.5z" />
    <glyph glyph-name="Racute.sc" horiz-adv-x="546" 
d="M363 786l-104 -134h-80l86 134h98zM495 0l-155 220q75 7 112 57.5t37 122.5q0 76 -44.5 130t-130.5 54h-225v-584h85v216h70l149 -216h102zM174 506h138q45 0 67.5 -31t22.5 -75t-23 -74.5t-71 -30.5h-134v211z" />
    <glyph glyph-name="Rcaron.sc" horiz-adv-x="546" 
d="M272 715l62 71h75l-97 -134h-80l-98 134h76zM495 0l-155 220q75 7 112 57.5t37 122.5q0 76 -44.5 130t-130.5 54h-225v-584h85v216h70l149 -216h102zM174 506h138q45 0 67.5 -31t22.5 -75t-23 -74.5t-71 -30.5h-134v211z" />
    <glyph glyph-name="Sacute.sc" horiz-adv-x="505" 
d="M368 786l-105 -134h-80l85 134h100zM138 173h-85q0 -73 58.5 -127.5t146.5 -54.5q81 0 134 44.5t63 109.5q7 68 -34 116t-123 69l-75 19q-80 20 -80 77q0 37 31 60.5t74 23.5q46 0 76 -26t30 -68h84q0 79 -53.5 126.5t-135.5 47.5q-77 0 -133.5 -46t-56.5 -118
q0 -120 142 -154l75 -19q43 -10 72.5 -35t23.5 -66q-5 -34 -34 -58t-80 -24q-52 0 -86 31t-34 72z" />
    <glyph glyph-name="Scircumflex.sc" horiz-adv-x="505" 
d="M307 652l-61 72l-62 -72h-76l98 134h80l97 -134h-76zM53 173h85q0 -41 34 -72t86 -31q51 0 80 24t34 58q6 41 -23.5 66t-72.5 35l-75 19q-142 34 -142 154q0 72 56.5 118t133.5 46q82 0 135.5 -47.5t53.5 -126.5h-84q0 42 -30 68t-76 26q-43 0 -74 -23.5t-31 -60.5
q0 -57 80 -77l75 -19q82 -21 123 -69t34 -116q-10 -65 -63 -109.5t-134 -44.5q-88 0 -146.5 54.5t-58.5 127.5z" />
    <glyph glyph-name="Scedilla.sc" horiz-adv-x="506" 
d="M229 -94q5 -11 16 -16.5t22 -1.5q11 5 15.5 17t-0.5 24l-26 62q-87 1 -145 55t-58 127h85q0 -40 34.5 -71.5t85.5 -31.5t80 24t34 58q6 41 -23.5 66t-72.5 35l-75 19q-142 34 -142 154q0 72 56.5 118t133.5 46q82 0 135.5 -47.5t53.5 -126.5h-84q0 42 -30 68t-76 26
q-43 0 -74 -23.5t-31 -60.5q0 -57 80 -77l75 -19q82 -21 123 -69t34 -116q-9 -53 -46.5 -94t-96.5 -53l23 -46q7 -17 7 -36q0 -55 -55 -81q-14 -6 -34 -6q-24 0 -45.5 15t-32.5 40q-8 26 -8 46l60 -4q-1 -14 2 -20z" />
    <glyph glyph-name="Utilde.sc" horiz-adv-x="595" 
d="M260 698q-7 0 -13 -9t-7 -27h-57q3 54 25.5 78.5t51.5 24.5q23 0 48 -19l4 -4q18 -11 23 -11q20 0 21 34h56q-3 -54 -25.5 -78t-51.5 -24q-24 0 -50 22q-3 0 -6 3q-14 10 -19 10zM297 73q54 0 92.5 36t38.5 92v383h84v-383q0 -93 -62.5 -151.5t-152.5 -58.5
q-89 0 -151.5 58.5t-62.5 151.5v383h85v-383q0 -56 38 -92t91 -36z" />
    <glyph glyph-name="Umacron.sc" horiz-adv-x="595" 
d="M189 746h217v-73h-217v73zM297 73q54 0 92.5 36t38.5 92v383h84v-383q0 -93 -62.5 -151.5t-152.5 -58.5q-89 0 -151.5 58.5t-62.5 151.5v383h85v-383q0 -56 38 -92t91 -36z" />
    <glyph glyph-name="Ubreve.sc" horiz-adv-x="595" 
d="M297 73q54 0 92.5 36t38.5 92v383h84v-383q0 -93 -62.5 -151.5t-152.5 -58.5q-89 0 -151.5 58.5t-62.5 151.5v383h85v-383q0 -56 38 -92t91 -36zM185 765h68q0 -21 12 -35t32 -14q19 0 31 15t12 34h70q0 -52 -31 -82.5t-82 -30.5q-56 0 -84 32.5t-28 80.5z" />
    <glyph glyph-name="Uring.sc" horiz-adv-x="595" 
d="M297 73q54 0 92.5 36t38.5 92v383h84v-383q0 -93 -62.5 -151.5t-152.5 -58.5q-89 0 -151.5 58.5t-62.5 151.5v383h85v-383q0 -56 38 -92t91 -36zM205 731q0 39 26.5 65t64.5 26q40 0 66.5 -26t26.5 -65q0 -38 -26.5 -64t-66.5 -26q-38 0 -64.5 26t-26.5 64zM256 731
q0 -16 12 -28t28 -12q17 0 30 12t13 28t-13 28.5t-30 12.5q-16 0 -28 -12.5t-12 -28.5z" />
    <glyph glyph-name="Uhungarumlaut.sc" horiz-adv-x="595" 
d="M297 73q54 0 92.5 36t38.5 92v383h84v-383q0 -93 -62.5 -151.5t-152.5 -58.5q-89 0 -151.5 58.5t-62.5 151.5v383h85v-383q0 -56 38 -92t91 -36zM339 786l-79 -134h-76l70 134h85zM459 786l-89 -134h-76l79 134h86z" />
    <glyph glyph-name="Uogonek.sc" horiz-adv-x="597" 
d="M358 -94l1 1l2 19l60 4q0 -27 -8 -46q-12 -25 -33.5 -40t-45.5 -15q-22 0 -34 6q-55 27 -55 81q0 19 7 36l22 41q-81 8 -135.5 65t-54.5 143v383h85v-383q0 -56 38 -92t91 -36q54 0 92.5 36t38.5 92v383h84v-383q0 -85 -52 -141.5t-132 -66.5q-3 -11 -11 -32l-12 -32
q-10 -29 15 -41q11 -4 22 1t15 17z" />
    <glyph glyph-name="Wcircumflex.sc" horiz-adv-x="785" 
d="M672 584h90l-198 -584h-72l-100 352l-99 -352h-72l-198 584h90l143 -446l105 368h63l105 -368zM454 652l-62 72l-61 -72h-76l97 134h80l98 -134h-76z" />
    <glyph glyph-name="Ycircumflex.sc" horiz-adv-x="563" 
d="M343 652l-62 72l-61 -72h-75l97 134h80l98 -134h-77zM324 0h-86v268l-222 316h99l165 -233l167 233h102l-225 -316v-268z" />
    <glyph glyph-name="Tcaron.sc" horiz-adv-x="482" 
d="M241 715l61 71h76l-98 -134h-80l-97 134h76zM459 584h-436v-79h175v-505h85v505h176v79z" />
    <glyph glyph-name="Tbar.sc" horiz-adv-x="483" 
d="M283 350h112v-57h-112v-293h-84v293h-110v57h110v151h-177v83h439v-83h-178v-151z" />
    <glyph glyph-name="Zacute.sc" horiz-adv-x="507" 
d="M45 72l302 433h-290v79h399v-72l-305 -432h305v-80h-411v72zM376 786l-106 -134h-80l86 134h100z" />
    <glyph glyph-name="Zdotaccent.sc" horiz-adv-x="507" 
d="M45 72l302 433h-290v79h399v-72l-305 -432h305v-80h-411v72zM194 726q0 22 16.5 37t39.5 15q24 0 40 -15t16 -37q0 -23 -16 -38t-40 -15q-23 0 -39.5 15t-16.5 38z" />
    <glyph glyph-name="Wgrave.sc" horiz-adv-x="785" 
d="M672 584h90l-198 -584h-72l-100 352l-99 -352h-72l-198 584h90l143 -446l105 368h63l105 -368zM357 652l-106 134h100l86 -134h-80z" />
    <glyph glyph-name="Wacute.sc" horiz-adv-x="785" 
d="M532 786l-105 -134h-80l86 134h99zM762 584h-90l-143 -446l-105 368h-63l-105 -368l-143 446h-90l198 -584h72l99 352l100 -352h72z" />
    <glyph glyph-name="Wdieresis.sc" horiz-adv-x="785" 
d="M266 718q0 22 16 37t39 15t39 -15t16 -37q0 -23 -16 -38t-39 -15t-39 15t-16 38zM408 718q0 22 16.5 37t39.5 15t38.5 -15t15.5 -37q0 -23 -15.5 -38t-38.5 -15q-24 0 -40 15t-16 38zM762 584h-90l-143 -446l-105 368h-63l-105 -368l-143 446h-90l198 -584h72l99 352
l100 -352h72z" />
    <glyph glyph-name="Aringacute.sc" horiz-adv-x="570" 
d="M420 921l-87 -112q43 -26 43 -78q0 -38 -26.5 -64t-66.5 -26q-38 0 -64 26t-26 64q0 31 17 54.5t44 31.5l66 104h100zM244 731q0 -16 11.5 -28t27.5 -12q18 0 30.5 11.5t12.5 28.5t-12.5 29t-30.5 12q-16 0 -27.5 -12t-11.5 -29zM377 223h-184l92 244zM165 147h241
l56 -147h89l-222 584h-88l-222 -584h90l24 63.5z" />
    <glyph glyph-name="AEacute.sc" horiz-adv-x="814" 
d="M582 786l-105 -134h-80l86 134h99zM111 0l93 145h200v-145h356v83h-272v162h229v83h-229v173h263v83h-370l-370 -584h100zM404 226h-150l150 235v-235z" />
    <glyph glyph-name="Oslashacute.sc" horiz-adv-x="692" 
d="M482 786l-105 -134h-80l86 134h99zM95 -15l67 69q80 -63 183 -63q125 0 211 87.5t86 212.5q0 105 -66 190l67 68l-43 42l-68 -67q-82 66 -187 66q-125 0 -210 -87t-85 -212q0 -108 69 -193l-67 -69zM134 291q0 91 61 154.5t150 63.5q74 0 130 -45l-299 -307
q-42 58 -42 134zM345 73q-71 0 -126 41l298 307q40 -60 40 -130q0 -91 -61.5 -154.5t-150.5 -63.5z" />
    <glyph glyph-name="Ibreve.sc" horiz-adv-x="262" 
d="M19 765h67q0 -21 12 -35t32 -14t32 15t12 34h69q0 -52 -31 -82.5t-82 -30.5q-56 0 -83.5 32.5t-27.5 80.5zM173 584h-84v-584h84v584z" />
    <glyph glyph-name="Eng.sc" horiz-adv-x="599" 
d="M425 -17v26l-253 415v-424h-83v584h81l255 -423v423h85v-578q0 -213 -181 -213q-33 0 -66 10l7 83l49 -7q32 -2 53 8q53 22 53 96z" />
    <glyph glyph-name="Ygrave.sc" horiz-adv-x="563" 
d="M249 652l-105 134h99l86 -134h-80zM324 0h-86v268l-222 316h99l165 -233l167 233h102l-225 -316v-268z" />
    <glyph glyph-name="Gcommaaccent.sc" horiz-adv-x="659" 
d="M545 511l-60 -56q-58 55 -139 55q-89 0 -150 -64t-61 -155t61 -155t150 -64q77 0 127 40.5t54 109.5h-164v74h259q0 -151 -73.5 -228t-202.5 -77q-125 0 -210 87.5t-85 212.5t85 212t210 87q117 0 199 -79zM321 -210l-54 17q43 60 43 116q0 12 -2 36h81q1 -112 -68 -169z
" />
    <glyph glyph-name="Kcommaaccent.sc" horiz-adv-x="515" 
d="M266 -210l-54 17q43 60 43 116q0 12 -2 36h81q1 -112 -68 -169zM238 292l276 -292h-115l-226 242v-242h-84v584h84v-244l187 244h102z" />
    <glyph glyph-name="Lcommaaccent.sc" horiz-adv-x="430" 
d="M89 584h84v-505h236v-79h-320v584zM219 -210l-54 17q43 60 43 116q0 12 -2 36h81q1 -112 -68 -169z" />
    <glyph glyph-name="Ncommaaccent.sc" horiz-adv-x="601" 
d="M512 0h-80l-259 428v-428h-84v584h82l257 -423v423h84v-584zM284 -210l-54 17q43 60 43 116q0 12 -2 36h81q1 -112 -68 -169z" />
    <glyph glyph-name="Rcommaaccent.sc" horiz-adv-x="546" 
d="M340 220l155 -220h-102l-149 216h-70v-216h-85v584h225q86 0 130.5 -54t44.5 -130q0 -72 -37 -122.5t-112 -57.5zM312 506h-138v-211h134q48 0 71 30.5t23 74.5t-22.5 75t-67.5 31zM262 -210l-54 17q43 60 43 116q0 12 -2 36h81q1 -112 -68 -169z" />
    <glyph glyph-name="Tcommaaccent.sc" horiz-adv-x="482" 
d="M23 584h436v-79h-176v-505h-85v505h-175v79zM210 -210l-54 17q43 60 43 116q0 12 -2 36h81q1 -112 -68 -169z" />
    <glyph glyph-name="Scommaaccent.sc" horiz-adv-x="505" 
d="M53 173h85q0 -41 34 -72t86 -31q51 0 80 24t34 58q6 41 -23.5 66t-72.5 35l-75 19q-142 34 -142 154q0 72 56.5 118t133.5 46q82 0 135.5 -47.5t53.5 -126.5h-84q0 42 -30 68t-76 26q-43 0 -74 -23.5t-31 -60.5q0 -57 80 -77l75 -19q82 -21 123 -69t34 -116
q-10 -65 -63 -109.5t-134 -44.5q-88 0 -146.5 54.5t-58.5 127.5zM235 -210l-54 17q43 60 43 116q0 12 -2 36h81q1 -112 -68 -169z" />
    <glyph glyph-name="Idotaccent.sc" horiz-adv-x="262" 
d="M75 726q0 22 16.5 37t39.5 15q24 0 40 -15t16 -37q0 -23 -16 -38t-40 -15q-23 0 -39.5 15t-16.5 38zM173 584h-84v-584h84v584z" />
    <glyph glyph-name="zero.numr" horiz-adv-x="364" 
d="M39 455q0 45 6.5 79.5t22 63.5t44.5 44.5t70 15.5t70 -15.5t44.5 -44.5t22 -63.5t6.5 -79.5q0 -200 -143 -200t-143 200zM98 455q0 -142 84 -142t84 142q0 144 -84 144t-84 -144z" />
    <glyph glyph-name="one.numr" horiz-adv-x="209" 
d="M94 260v305l-68 -35v57l128 70v-397h-60z" />
    <glyph glyph-name="two.numr" horiz-adv-x="319" 
d="M36 288l158 191q27 34 27 61t-19 44t-47 17q-26 0 -46.5 -18t-24.5 -47l-53 14q7 49 42 78.5t82 29.5q53 0 88.5 -33t35.5 -85q0 -54 -43 -102l-101 -119h145v-59h-244v28z" />
    <glyph glyph-name="three.numr" horiz-adv-x="321" 
d="M88 563l-45 36q17 29 48.5 45t67.5 14q49 -2 80.5 -34.5t29.5 -75.5q0 -44 -41 -76q56 -29 56 -96q0 -56 -39.5 -88t-96.5 -32q-36 0 -72.5 22t-51.5 56l50 29q9 -20 32.5 -34t45.5 -14q31 0 51 16.5t21 43.5q2 27 -15.5 46.5t-46.5 19.5h-56v57h47q19 0 32.5 12t17.5 29
q3 26 -11.5 43t-44.5 17q-35 0 -59 -36z" />
    <glyph glyph-name="four.numr" horiz-adv-x="361" 
d="M278 339v-79h-59v79h-203l218 314h44v-258h56v-56h-56zM118 395h101v150z" />
    <glyph glyph-name="five.numr" horiz-adv-x="340" 
d="M27 337l49 35q11 -28 35.5 -44t52.5 -16q39 0 62.5 21.5t23.5 53.5q0 33 -23 50.5t-52 17.5q-46 0 -111 -33l-18 23l35 207h201v-56h-152q-3 -17 -9 -48t-9 -48q30 13 63 13q56 0 94.5 -33t38.5 -93t-39.5 -96.5t-104.5 -36.5q-42 0 -80 22t-57 61z" />
    <glyph glyph-name="six.numr" horiz-adv-x="338" 
d="M300 576l-53 -22q-22 46 -64 46q-38 0 -61.5 -37t-22.5 -95q24 47 80 47q54 0 89.5 -41t33.5 -96q-3 -54 -41 -90.5t-92 -34.5q-53 2 -88 38t-40 97q0 29 -1 64t8 71.5t22.5 66.5t43 48.5t69.5 17.5q83 -4 117 -80zM102 387q0 -31 20.5 -52t49.5 -22t49 18.5t22 49.5
q1 31 -17.5 52t-47.5 22q-31 1 -53 -18.5t-23 -49.5z" />
    <glyph glyph-name="seven.numr" horiz-adv-x="322" 
d="M312 653l-215 -393h-69l183 334h-174v59h275z" />
    <glyph glyph-name="eight.numr" horiz-adv-x="342" 
d="M65 555q0 43 30.5 73t75.5 30q46 0 77 -30t31 -73q0 -36 -29 -67q57 -37 57 -105q0 -54 -39 -91t-97 -37t-97 37t-39 91q0 69 56 105q-26 28 -26 67zM94 383q0 -29 22 -49.5t55 -20.5q32 0 54.5 20.5t22.5 49.5q0 30 -22.5 52.5t-54.5 22.5h-4q-31 0 -52 -23t-21 -52z
M124 555q0 -18 12.5 -32t31.5 -15h5q20 1 33 15t13 32t-14 31t-34 13t-33.5 -13t-13.5 -31z" />
    <glyph glyph-name="nine.numr" horiz-adv-x="337" 
d="M38 334l53 22q22 -46 64 -46q38 0 61.5 37t22.5 95q-24 -47 -80 -47q-54 0 -89.5 41t-33.5 96q3 54 41 90.5t92 34.5q53 -2 88 -38t40 -97q0 -29 1 -64t-8 -71.5t-22.5 -66.5t-43 -48.5t-69.5 -17.5q-83 4 -117 80zM236 523q0 31 -20.5 52t-49.5 22t-49 -18.5t-22 -49.5
q-1 -31 17.5 -52t47.5 -22q31 -1 53 18.5t23 49.5z" />
    <glyph glyph-name="zero.dnom" horiz-adv-x="364" 
d="M39 195q0 45 6.5 79.5t22 63.5t44.5 44.5t70 15.5t70 -15.5t44.5 -44.5t22 -63.5t6.5 -79.5q0 -200 -143 -200t-143 200zM98 195q0 -142 84 -142t84 142q0 144 -84 144t-84 -144z" />
    <glyph glyph-name="one.dnom" horiz-adv-x="209" 
d="M94 0v305l-68 -35v57l128 70v-397h-60z" />
    <glyph glyph-name="two.dnom" horiz-adv-x="319" 
d="M36 28l158 191q27 34 27 61t-19 44t-47 17q-26 0 -46.5 -18t-24.5 -47l-53 14q7 49 42 78.5t82 29.5q53 0 88.5 -33t35.5 -85q0 -54 -43 -102l-101 -119h145v-59h-244v28z" />
    <glyph glyph-name="three.dnom" horiz-adv-x="321" 
d="M88 303l-45 36q17 29 48.5 45t67.5 14q49 -2 80.5 -34.5t29.5 -75.5q0 -44 -41 -76q56 -29 56 -96q0 -56 -39.5 -88t-96.5 -32q-36 0 -72.5 22t-51.5 56l50 29q9 -20 32.5 -34t45.5 -14q31 0 51 16.5t21 43.5q2 27 -15.5 46.5t-46.5 19.5h-56v57h47q19 0 32.5 12t17.5 29
q3 26 -11.5 43t-44.5 17q-35 0 -59 -36z" />
    <glyph glyph-name="four.dnom" horiz-adv-x="361" 
d="M278 79v-79h-59v79h-203l218 314h44v-258h56v-56h-56zM118 135h101v150z" />
    <glyph glyph-name="five.dnom" horiz-adv-x="340" 
d="M27 77l49 35q11 -28 35.5 -44t52.5 -16q39 0 62.5 21.5t23.5 53.5q0 33 -23 50.5t-52 17.5q-46 0 -111 -33l-18 23l35 207h201v-56h-152q-3 -17 -9 -48t-9 -48q30 13 63 13q56 0 94.5 -33t38.5 -93t-39.5 -96.5t-104.5 -36.5q-42 0 -80 22t-57 61z" />
    <glyph glyph-name="six.dnom" horiz-adv-x="338" 
d="M300 316l-53 -22q-22 46 -64 46q-38 0 -61.5 -37t-22.5 -95q24 47 80 47q54 0 89.5 -41t33.5 -96q-3 -54 -41 -90.5t-92 -34.5q-53 2 -88 38t-40 97q0 29 -1 64t8 71.5t22.5 66.5t43 48.5t69.5 17.5q83 -4 117 -80zM102 127q0 -31 20.5 -52t49.5 -22t49 18.5t22 49.5
q1 31 -17.5 52t-47.5 22q-31 1 -53 -18.5t-23 -49.5z" />
    <glyph glyph-name="seven.dnom" horiz-adv-x="321" 
d="M312 393l-215 -393h-69l183 334h-174v59h275z" />
    <glyph glyph-name="eight.dnom" horiz-adv-x="342" 
d="M65 295q0 43 30.5 73t75.5 30q46 0 77 -30t31 -73q0 -36 -29 -67q57 -37 57 -105q0 -54 -39 -91t-97 -37t-97 37t-39 91q0 69 56 105q-26 28 -26 67zM94 123q0 -29 22 -49.5t55 -20.5q32 0 54.5 20.5t22.5 49.5q0 30 -22.5 52.5t-54.5 22.5h-4q-31 0 -52 -23t-21 -52z
M124 295q0 -18 12.5 -32t31.5 -15h5q20 1 33 15t13 32t-14 31t-34 13t-33.5 -13t-13.5 -31z" />
    <glyph glyph-name="nine.dnom" horiz-adv-x="337" 
d="M38 74l53 22q22 -46 64 -46q38 0 61.5 37t22.5 95q-24 -47 -80 -47q-54 0 -89.5 41t-33.5 96q3 54 41 90.5t92 34.5q53 -2 88 -38t40 -97q0 -29 1 -64t-8 -71.5t-22.5 -66.5t-43 -48.5t-69.5 -17.5q-83 4 -117 80zM236 263q0 31 -20.5 52t-49.5 22t-49 -18.5t-22 -49.5
q-1 -31 17.5 -52t47.5 -22q31 -1 53 18.5t23 49.5z" />
    <glyph glyph-name="l.alt1" horiz-adv-x="279" 
d="M277 85v-85h-39q-168 0 -168 200v521h92v-520q-2 -116 84 -116h31z" />
    <glyph glyph-name="a.alt1" horiz-adv-x="540" 
d="M218 71q42 0 90 21t71 58v34q-69 24 -139 24q-114 0 -114 -73q0 -28 23.5 -46t68.5 -18zM119 335l-56 54q62 88 194 88q101 0 157 -50t56 -146v-60v-221h-90v60q-24 -34 -70.5 -52t-93.5 -18q-80 0 -128 38.5t-48 106.5q0 65 48.5 106t151.5 41q61 0 140 -25v24
q0 52 -34.5 83t-95.5 31q-35 0 -71 -16t-60 -44z" />
    <glyph glyph-name="y.alt1" horiz-adv-x="508" 
d="M179 -48l26 62l-187 453h97l139 -336l140 336h97l-229 -550q-37 -82 -77.5 -116t-111.5 -34q-30 0 -55 7v80q18 -3 53 -3q42 0 63 22.5t45 78.5z" />
    <glyph glyph-name="lslash.alt1" horiz-adv-x="290" 
d="M286 85v-85h-39q-168 0 -168 200v118l-66 -42v64l66 42v339h92v-280l76 49v-64l-76 -49v-176q-2 -116 84 -116h31z" />
    <glyph glyph-name="lacute.alt1" horiz-adv-x="279" 
d="M277 931l-119 -154h-87l97 154h109zM277 0v85h-31q-86 0 -84 116v520h-92v-521q0 -200 168 -200h39z" />
    <glyph glyph-name="lcommaaccent.alt1" horiz-adv-x="279" 
d="M168 -250l-58 19q31 42 41.5 78t4.5 96h90q1 -129 -78 -193zM277 85v-85h-39q-168 0 -168 200v521h92v-520q-2 -116 84 -116h31z" />
    <glyph glyph-name="lcaron.alt1" horiz-adv-x="279" 
d="M262 528l-58 19q31 42 41.5 78t4.5 96h90q1 -129 -78 -193zM277 0v85h-31q-86 0 -84 116v520h-92v-521q0 -200 168 -200h39z" />
    <glyph glyph-name="aacute.alt1" horiz-adv-x="540" 
d="M414 708l-119 -154h-87l97 154h109zM218 71q42 0 90 21t71 58v34q-69 24 -139 24q-114 0 -114 -73q0 -28 23.5 -46t68.5 -18zM119 335l-56 54q62 88 194 88q101 0 157 -50t56 -146v-60v-221h-90v60q-24 -34 -70.5 -52t-93.5 -18q-80 0 -128 38.5t-48 106.5q0 65 48.5 106
t151.5 41q61 0 140 -25v24q0 52 -34.5 83t-95.5 31q-35 0 -71 -16t-60 -44z" />
    <glyph glyph-name="agrave.alt1" horiz-adv-x="540" 
d="M230 554l-119 154h109l97 -154h-87zM218 71q42 0 90 21t71 58v34q-69 24 -139 24q-114 0 -114 -73q0 -28 23.5 -46t68.5 -18zM119 335l-56 54q62 88 194 88q101 0 157 -50t56 -146v-60v-221h-90v60q-24 -34 -70.5 -52t-93.5 -18q-80 0 -128 38.5t-48 106.5q0 65 48.5 106
t151.5 41q61 0 140 -25v24q0 52 -34.5 83t-95.5 31q-35 0 -71 -16t-60 -44z" />
    <glyph glyph-name="acircumflex.alt1" horiz-adv-x="540" 
d="M329 554l-75 87l-74 -87h-82l110 154h93l110 -154h-82zM218 71q42 0 90 21t71 58v34q-69 24 -139 24q-114 0 -114 -73q0 -28 23.5 -46t68.5 -18zM119 335l-56 54q62 88 194 88q101 0 157 -50t56 -146v-60v-221h-90v60q-24 -34 -70.5 -52t-93.5 -18q-80 0 -128 38.5
t-48 106.5q0 65 48.5 106t151.5 41q61 0 140 -25v24q0 52 -34.5 83t-95.5 31q-35 0 -71 -16t-60 -44z" />
    <glyph glyph-name="adieresis.alt1" horiz-adv-x="540" 
d="M121 630q0 25 18 42t44 17q25 0 43 -17t18 -42t-18 -42t-43 -17q-26 0 -44 17t-18 42zM290 630q0 25 18 42t44 17t44 -17t18 -42t-18 -42t-44 -17t-44 17t-18 42zM218 71q42 0 90 21t71 58v34q-69 24 -139 24q-114 0 -114 -73q0 -28 23.5 -46t68.5 -18zM119 335l-56 54
q62 88 194 88q101 0 157 -50t56 -146v-60v-221h-90v60q-24 -34 -70.5 -52t-93.5 -18q-80 0 -128 38.5t-48 106.5q0 65 48.5 106t151.5 41q61 0 140 -25v24q0 52 -34.5 83t-95.5 31q-35 0 -71 -16t-60 -44z" />
    <glyph glyph-name="atilde.alt1" horiz-adv-x="540" 
d="M209 610q-9 0 -17.5 -11t-9.5 -33h-61q3 61 28.5 89t59.5 28q25 0 58 -24q21 -17 31 -17t18.5 9.5t9.5 31.5h61q-3 -60 -29 -87t-60 -27q-25 0 -57 25q-24 16 -32 16zM218 71q42 0 90 21t71 58v34q-69 24 -139 24q-114 0 -114 -73q0 -28 23.5 -46t68.5 -18zM119 335
l-56 54q62 88 194 88q101 0 157 -50t56 -146v-60v-221h-90v60q-24 -34 -70.5 -52t-93.5 -18q-80 0 -128 38.5t-48 106.5q0 65 48.5 106t151.5 41q61 0 140 -25v24q0 52 -34.5 83t-95.5 31q-35 0 -71 -16t-60 -44z" />
    <glyph glyph-name="aring.alt1" horiz-adv-x="540" 
d="M154 645q0 45 30 75.5t74 30.5q45 0 76 -30.5t31 -75.5q0 -44 -31 -74t-76 -30q-44 0 -74 30.5t-30 73.5zM207 645q0 -21 15 -36t36 -15q22 0 38 15t16 36q0 22 -15.5 37.5t-38.5 15.5q-21 0 -36 -15.5t-15 -37.5zM218 71q42 0 90 21t71 58v34q-69 24 -139 24
q-114 0 -114 -73q0 -28 23.5 -46t68.5 -18zM119 335l-56 54q62 88 194 88q101 0 157 -50t56 -146v-60v-221h-90v60q-24 -34 -70.5 -52t-93.5 -18q-80 0 -128 38.5t-48 106.5q0 65 48.5 106t151.5 41q61 0 140 -25v24q0 52 -34.5 83t-95.5 31q-35 0 -71 -16t-60 -44z" />
    <glyph glyph-name="amacron.alt1" horiz-adv-x="540" 
d="M137 660h252v-80h-252v80zM218 71q42 0 90 21t71 58v34q-69 24 -139 24q-114 0 -114 -73q0 -28 23.5 -46t68.5 -18zM119 335l-56 54q62 88 194 88q101 0 157 -50t56 -146v-60v-221h-90v60q-24 -34 -70.5 -52t-93.5 -18q-80 0 -128 38.5t-48 106.5q0 65 48.5 106t151.5 41
q61 0 140 -25v24q0 52 -34.5 83t-95.5 31q-35 0 -71 -16t-60 -44z" />
    <glyph glyph-name="abreve.alt1" horiz-adv-x="540" 
d="M138 683h74q0 -26 15 -42.5t41 -16.5q25 0 40 18t15 41h76q0 -59 -35.5 -93.5t-95.5 -34.5q-65 0 -97.5 37t-32.5 91zM218 71q42 0 90 21t71 58v34q-69 24 -139 24q-114 0 -114 -73q0 -28 23.5 -46t68.5 -18zM119 335l-56 54q62 88 194 88q101 0 157 -50t56 -146v-60
v-221h-90v60q-24 -34 -70.5 -52t-93.5 -18q-80 0 -128 38.5t-48 106.5q0 65 48.5 106t151.5 41q61 0 140 -25v24q0 52 -34.5 83t-95.5 31q-35 0 -71 -16t-60 -44z" />
    <glyph glyph-name="aogonek.alt1" horiz-adv-x="540" 
d="M119 335l-56 54q62 88 194 88q101 0 157 -50t56 -146v-281h-35l-31 -87q-6 -16 -0.5 -31t20.5 -22q35 -10 50 23l3 22l64 4q0 -26 -10 -49q-13 -30 -37 -47t-53 -17q-21 0 -39 8q-30 13 -46.5 37.5t-16.5 54.5q0 23 8 42l33 62v60q-24 -34 -70.5 -52t-93.5 -18
q-80 0 -128 38.5t-48 106.5q0 65 48.5 106t151.5 41q61 0 140 -25v24q0 52 -34.5 83t-95.5 31q-35 0 -71 -16t-60 -44zM218 71q42 0 90 21t71 58v34q-69 24 -139 24q-114 0 -114 -73q0 -28 23.5 -46t68.5 -18z" />
    <glyph glyph-name="yacute.alt1" horiz-adv-x="508" 
d="M404 708l-119 -154h-87l97 154h109zM205 14l-26 -62q-24 -56 -45 -78.5t-63 -22.5q-35 0 -53 3v-80q25 -7 55 -7q71 0 111.5 34t77.5 116l229 550h-97l-140 -336l-139 336h-97z" />
    <glyph glyph-name="ydieresis.alt1" horiz-adv-x="508" 
d="M112 630q0 25 18 42t44 17q25 0 43 -17t18 -42t-18 -42t-43 -17q-26 0 -44 17t-18 42zM281 630q0 25 18 42t44 17t44 -17t18 -42t-18 -42t-44 -17t-44 17t-18 42zM205 14l-26 -62q-24 -56 -45 -78.5t-63 -22.5q-35 0 -53 3v-80q25 -7 55 -7q71 0 111.5 34t77.5 116
l229 550h-97l-140 -336l-139 336h-97z" />
    <glyph glyph-name="ae.alt1" horiz-adv-x="890" 
d="M470 38v-38h-90v60q-24 -34 -70.5 -52t-93.5 -18q-80 0 -128 38.5t-48 106.5q0 65 48.5 106t151.5 41q61 0 140 -25v24q0 52 -34.5 83t-95.5 31q-35 0 -71 -16t-60 -44l-56 54q62 88 194 88q127 0 180 -77q69 77 181 77q101 0 166.5 -66.5t65.5 -175.5q0 -26 -1 -36h-379
q8 -58 49.5 -92.5t101.5 -34.5q43 0 79 19t55 53l40 -15.5l38 -14.5q-29 -60 -87 -92t-128 -32q-86 0 -148 48zM470 270h290q-8 58 -46.5 91.5t-95.5 33.5q-59 0 -99.5 -33.5t-48.5 -91.5zM218 71q42 0 90 21t71 58v34q-69 24 -139 24q-114 0 -114 -73q0 -28 23.5 -46
t68.5 -18z" />
    <glyph glyph-name="aeacute.alt1" horiz-adv-x="890" 
d="M612 708l-119 -154h-87l97 154h109zM470 0v38q62 -48 148 -48q70 0 128 32t87 92l-38 14.5l-40 15.5q-19 -34 -55 -53t-79 -19q-60 0 -101.5 34.5t-49.5 92.5h379q1 10 1 36q0 109 -65.5 175.5t-166.5 66.5q-112 0 -181 -77q-53 77 -180 77q-132 0 -194 -88l56 -54
q24 28 60 44t71 16q61 0 95.5 -31t34.5 -83v-24q-79 25 -140 25q-103 0 -151.5 -41t-48.5 -106q0 -68 48 -106.5t128 -38.5q47 0 93.5 18t70.5 52v-60h90zM760 270h-290q8 58 48.5 91.5t99.5 33.5q57 0 95.5 -33.5t46.5 -91.5zM218 71q-45 0 -68.5 18t-23.5 46q0 73 114 73
q70 0 139 -24v-34q-23 -37 -71 -58t-90 -21z" />
    <glyph glyph-name="ycircumflex.alt1" horiz-adv-x="508" 
d="M327 554l-75 87l-74 -87h-82l110 154h93l110 -154h-82zM179 -48l26 62l-187 453h97l139 -336l140 336h97l-229 -550q-37 -82 -77.5 -116t-111.5 -34q-30 0 -55 7v80q18 -3 53 -3q42 0 63 22.5t45 78.5z" />
    <glyph glyph-name="ldot.alt1" horiz-adv-x="339" 
d="M217 261q0 27 19 45t46 18t46.5 -18t19.5 -45t-19.5 -44.5t-46.5 -17.5t-46 17.5t-19 44.5zM277 85v-85h-39q-168 0 -168 200v521h92v-520q-2 -116 84 -116h31z" />
    <glyph glyph-name="t.alt1" horiz-adv-x="351" 
d="M315 85v-85h-35q-168 0 -168 200v190h-84v77h84v125l92 28v-153h98v-77h-98v-189q-2 -116 84 -116h27z" />
    <glyph glyph-name="tcaron.alt1" horiz-adv-x="351" 
d="M300 528l-58 19q31 42 41.5 78t4.5 96h90q1 -129 -78 -193zM315 0v85h-27q-86 0 -84 116v189h98v77h-98v153l-92 -28v-125h-84v-77h84v-190q0 -200 168 -200h35z" />
    <glyph glyph-name="tbar.alt1" horiz-adv-x="353" 
d="M317 85v-85h-35q-168 0 -168 200v26h-68v61h68v103h-84v77h84v125l92 28v-153h98v-77h-98v-103h75v-61h-75v-25q-2 -116 84 -116h27z" />
    <glyph glyph-name="tcommaaccent.alt1" horiz-adv-x="351" 
d="M193 -250l-58 19q31 42 41.5 78t4.5 96h90q1 -129 -78 -193zM315 85v-85h-35q-168 0 -168 200v190h-84v77h84v125l92 28v-153h98v-77h-98v-189q-2 -116 84 -116h27z" />
    <glyph glyph-name="T.sc.alt1" horiz-adv-x="482" 
d="M23 584h436v-79h-176v-505h-85v505h-175v79z" />
    <glyph glyph-name="Tcaron.sc.alt1" horiz-adv-x="482" 
d="M241 715l61 71h76l-98 -134h-80l-97 134h76zM459 584h-436v-79h175v-505h85v505h176v79z" />
    <glyph glyph-name="Tbar.sc.alt1" horiz-adv-x="483" 
d="M283 350h112v-57h-112v-293h-84v293h-110v57h110v151h-177v83h439v-83h-178v-151z" />
    <glyph glyph-name="Tcommaaccent.sc.alt1" horiz-adv-x="482" 
d="M23 584h436v-79h-176v-505h-85v505h-175v79zM210 -210l-54 17q43 60 43 116q0 12 -2 36h81q1 -112 -68 -169z" />
    <glyph glyph-name="aringacute.alt1" horiz-adv-x="540" 
d="M417 861l-102 -132q54 -29 54 -92q0 -44 -31 -74t-76 -30q-44 0 -74 30.5t-30 73.5q0 36 20 63.5t52 37.5l78 123h109zM211 637q0 -21 15 -36t36 -15q22 0 38 15t16 36q0 22 -15.5 37.5t-38.5 15.5q-21 0 -36 -15.5t-15 -37.5zM218 71q42 0 90 21t71 58v34
q-61 21 -139 21q-114 0 -114 -70q0 -28 23.5 -46t68.5 -18zM119 335l-56 54q62 88 194 88q101 0 157 -50t56 -146v-60v-221h-90v60q-24 -34 -70.5 -52t-93.5 -18q-80 0 -128 38.5t-48 106.5q0 65 48.5 106t151.5 41q61 0 140 -25v24q0 52 -34.5 83t-95.5 31q-35 0 -71 -16
t-60 -44z" />
    </font>
</defs>
</svg>
